<?xml version="1.0" standalone="no"?>
<!DOCTYPE svg PUBLIC "-//W3C//DTD SVG 1.1//EN" "http://www.w3.org/Graphics/SVG/1.1/DTD/svg11.dtd" >
<svg xmlns="http://www.w3.org/2000/svg" xmlns:xlink="http://www.w3.org/1999/xlink" version="1.1">
<metadata>
Created by FontForge 20190801 at Sun May 24 01:56:53 2020
 By Unknown
Copyright (c) Gradient, 2018. All rights reserved.
</metadata>
<defs>
<font id="PolySans-Bulky" horiz-adv-x="608" >
  <font-face 
    font-family="PolySans Bulky"
    font-weight="700"
    font-stretch="normal"
    units-per-em="1000"
    panose-1="0 0 8 0 0 0 0 0 0 0"
    ascent="800"
    descent="-200"
    x-height="528"
    cap-height="704"
    bbox="-228 -288 1184 1128"
    underline-thickness="50"
    underline-position="-150"
    unicode-range="U+0020-25CA"
  />
<missing-glyph horiz-adv-x="496" 
d="M407 -192h-315v992h315v-992zM167 734v-33h64v-37h-65v-33h164v33h-65v37h65v33h-163zM166 606v-104h164v34h-65v70h-99zM231 536h-33v36h33v-36zM166 476v-33h65v-37h-65v-33h99v70h65v33h-164zM298 416v-65h-132v-34h164v99h-32zM231 295v-55h34v22h33v-46h-100v79h-32
v-112h164v112h-99zM166 123v-112h164v112h-164zM298 44h-100v47h100v-47zM166 -11v-33h69l-69 -47v-33h164v33h-101l70 47h31v33h-164z" />
    <glyph glyph-name=".notdef" horiz-adv-x="496" 
d="M407 -192h-315v992h315v-992zM167 734v-33h64v-37h-65v-33h164v33h-65v37h65v33h-163zM166 606v-104h164v34h-65v70h-99zM231 536h-33v36h33v-36zM166 476v-33h65v-37h-65v-33h99v70h65v33h-164zM298 416v-65h-132v-34h164v99h-32zM231 295v-55h34v22h33v-46h-100v79h-32
v-112h164v112h-99zM166 123v-112h164v112h-164zM298 44h-100v47h100v-47zM166 -11v-33h69l-69 -47v-33h164v33h-101l70 47h31v33h-164z" />
    <glyph glyph-name=".null" horiz-adv-x="0" 
 />
    <glyph glyph-name="nonmarkingreturn" horiz-adv-x="333" 
 />
    <glyph glyph-name="space" unicode=" " horiz-adv-x="288" 
 />
    <glyph glyph-name="exclam" unicode="!" horiz-adv-x="272" 
d="M214.5 461q-1.5 -65 -7.5 -106.5t-23 -114.5h-96q-17 73 -23 114.5t-7.5 106.5t-1.5 243h160q0 -178 -1.5 -243zM48 176h176v-176h-176v176z" />
    <glyph glyph-name="quotedbl" unicode="&#x22;" horiz-adv-x="424" 
d="M187.5 541q-4.5 -46 -27.5 -157h-96q-23 111 -27.5 157t-4.5 163h160q0 -117 -4.5 -163zM395.5 541q-4.5 -46 -27.5 -157h-96q-23 111 -27.5 157t-4.5 163h160q0 -117 -4.5 -163z" />
    <glyph glyph-name="numbersign" unicode="#" horiz-adv-x="704" 
d="M656 432h-121l-18 -160h123v-96h-134l-20 -176h-100l20 176h-148l-20 -176h-100l20 176h-110v96h121l18 160h-123v96h134l20 176h100l-20 -176h148l20 176h100l-20 -176h110v-96zM417 272l18 160h-148l-18 -160h148z" />
    <glyph glyph-name="dollar" unicode="$" horiz-adv-x="640" 
d="M203.5 171q21.5 -34 68.5 -46v167q-129 24 -180.5 76t-51.5 142q0 83 61 139.5t171 68.5v82h96v-82q111 -12 168.5 -76.5t61.5 -153.5h-162q0 30 -16.5 55t-51.5 35v-136q127 -19 191.5 -71t64.5 -157q0 -58 -29 -107.5t-86.5 -81.5t-140.5 -39v-82h-96v82
q-84 9 -141.5 46.5t-86 93.5t-28.5 122h166q0 -43 21.5 -77zM220 481.5q13 -15.5 52 -24.5v54q0 37 17 54q2 2 5.5 5t4 6t-2.5 7q-4 4 -13 4q-10 0 -23.5 -4t-22.5 -11q-30 -21 -30 -56q0 -19 13 -34.5zM356 113q11 0 26 4.5t26 10.5q23 13 35.5 34t12.5 42q0 27 -19.5 44.5
t-68.5 28.5v-92q0 -20 -3.5 -29.5t-12.5 -18.5l-5 -5t-5 -7.5t2 -7.5t12 -4z" />
    <glyph glyph-name="percent" unicode="%" horiz-adv-x="832" 
d="M113.5 391q-38.5 23 -60 63t-21.5 90q0 48 21.5 88.5t60 64t87.5 23.5t87 -23.5t59 -64t21 -88.5q0 -50 -21 -90t-59 -63t-87 -23t-87.5 23zM136 0l448 704h112l-448 -704h-112zM246 487.5q18 23.5 18 56.5t-18 56.5t-46 23.5t-46 -23.5t-18 -56.5t18 -56.5t46 -23.5
t46 23.5zM545.5 7q-38.5 23 -60 63t-21.5 90q0 48 21.5 88.5t60 64t87.5 23.5t87 -23.5t59 -64t21 -88.5q0 -50 -21 -90t-59 -63t-87 -23t-87.5 23zM678 103.5q18 23.5 18 56.5t-18 56.5t-46 23.5t-46 -23.5t-18 -56.5t18 -56.5t46 -23.5t46 23.5z" />
    <glyph glyph-name="ampersand" unicode="&#x26;" horiz-adv-x="752" 
d="M521 444q-31 -41 -71 -65t-90 -46q58 -76 114 -119q19 34 29.5 74.5t10.5 79.5h238v-124h-119q-15 -54 -41 -96q55 -20 117 -20h43v-128h-53q-103 0 -201 43q-82 -59 -205 -59q-66 0 -126 25t-97.5 73t-37.5 114q0 56 34 102.5t87 80.5q-30 42 -47.5 79t-17.5 80
q0 50 30 91.5t84.5 66t125.5 24.5q62 0 113 -23t81 -64t30 -93q0 -55 -31 -96zM257 486q6 -15 6 -23q0 -6 -3 -9q-5 -5 -5 -12q0 -6 5 -10t10 -4q8 0 19 9q6 4 15 11.5t27 17.5q36 20 47 35.5t14 36.5q3 28 -19.5 43t-48.5 15q-32 0 -53.5 -16t-22.5 -50q0 -23 9 -44z
M205.5 151.5q13.5 -18.5 38 -31t55.5 -12.5q18 0 26 1h5q7 0 14 -4q17 -10 25 -10t12 7q3 5 3 8q0 6 -11 14q-2 1 -14 9.5t-27 21.5q-28 26 -61 64q-18 21 -11 33q4 8 4 12q0 6 -6 11q-4 4 -9 4q-8 0 -15 -9l-21 -22q-13 -14 -17 -27.5t-4 -33.5q0 -17 13.5 -35.5z" />
    <glyph glyph-name="quotesingle" unicode="'" horiz-adv-x="224" 
d="M187.5 541q-4.5 -46 -27.5 -157h-96q-23 111 -27.5 157t-4.5 163h160q0 -117 -4.5 -163z" />
    <glyph glyph-name="parenleft" unicode="(" horiz-adv-x="288" 
d="M176.5 580.5q-40.5 -110.5 -40.5 -260.5t40.5 -260.5t111.5 -219.5h-106q-71 98 -110.5 221t-39.5 259t39.5 259t110.5 221h106q-71 -109 -111.5 -219.5z" />
    <glyph glyph-name="parenright" unicode=")" horiz-adv-x="288" 
d="M216.5 579q39.5 -123 39.5 -259t-39.5 -259t-110.5 -221h-106q71 109 111.5 219.5t40.5 260.5t-40.5 260.5t-111.5 219.5h106q71 -98 110.5 -221z" />
    <glyph glyph-name="asterisk" unicode="*" horiz-adv-x="480" 
d="M152 582q4 -2 6 -2q7 0 11 7t0 13l-53 81l89 39l21 -96q3 -9 13 -9q11 0 12 9l21 96l90 -37l-52 -83q-1 -2 -1 -5q0 -7 6.5 -11.5t12.5 -0.5l81 53l39 -89l-96 -21q-9 -1 -9 -13q0 -4 2.5 -7.5t6.5 -4.5l96 -21l-37 -90l-83 52q-4 2 -6 2q-7 0 -11 -7t0 -13l53 -81
l-89 -39l-21 96q-1 9 -13 9q-4 0 -7.5 -2.5t-4.5 -6.5l-21 -96l-90 37l52 83q1 2 1 5q0 7 -6.5 11.5t-12.5 0.5l-81 -53l-39 89l96 21q9 3 9 13q0 11 -9 12l-96 21l37 90z" />
    <glyph glyph-name="plus" unicode="+" horiz-adv-x="496" 
d="M464 304h-168v-168h-96v168h-168v96h168v168h96v-168h168v-96z" />
    <glyph glyph-name="comma" unicode="," horiz-adv-x="240" 
d="M114 -19q4 2 12.5 5.5t11.5 7t2 8.5q-3 8 -10 8q-6 0 -19 -5q-14 -5 -34 -5h-45v176h176v-151q0 -29 -10 -52t-42 -77l-24 -40h-100l51 95q11 20 31 30z" />
    <glyph glyph-name="hyphen" unicode="-" horiz-adv-x="384" 
d="M32 208v96h320v-96h-320z" />
    <glyph glyph-name="period" unicode="." horiz-adv-x="240" 
d="M208 176v-176h-176v176h176z" />
    <glyph glyph-name="slash" unicode="/" horiz-adv-x="440" 
d="M0 -80l336 864h104l-336 -864h-104z" />
    <glyph glyph-name="zero" unicode="0" horiz-adv-x="672" 
d="M501 672.5q69 -47.5 104 -130.5t35 -190t-35 -190t-104 -130.5t-165 -47.5t-165 47.5t-104 130.5t-35 190t35 190t104 130.5t165 47.5t165 -47.5zM443.5 183q36.5 63 36.5 169t-36.5 169t-107.5 63t-107.5 -63t-36.5 -169t36.5 -169t107.5 -63t107.5 63z" />
    <glyph glyph-name="one" unicode="1" horiz-adv-x="416" 
d="M320 704v-704h-160v460h-160v112q79 0 114 11.5t46.5 35.5t23.5 85h136z" />
    <glyph glyph-name="two" unicode="2" horiz-adv-x="640" 
d="M164 225q100 56 152 90t84 74.5t32 91.5q0 48 -30 71.5t-82 23.5q-51 0 -82 -30.5t-31 -96.5h-159q0 75 31.5 136.5t93 98t147.5 36.5t147 -31.5t93 -85.5t32 -122q0 -80 -43.5 -140t-102.5 -98.5t-144 -81.5l-47 -25q-20 -11 -13 -22q4 -6 10 -6q7 0 17 6q22 12 44 17
t59 5h236v-136h-560v160q51 30 116 65z" />
    <glyph glyph-name="three" unicode="3" horiz-adv-x="656" 
d="M235.5 153.5q31.5 -29.5 94.5 -29.5q56 0 87 22.5t31 64.5q0 49 -61 71t-163 22v112q90 0 149 22.5t59 70.5q0 36 -27.5 53.5t-72.5 17.5q-54 0 -83 -24.5t-29 -67.5h-156q0 66 32.5 118.5t92.5 83t140 30.5q83 0 142.5 -24.5t90 -68t30.5 -99.5q0 -48 -28.5 -88
t-77.5 -56q-10 -3 -14.5 -6.5t-4.5 -13.5q0 -9 5 -12.5t15 -5.5q61 -16 91 -57.5t30 -93.5q0 -56 -29.5 -104t-91.5 -77.5t-155 -29.5q-138 0 -211 66t-73 182h156q0 -49 31.5 -78.5z" />
    <glyph glyph-name="four" unicode="4" horiz-adv-x="688" 
d="M48 288l276 416h220v-432h96v-136h-96v-136h-160v136h-336v152zM185 241q0 -7 7 -11q6 -2 7 -2q7 0 12 5.5t6 6.5q12 17 27 24.5t42 7.5h98v211q0 32 14 63q10 20 10 28t-6 10q-2 1 -5 1q-10 0 -17 -14l-189 -314q-6 -10 -6 -16z" />
    <glyph glyph-name="five" unicode="5" horiz-adv-x="656" 
d="M297.5 467.5q36.5 11.5 76.5 11.5q60 0 114 -27t87 -81t33 -131q0 -70 -33 -128.5t-97 -93t-152 -34.5q-86 0 -149 30.5t-96 84.5t-33 125h156q0 -42 29 -69t91 -27q59 0 91.5 29t32.5 79t-30.5 79.5t-92.5 29.5q-38 0 -62.5 -9.5t-49.5 -31.5h-149l48 400h433v-144h-304
l-5 -47q-3 -25 -13 -45q-3 -6 -11 -17.5t-8 -16.5q0 -3 5 -8q4 -2 5 -2q5 0 10.5 4.5t6.5 5.5q30 22 66.5 33.5z" />
    <glyph glyph-name="six" unicode="6" horiz-adv-x="672" 
d="M347 720q76 0 134 -28.5t90 -74.5t36 -99h-156q-9 29 -32.5 45.5t-74.5 16.5q-62 0 -87.5 -27t-34.5 -75q-3 -14 -8 -26q-4 -9 -12 -19q-1 -1 -5.5 -7.5t-4.5 -11.5q0 -4 4 -7q2 -2 6 -2q6 0 15 12q21 27 65.5 45t98.5 18q73 0 128.5 -31.5t85 -86t29.5 -122.5
q0 -70 -37.5 -129t-103.5 -93t-147 -34q-136 0 -212 86.5t-76 239.5q0 410 299 410zM241 159.5q33 -31.5 95 -31.5t95 31.5t33 80.5q0 52 -32.5 82t-95.5 30q-62 0 -95 -31.5t-33 -80.5t33 -80.5z" />
    <glyph glyph-name="seven" unicode="7" horiz-adv-x="592" 
d="M415 400q-52 -93 -72 -189t-23 -211h-176q12 119 35 215t71.5 184t128.5 158q20 17 11 27q-3 4 -8 4t-11 -4t-9 -5q-11 -7 -26.5 -9t-42.5 -2h-261v136h528v-128q-93 -83 -145 -176z" />
    <glyph glyph-name="eight" unicode="8" horiz-adv-x="688" 
d="M612 286.5q28 -41.5 28 -90.5q0 -60 -35 -108.5t-102 -76t-159 -27.5t-159 27.5t-102 76t-35 108.5q0 49 28 90.5t78 61.5q12 5 17 8.5t5 13.5q0 9 -4.5 13t-9.5 6t-7 3q-45 20 -68 56.5t-23 79.5q0 48 32 92.5t95.5 72t152.5 27.5t152.5 -27.5t95.5 -72t32 -92.5
q0 -43 -23 -79.5t-68 -56.5q-2 -1 -8 -3.5t-9.5 -7t-3.5 -11.5q0 -10 5 -13.5t17 -8.5q50 -20 78 -61.5zM253 563q-29 -21 -29 -55t29 -55t91 -21t91 21t29 55t-29 55t-91 21t-91 -21zM446.5 145.5q33.5 25.5 33.5 66.5t-33.5 66.5t-102.5 25.5t-102.5 -25.5t-33.5 -66.5
t33.5 -66.5t102.5 -25.5t102.5 25.5z" />
    <glyph glyph-name="nine" unicode="9" horiz-adv-x="672" 
d="M325 -16q-76 0 -134 28.5t-90 74.5t-36 99h156q9 -29 32.5 -45.5t74.5 -16.5q62 0 87.5 27t34.5 75q3 14 8 26q4 9 12 19q1 1 5.5 7.5t4.5 11.5q0 4 -4 7q-2 2 -6 2q-6 0 -15 -12q-21 -27 -65.5 -45t-98.5 -18q-73 0 -128.5 31.5t-85 86t-29.5 122.5q0 70 37.5 129
t103.5 93t147 34q136 0 212 -86.5t76 -239.5q0 -410 -299 -410zM431 544.5q-33 31.5 -95 31.5t-95 -31.5t-33 -80.5q0 -52 32.5 -82t95.5 -30q62 0 95 31.5t33 80.5t-33 80.5z" />
    <glyph glyph-name="colon" unicode=":" horiz-adv-x="240" 
d="M208 176v-176h-176v176h176zM208 528v-176h-176v176h176z" />
    <glyph glyph-name="semicolon" unicode=";" horiz-adv-x="240" 
d="M208 528v-176h-176v176h176zM114 -19q4 2 12.5 5.5t11.5 7t2 8.5q-3 8 -10 8q-6 0 -19 -5q-14 -5 -34 -5h-45v176h176v-151q0 -29 -10 -52t-42 -77l-24 -40h-100l51 95q11 20 31 30z" />
    <glyph glyph-name="less" unicode="&#x3c;" horiz-adv-x="464" 
d="M32 288v128l400 176v-104l-243 -102q-33 -14 -53 -18q-13 -3 -17.5 -5.5t-4.5 -10.5t4.5 -10.5t17.5 -5.5q20 -4 53 -18l243 -102v-104z" />
    <glyph glyph-name="equal" unicode="=" horiz-adv-x="496" 
d="M464 496v-96h-432v96h432zM464 304v-96h-432v96h432z" />
    <glyph glyph-name="greater" unicode="&#x3e;" horiz-adv-x="464" 
d="M275 318q33 14 53 18q13 3 17.5 5.5t4.5 10.5t-4.5 10.5t-17.5 5.5q-20 4 -53 18l-243 102v104l400 -176v-128l-400 -176v104z" />
    <glyph glyph-name="question" unicode="?" horiz-adv-x="544" 
d="M403.5 692q54.5 -28 81.5 -72.5t27 -95.5q0 -43 -15 -75.5t-37.5 -55t-57.5 -49.5q-6 -4 -25.5 -19t-30 -35.5t-10.5 -49.5h-128q0 47 8 73.5t32 58.5q15 20 49 50q28 26 41.5 44.5t13.5 43.5q0 31 -20.5 52.5t-60.5 21.5q-39 0 -66 -22t-27 -67q0 -14 3 -29h-146
q-3 21 -3 42q0 64 30.5 112t84.5 74t124 26q78 0 132.5 -28zM360 176v-176h-176v176h176z" />
    <glyph glyph-name="at" unicode="@" horiz-adv-x="944" 
d="M88.5 490.5q56.5 105.5 159 167.5t232.5 62q128 0 226 -59t152 -157.5t54 -215.5q0 -77 -24.5 -143t-69 -105.5t-102.5 -39.5q-105 0 -129 102q-1 4 -1 10q0 9 5 21q6 12 6 16q0 5 -7 8l-3 1q-6 0 -10 -9t-6 -12q-22 -38 -53 -59.5t-80 -21.5q-52 0 -91.5 29.5t-61 78.5
t-21.5 104t21.5 101.5t61.5 74.5t92 28q38 0 68.5 -20t46.5 -55q5 -9 10 -14t13 -1q5 3 5 8t-5.5 14.5t-8.5 15.5q-2 3 -7.5 13.5t-5.5 21.5v9h104v-255q0 -68 12 -94.5t48 -26.5q19 0 40 23.5t35 68.5t14 107q0 94 -38.5 170.5t-112.5 121.5t-178 45q-103 0 -181 -49
t-120 -132.5t-42 -185.5t43 -186.5t120 -133.5t173 -49q54 0 105 15.5t91 43.5l42 -87q-46 -33 -112 -50.5t-126 -17.5q-126 0 -226.5 62t-157 168.5t-56.5 234.5t56.5 233.5zM393.5 179.5q25.5 -35.5 67.5 -35.5t68 35t26 82q0 54 -26 88.5t-69 34.5q-41 0 -66.5 -34.5
t-25.5 -86.5q0 -48 25.5 -83.5z" />
    <glyph glyph-name="A" unicode="A" horiz-adv-x="704" 
d="M544 0l-50 152h-284l-50 -152h-176l256 704h224l256 -704h-176zM449 288l-69 209q-6 17 -8 36t-3 49q0 18 -17 18q-16 0 -16 -18q-2 -56 -12 -85l-69 -209h194z" />
    <glyph glyph-name="B" unicode="B" horiz-adv-x="688" 
d="M515.5 381q-2.5 -4 -2.5 -11q0 -17 16 -19q64 -14 95.5 -54t31.5 -95q0 -90 -58.5 -146t-163.5 -56h-386v704h328q118 0 183 -47t65 -140q0 -43 -27 -76t-71 -52q-8 -4 -10.5 -8zM362 428q45 0 69.5 19.5t24.5 52.5t-22 48.5t-68 15.5h-150v-136h146zM461.5 159.5
q26.5 19.5 26.5 56.5q0 35 -28.5 55.5t-79.5 20.5h-164v-152h168q51 0 77.5 19.5z" />
    <glyph glyph-name="C" unicode="C" horiz-adv-x="720" 
d="M57 539q41 84 121.5 132.5t193.5 48.5q104 0 177 -41t111 -105.5t44 -135.5h-167q-9 54 -50 96t-113 42q-58 0 -101 -29.5t-66 -81t-23 -113.5t23 -113.5t66 -81t101 -29.5q72 0 113 42t50 96h167q-6 -71 -44 -135.5t-111 -105.5t-177 -41q-113 0 -193.5 48.5
t-121.5 132.5t-41 187t41 187z" />
    <glyph glyph-name="D" unicode="D" horiz-adv-x="704" 
d="M532.5 656q79.5 -48 117.5 -127.5t38 -176.5q0 -96 -39 -176t-118.5 -128t-195.5 -48h-287v704h287q118 0 197.5 -48zM437.5 173q41.5 29 62 76.5t20.5 102.5t-20.5 102.5t-62 76.5t-99.5 29h-122v-416h122q58 0 99.5 29z" />
    <glyph glyph-name="E" unicode="E" 
d="M216 560v-140h296v-136h-296v-140h360v-144h-528v704h528v-144h-360z" />
    <glyph glyph-name="F" unicode="F" horiz-adv-x="592" 
d="M48 704h528v-144h-360v-140h296v-136h-296v-284h-168v704z" />
    <glyph glyph-name="G" unicode="G" horiz-adv-x="752" 
d="M59 538.5q43 83.5 125 132.5t194 49q99 0 169.5 -35.5t109.5 -93.5t47 -127h-167q-15 51 -54.5 81.5t-103.5 30.5q-62 0 -106 -29.5t-66.5 -80.5t-22.5 -114q0 -99 46.5 -161.5t137.5 -62.5q48 0 85.5 19.5t58.5 47.5t24 53h-160v136h328v-384h-168v18q0 32 16 71
q6 14 6 21q0 9 -6 11q-4 2 -6 2q-9 0 -14 -12q-22 -50 -67.5 -88.5t-121.5 -38.5q-101 0 -175 48t-113 132t-39 188q0 103 43 186.5z" />
    <glyph glyph-name="H" unicode="H" horiz-adv-x="720" 
d="M672 704v-704h-168v280h-288v-280h-168v704h168v-280h288v280h168z" />
    <glyph glyph-name="I" unicode="I" horiz-adv-x="264" 
d="M48 0v704h168v-704h-168z" />
    <glyph glyph-name="J" unicode="J" horiz-adv-x="544" 
d="M512 252q0 -130 -64 -199t-184 -69q-116 0 -182 68t-66 192h168q0 -116 80 -116q37 0 58.5 29t21.5 87v460h168v-452z" />
    <glyph glyph-name="K" unicode="K" horiz-adv-x="672" 
d="M468 0l-197 272l-55 -61v-211h-168v704h168v-197q0 -29 -7 -45.5t-20 -31.5q-5 -7 -5 -12q0 -6 5 -10q5 -3 9 -3q6 0 13 7l249 292h196l-279 -312l295 -392h-204z" />
    <glyph glyph-name="L" unicode="L" horiz-adv-x="576" 
d="M216 704v-560h344v-144h-512v704h168z" />
    <glyph glyph-name="M" unicode="M" horiz-adv-x="944" 
d="M316 704l128 -492q11 -38 12 -75q0 -20 16 -20t16 20q1 37 12 75l128 492h268v-704h-168v455q0 42 20 97q4 9 4 18q0 10 -10 13l-4 1q-7 0 -9.5 -4t-5.5 -14l-151 -566h-200l-151 566q-3 10 -5.5 14t-9.5 4q-14 0 -14 -13q0 -10 4 -19q20 -55 20 -97v-455h-168v704h268z
" />
    <glyph glyph-name="N" unicode="N" horiz-adv-x="752" 
d="M304 704l232 -554q6 -12 15 -12q13 0 13 12q0 7 -5 19q-11 23 -17 41.5t-6 37.5v456h168v-704h-256l-232 554q-7 13 -16 12q-12 -3 -12 -13q0 -6 5 -18q11 -23 17 -41.5t6 -37.5v-456h-168v704h256z" />
    <glyph glyph-name="O" unicode="O" horiz-adv-x="752" 
d="M571.5 671.5q81.5 -48.5 123 -132.5t41.5 -187t-41.5 -187t-123 -132.5t-195.5 -48.5t-195.5 48.5t-123 132.5t-41.5 187t41.5 187t123 132.5t195.5 48.5t195.5 -48.5zM479.5 157.5q43.5 29.5 66 80.5t22.5 114t-22.5 114t-66 80.5t-103.5 29.5t-103.5 -29.5t-66 -80.5
t-22.5 -114t22.5 -114t66 -80.5t103.5 -29.5t103.5 29.5z" />
    <glyph glyph-name="P" unicode="P" horiz-adv-x="656" 
d="M573 640.5q67 -63.5 67 -164.5q0 -64 -29 -117.5t-87 -86t-142 -32.5h-166v-240h-168v704h318q140 0 207 -63.5zM442.5 400.5q29.5 24.5 29.5 67.5q0 47 -28.5 69.5t-86.5 22.5h-141v-184h141q56 0 85.5 24.5z" />
    <glyph glyph-name="Q" unicode="Q" horiz-adv-x="752" 
d="M704.5 186.5q-31.5 -75.5 -91.5 -125.5l107 -125h-148l-60 70q-63 -22 -136 -22q-114 0 -195.5 48.5t-123 132.5t-41.5 187t41.5 187t123 132.5t195.5 48.5t195.5 -48.5t123 -132.5t41.5 -187q0 -90 -31.5 -165.5zM406 130l-94 110h148l49 -57q29 31 44 74.5t15 94.5
q0 63 -22.5 114t-66 80.5t-103.5 29.5t-103.5 -29.5t-66 -80.5t-22.5 -114t22.5 -114t66 -80.5t103.5 -29.5q10 0 30 2z" />
    <glyph glyph-name="R" unicode="R" horiz-adv-x="688" 
d="M366 704q141 0 207.5 -58.5t66.5 -157.5q0 -39 -19.5 -76.5t-56 -64.5t-86.5 -34q-17 -2 -17 -18t18 -18q66 -7 94 -31t39 -58l60 -188h-190l-28 139q-8 39 -22.5 60.5t-44 31t-83.5 9.5h-88v-240h-168v704h318zM437 401q35 25 35 67q0 47 -28.5 69.5t-86.5 22.5h-141
v-184h131q55 0 90 25z" />
    <glyph glyph-name="S" unicode="S" horiz-adv-x="640" 
d="M549.5 379q74.5 -52 74.5 -165q0 -64 -34.5 -116t-103 -83t-166.5 -31q-100 0 -168.5 36t-102 96t-33.5 132h166q0 -54 32.5 -91t105.5 -37q70 0 103 25t33 59q0 33 -30 52t-106 29q-107 14 -168 43t-86.5 73t-25.5 109q0 60 33 107.5t96.5 75t152.5 27.5q91 0 152 -32
t91 -84.5t33 -115.5h-162q0 40 -28 68t-88 28q-59 0 -86 -20.5t-27 -47.5q0 -25 24 -43t97 -26q147 -16 221.5 -68z" />
    <glyph glyph-name="T" unicode="T" horiz-adv-x="640" 
d="M624 704v-144h-220v-560h-168v560h-220v144h608z" />
    <glyph glyph-name="U" unicode="U" horiz-adv-x="720" 
d="M672 282q0 -96 -40.5 -163t-111 -101t-160.5 -34q-91 0 -161.5 34t-110.5 101t-40 163v422h168v-434q0 -48 21.5 -80t54.5 -47t68 -15q33 0 66.5 15.5t55.5 47.5t22 79v434h168v-422z" />
    <glyph glyph-name="V" unicode="V" horiz-adv-x="688" 
d="M316 207q10 -33 12 -86q0 -19 16 -19q17 0 17 19q2 56 11 86l156 497h176l-248 -704h-224l-248 704h176z" />
    <glyph glyph-name="W" unicode="W" horiz-adv-x="1008" 
d="M275 214q7 -35 9 -85q0 -21 16 -21t16 21q0 49 7 85l85 490h192l85 -490q7 -43 7 -85q0 -21 16 -21t16 21q0 39 9 85l99 490h176l-176 -704h-240l-66 421q-6 39 -6 90q0 21 -16 21t-16 -21q0 -51 -6 -90l-66 -421h-240l-176 704h176z" />
    <glyph glyph-name="X" unicode="X" horiz-adv-x="672" 
d="M16 704h178l114 -209q10 -19 12 -55q0 -21 16 -21t16 21q2 36 12 55l114 209h178l-205 -341l221 -363h-180l-128 228q-10 18 -12 54q0 21 -16 21t-16 -21q-2 -36 -12 -54l-128 -228h-180l221 363z" />
    <glyph glyph-name="Y" unicode="Y" horiz-adv-x="656" 
d="M302 463q8 -13 10 -45q0 -21 16 -21t16 21q2 32 10 45l136 241h182l-260 -440v-264h-168v264l-260 440h182z" />
    <glyph glyph-name="Z" unicode="Z" horiz-adv-x="656" 
d="M374 509q23 24 52 37q22 10 16 22q-4 8 -12 8q-3 0 -16 -5q-26 -11 -53 -11h-329v144h592v-160l-342 -349q-20 -20 -52 -37q-22 -10 -16 -22q4 -8 12 -8q4 0 16 5q26 11 53 11h329v-144h-592v160z" />
    <glyph glyph-name="bracketleft" unicode="[" horiz-adv-x="256" 
d="M136 -64h104v-96h-208v960h208v-96h-104v-768z" />
    <glyph glyph-name="backslash" unicode="\" horiz-adv-x="440" 
d="M0 784h104l336 -864h-104z" />
    <glyph glyph-name="bracketright" unicode="]" horiz-adv-x="256" 
d="M16 704v96h208v-960h-208v96h104v768h-104z" />
    <glyph glyph-name="asciicircum" unicode="^" horiz-adv-x="512" 
d="M316 704l164 -304h-104l-94 198q-8 16 -12 40q-3 14 -14 14t-14 -14q0 -2 -2 -13.5t-10 -26.5l-98 -198h-100l164 304h120z" />
    <glyph glyph-name="underscore" unicode="_" horiz-adv-x="576" 
d="M16 -128v96h544v-96h-544z" />
    <glyph glyph-name="grave" unicode="`" horiz-adv-x="584" 
 />
    <glyph glyph-name="a" unicode="a" horiz-adv-x="592" 
d="M73 265q57 40 151 46q32 2 45 2q64 3 90 10t25 33q-1 28 -21 48t-69 20q-50 0 -73.5 -19t-30.5 -53h-158q13 98 89.5 145t176.5 47q111 0 178.5 -53.5t67.5 -198.5v-292h-160v27q0 22 11 44q1 3 6 13t5 17q0 6 -5 8l-6 2q-8 0 -11 -7t-4 -8q-26 -52 -71.5 -82t-108.5 -30
q-52 0 -94.5 21t-66 56.5t-23.5 79.5q0 84 57 124zM341.5 232.5q-24.5 -5.5 -95.5 -14.5q-31 -3 -50.5 -19t-19.5 -47q0 -27 19.5 -42t48.5 -15q26 0 58.5 16t57 52t24.5 93q-18 -18 -42.5 -23.5z" />
    <glyph glyph-name="b" unicode="b" horiz-adv-x="624" 
d="M197 468q-2 -4 -8 -15t-6 -18q0 -5 6 -8q2 -1 6 -1q9 0 17 16q55 102 166 102q71 0 123 -37t79.5 -100.5t27.5 -142.5t-27.5 -142.5t-79.5 -100.5t-123 -37q-112 0 -166 103q-4 8 -8 12t-10 2q-8 -3 -8 -11t10 -28q12 -21 12 -43v-19h-160v720h160v-208q0 -22 -11 -44z
M418.5 161q29.5 41 29.5 103t-29.5 103t-86.5 41q-55 0 -89.5 -42t-34.5 -102t34.5 -102t89.5 -42q57 0 86.5 41z" />
    <glyph glyph-name="c" unicode="c" horiz-adv-x="576" 
d="M50 405.5q34 63.5 98 101t152 37.5q77 0 134.5 -31.5t89.5 -83t36 -110.5l-158 -1q-7 39 -33.5 64.5t-67.5 25.5q-56 0 -90.5 -42t-34.5 -102t34.5 -102t90.5 -42q41 0 67.5 26t33.5 65l158 -1q-4 -59 -36 -111t-89.5 -83.5t-134.5 -31.5q-86 0 -150.5 37.5t-99 101
t-34.5 141.5t34 141.5z" />
    <glyph glyph-name="d" unicode="d" horiz-adv-x="624" 
d="M576 0h-160v19q0 17 12 43q10 20 10 28t-8 11l-3 1q-7 0 -10.5 -7t-4.5 -8q-25 -49 -66.5 -76t-99.5 -27q-71 0 -123 37t-79.5 100.5t-27.5 142.5t27.5 142.5t79.5 100.5t123 37q108 0 166 -102q5 -9 10 -14t13 -1q6 3 6 8q0 7 -6 18t-8 15q-11 22 -11 44v208h160v-720z
M381.5 162q34.5 42 34.5 102t-34.5 102t-89.5 42q-57 0 -86.5 -41t-29.5 -103t29.5 -103t86.5 -41q55 0 89.5 42z" />
    <glyph glyph-name="e" unicode="e" horiz-adv-x="576" 
d="M557 224h-383q8 -51 41 -81.5t82 -30.5q36 0 60 17t34 47h159q-17 -82 -82 -137t-170 -55q-89 0 -153 37t-96.5 100.5t-32.5 142.5q0 82 33 145.5t96 99t150 35.5q70 0 130.5 -29t97.5 -88.5t37 -146.5q0 -33 -3 -56zM178 320h225q-4 48 -32 74t-73 26q-99 0 -120 -100z
" />
    <glyph glyph-name="f" unicode="f" horiz-adv-x="400" 
d="M254 605.5q-9 -2.5 -11.5 -12.5t-2.5 -37v-28h144v-128h-144v-400h-160v400h-80v128h80v46q0 63 16.5 98t50.5 49.5t89 14.5h148v-128h-96q-25 0 -34 -2.5z" />
    <glyph glyph-name="g" unicode="g" horiz-adv-x="624" 
d="M43.5 414q27.5 61 79.5 95.5t123 34.5q110 0 166 -102q0 -1 4 -7.5t12 -4.5q8 3 8 11q0 9 -9 27q-11 22 -11 44v16h160v-492q0 -121 -74 -182.5t-203 -61.5q-244 0 -267 184h156q6 -31 32 -47.5t79 -16.5q66 0 91.5 30.5t25.5 84.5q0 22 12 43q11 20 11 28q0 7 -7 10
q-2 1 -5 1q-8 0 -15 -13q-25 -45 -66 -66.5t-100 -21.5q-71 0 -123 34.5t-79.5 95.5t-27.5 138t27.5 138zM381.5 182.5q34.5 38.5 34.5 93.5t-34.5 93.5t-89.5 38.5q-57 0 -86.5 -37.5t-29.5 -94.5t29.5 -94.5t86.5 -37.5q55 0 89.5 38.5z" />
    <glyph glyph-name="h" unicode="h" 
d="M525 487q51 -57 51 -167v-320h-160v256q0 86 -19.5 119t-64.5 33q-33 0 -61.5 -26t-45.5 -73t-17 -106v-203h-160v720h160v-217q0 -31 -13 -57q-11 -22 -11 -31q0 -8 6 -10q2 -1 5 -1q9 0 16 16q23 49 68 86.5t107 37.5q88 0 139 -57z" />
    <glyph glyph-name="i" unicode="i" horiz-adv-x="256" 
d="M48 720h160v-128h-160v128zM48 528h160v-528h-160v528z" />
    <glyph glyph-name="j" unicode="j" horiz-adv-x="272" 
d="M64 720h160v-128h-160v128zM224 -28q0 -92 -37.5 -128t-120.5 -36h-130v128h76q23 0 33.5 4t14.5 15.5t4 36.5v536h160v-556z" />
    <glyph glyph-name="k" unicode="k" horiz-adv-x="576" 
d="M400 0l-148 203l-44 -44v-159h-160v720h160v-295q0 -26 -6 -42.5t-19 -30.5q-8 -10 -8 -17q0 -5 5 -9q5 -3 8 -3q8 0 16 10l180 195h192l-220 -221l236 -307h-192z" />
    <glyph glyph-name="l" unicode="l" horiz-adv-x="256" 
d="M208 720v-720h-160v720h160z" />
    <glyph glyph-name="m" unicode="m" horiz-adv-x="864" 
d="M832 328v-328h-160v296q0 60 -16 86t-54 26q-35 0 -58.5 -43.5t-23.5 -112.5v-252h-160v284q0 65 -12 94.5t-45 29.5q-43 0 -69 -50t-26 -128v-230h-160v528h160v-20q0 -24 -15 -51q-8 -14 -8 -24q0 -8 7 -11q2 -1 5 -1q6 0 9.5 4.5t5.5 9.5q51 109 144 109
q49 0 80.5 -26.5t43.5 -72.5q5 -15 20 -15q8 0 12 3t8 10q24 48 65.5 74.5t88.5 26.5q158 0 158 -216z" />
    <glyph glyph-name="n" unicode="n" 
d="M525 487q51 -57 51 -167v-320h-160v256q0 86 -19.5 119t-64.5 33q-33 0 -61.5 -26t-45.5 -73t-17 -106v-203h-160v528h160v-25q0 -31 -13 -57q-11 -22 -11 -31q0 -8 6 -10q2 -1 5 -1q9 0 16 16q23 49 68 86.5t107 37.5q88 0 139 -57z" />
    <glyph glyph-name="o" unicode="o" horiz-adv-x="592" 
d="M444.5 506.5q63.5 -37.5 97.5 -101.5t34 -141t-34 -141t-97.5 -101.5t-148.5 -37.5t-148.5 37.5t-97.5 101.5t-34 141t34 141t97.5 101.5t148.5 37.5t148.5 -37.5zM384.5 161q31.5 41 31.5 103t-31.5 103t-88.5 41t-88.5 -41t-31.5 -103t31.5 -103t88.5 -41t88.5 41z" />
    <glyph glyph-name="p" unicode="p" horiz-adv-x="624" 
d="M197 468q-2 -4 -8 -15t-6 -18q0 -5 6 -8q2 -1 6 -1q9 0 17 16q55 102 166 102q71 0 123 -37t79.5 -100.5t27.5 -142.5t-27.5 -142.5t-79.5 -100.5t-123 -37q-112 0 -166 103q-4 8 -8 12t-10 2q-8 -3 -8 -11t10 -28q12 -21 12 -43v-211h-160v720h160v-16q0 -22 -11 -44z
M418.5 161q29.5 41 29.5 103t-29.5 103t-86.5 41q-55 0 -89.5 -42t-34.5 -102t34.5 -102t89.5 -42q57 0 86.5 41z" />
    <glyph glyph-name="q" unicode="q" horiz-adv-x="624" 
d="M576 -192h-160v211q0 17 12 43q10 20 10 28t-8 11l-3 1q-7 0 -10.5 -7t-4.5 -8q-25 -49 -66.5 -76t-99.5 -27q-71 0 -123 37t-79.5 100.5t-27.5 142.5t27.5 142.5t79.5 100.5t123 37q108 0 166 -102q5 -9 10 -14t13 -1q6 3 6 8q0 7 -6 18t-8 15q-11 22 -11 44v16h160
v-720zM381.5 162q34.5 42 34.5 102t-34.5 102t-89.5 42q-57 0 -86.5 -41t-29.5 -103t29.5 -103t86.5 -41q55 0 89.5 42z" />
    <glyph glyph-name="r" unicode="r" horiz-adv-x="416" 
d="M197 415q8 0 15 14q17 39 36.5 61.5t55 34t96.5 11.5v-154q-11 1 -32 1q-88 0 -124 -42t-36 -136v-205h-160v528h160v-24q0 -24 -14 -52q-8 -18 -8 -25q0 -11 9 -12h2z" />
    <glyph glyph-name="s" unicode="s" horiz-adv-x="544" 
d="M198.5 126.5q23.5 -22.5 76.5 -22.5q49 0 71 13t22 35t-31.5 32.5t-105.5 18.5q-121 14 -160 61.5t-39 107.5q0 46 28 85t83 63t131 24q101 0 166.5 -46.5t71.5 -137.5h-158q-3 64 -83 64q-41 0 -60 -12t-19 -33q0 -16 19.5 -27t78.5 -16q116 -11 177 -51.5t61 -122.5
q0 -51 -31 -91.5t-89 -63.5t-137 -23q-120 0 -185 52.5t-70 147.5h158q1 -35 24.5 -57.5z" />
    <glyph glyph-name="t" unicode="t" horiz-adv-x="432" 
d="M256 400v-220q0 -27 2.5 -37t11.5 -12.5t34 -2.5h96v-128h-148q-55 0 -89 14.5t-50.5 49.5t-16.5 98v238h-96v128h96v144h160v-144h144v-128h-144z" />
    <glyph glyph-name="u" unicode="u" 
d="M83 41q-51 57 -51 167v320h160v-256q0 -86 19.5 -119t64.5 -33q33 0 61.5 26t45.5 73t17 106v203h160v-528h-160v25q0 31 13 57q11 22 11 31q0 8 -6 10q-2 1 -5 1q-9 0 -16 -16q-25 -49 -69.5 -86.5t-105.5 -37.5q-88 0 -139 57z" />
    <glyph glyph-name="v" unicode="v" horiz-adv-x="544" 
d="M249 188q7 -27 7 -71q0 -22 16 -22t16 22q0 44 7 71l95 340h170l-176 -528h-224l-176 528h170z" />
    <glyph glyph-name="w" unicode="w" horiz-adv-x="816" 
d="M215 200q5 -26 5 -67q0 -21 16 -21t16 21q0 41 5 67l55 328h192l55 -328q5 -26 5 -67q0 -21 16 -21t16 21q0 41 5 67l63 328h168l-144 -528h-216l-43 289q-2 18 -5 90q0 21 -16 21t-16 -21q-3 -72 -5 -90l-43 -289h-216l-144 528h168z" />
    <glyph glyph-name="x" unicode="x" horiz-adv-x="592" 
d="M16 528h180l72 -131q12 -21 12 -42t16 -21t16 21t12 42l72 131h180l-172 -252l188 -276h-180l-88 156q-10 16 -12 42q-1 10 -4 15.5t-12 5.5t-12 -5.5t-4 -15.5q-2 -26 -12 -42l-88 -156h-180l188 276z" />
    <glyph glyph-name="y" unicode="y" horiz-adv-x="544" 
d="M250 215q8 -27 8 -56q0 -21 16 -21q9 0 12 5.5t4 15.5q1 5 2.5 22t6.5 34l91 313h170l-224 -589q-27 -71 -68 -101t-110 -30h-128v128h44h31q39 0 53 6.5t25 33.5l6 15l-205 537h170z" />
    <glyph glyph-name="z" unicode="z" horiz-adv-x="544" 
d="M249 338q29 24 73 43q18 8 13 21q-3 8 -11 8q-4 0 -14 -4q-31 -14 -66 -14h-212v136h480v-152l-217 -186q-29 -24 -73 -43q-18 -8 -13 -21q3 -8 11 -8q4 0 14 4q32 14 66 14h212v-136h-480v152z" />
    <glyph glyph-name="braceleft" unicode="{" horiz-adv-x="320" 
d="M145.5 -141.5q-49.5 34.5 -49.5 115.5v218q0 29 -16.5 46t-47.5 18v128q31 1 47.5 18t16.5 46v218q0 81 49.5 115.5t158.5 34.5v-96q-57 0 -80.5 -14t-23.5 -56v-184q0 -51 -16.5 -82.5t-45.5 -44.5q-1 -1 -7 -3t-9.5 -6t-3.5 -10q0 -7 4.5 -11t9.5 -5.5t6 -2.5
q29 -13 45.5 -44.5t16.5 -82.5v-184q0 -42 23.5 -56t80.5 -14v-96q-109 0 -158.5 34.5z" />
    <glyph glyph-name="bar" unicode="|" horiz-adv-x="192" 
d="M48 -224v960h96v-960h-96z" />
    <glyph glyph-name="braceright" unicode="}" horiz-adv-x="320" 
d="M96.5 -66q23.5 14 23.5 56v184q0 51 16.5 82.5t45.5 44.5q1 1 7 3t9.5 6t3.5 10q0 7 -4.5 11t-9.5 5.5t-6 2.5q-29 13 -45.5 44.5t-16.5 82.5v184q0 42 -23.5 56t-80.5 14v96q109 0 158.5 -34.5t49.5 -115.5v-218q0 -29 16.5 -46t47.5 -18v-128q-31 -1 -47.5 -18
t-16.5 -46v-218q0 -81 -49.5 -115.5t-158.5 -34.5v96q57 0 80.5 14z" />
    <glyph glyph-name="asciitilde" unicode="~" horiz-adv-x="528" 
d="M475.5 353.5q-17.5 -31.5 -50 -52.5t-77.5 -21q-26 0 -51.5 9t-58.5 26q-25 13 -39.5 18.5t-26.5 5.5q-31 0 -44 -43h-96q3 31 20.5 60.5t50 48.5t77.5 19q26 0 49.5 -8.5t58.5 -24.5q25 -12 39 -17.5t26 -5.5q32 0 47 48h96q-3 -31 -20.5 -62.5z" />
    <glyph glyph-name="exclamdown" unicode="&#xa1;" horiz-adv-x="272" 
d="M48 528h176v-176h-176v176zM57.5 67q1.5 65 7.5 106.5t23 114.5h96q17 -73 23 -114.5t7.5 -106.5t1.5 -243h-160q0 178 1.5 243z" />
    <glyph glyph-name="cent" unicode="&#xa2;" horiz-adv-x="576" 
d="M43 393q27 59 79.5 97.5t125.5 49.5v84h96v-83q64 -9 111.5 -41.5t74 -80t30.5 -100.5l-158 -1q-5 27 -20 48.5t-38 32.5v-198q0 -19 -4.5 -30t-13.5 -23q-9 -11 -9 -16q0 -10 9 -10q7 0 17 5t19 13q33 29 40 71l158 -1q-4 -53 -30 -101t-73.5 -80.5t-112.5 -41.5v-83
h-96v84q-71 11 -123.5 50t-80.5 98t-28 128q0 70 27 129zM195.5 184q19.5 -36 52.5 -52v193q0 18 4 29.5t13 22.5q6 8 8.5 13.5t-1.5 9.5t-9 4q-12 0 -30 -14q-27 -20 -42 -53t-15 -73q0 -44 19.5 -80z" />
    <glyph glyph-name="sterling" unicode="&#xa3;" 
d="M97.5 172q18.5 25 18.5 59q0 21 -7 56h-77v96h51q-7 19 -13 50.5t-6 60.5q0 65 32 116.5t91 80.5t138 29q84 0 140.5 -34.5t83.5 -92.5t27 -129h-152q0 51 -25.5 81.5t-73.5 30.5q-47 0 -74 -25t-27 -65q0 -20 5 -51.5t12 -51.5h183v-96h-165q5 -33 5 -53
q0 -31 -12.5 -53t-42.5 -39q-10 -5 -14.5 -10.5t-0.5 -12.5t11 -7q4 0 16 5q5 2 23.5 10.5t39.5 8.5h292v-136h-544v128q47 19 65.5 44z" />
    <glyph glyph-name="currency" unicode="&#xa4;" horiz-adv-x="494" 
d="M86 352q0 47 25 86l-79 82l49 47l78 -81q42 26 88 26q48 0 88 -27l78 82l49 -47l-81 -82q25 -39 25 -86t-25 -86l81 -80l-47 -49l-82 80q-39 -25 -86 -25t-88 25l-80 -80l-47 48l79 81q-25 39 -25 86zM291 307q19 19 19 45t-19 45t-45 19t-45 -19t-19 -45t19 -45t45 -19
t45 19z" />
    <glyph glyph-name="yen" unicode="&#xa5;" horiz-adv-x="688" 
d="M428 264h148v-64h-464v64h148l-260 440h182l136 -241q8 -13 10 -45q0 -21 16 -21t16 21q2 32 10 45l136 241h182zM112 96v64h464v-64h-148v-96h-168v96h-148z" />
    <glyph glyph-name="brokenbar" unicode="&#xa6;" horiz-adv-x="192" 
d="M48 416v320h96v-320h-96zM48 -224v320h96v-320h-96z" />
    <glyph glyph-name="section" unicode="&#xa7;" horiz-adv-x="560" 
d="M46.5 361.5q14.5 36.5 42.5 65.5q-33 41 -33 103q0 54 28.5 97.5t79.5 68t117 24.5q68 0 117.5 -30t75 -81t27.5 -113h-94q0 57 -33 96.5t-95 39.5t-94.5 -28.5t-32.5 -67.5q0 -38 28.5 -64.5t108.5 -42.5q77 -15 127.5 -36t81 -61t30.5 -106q0 -39 -14.5 -75.5
t-42.5 -65.5q33 -41 33 -103q0 -54 -28.5 -97.5t-79.5 -68t-117 -24.5q-68 0 -117.5 30t-75 81t-27.5 113h94q0 -57 33 -96.5t95 -39.5t94.5 28.5t32.5 67.5q0 38 -28.5 64.5t-108.5 42.5q-77 15 -127.5 36t-81 61t-30.5 106q0 39 14.5 75.5zM128 378q0 -6 9 -15q6 -7 6 -13
q0 -4 -4 -12q-11 -24 -11 -46q0 -46 36.5 -72.5t116.5 -42.5q7 -1 32 -6.5t44.5 -12t34.5 -14.5q15 -9 17 -10q10 -6 14 -7.5t9 2.5q4 3 4 7q0 5 -4.5 10.5t-5.5 6.5q-7 7 -7 14q0 3 3 9q10 21 10 44q0 46 -36.5 72.5t-116.5 42.5q-88 20 -122 43q-2 2 -7.5 6t-10.5 4
q-4 0 -8 -4q-3 -3 -3 -6z" />
    <glyph glyph-name="dieresis" unicode="&#xa8;" horiz-adv-x="584" 
 />
    <glyph glyph-name="copyright" unicode="&#xa9;" horiz-adv-x="800" 
d="M213.5 33.5q-84.5 49.5 -133 133.5t-48.5 185q0 102 48.5 186.5t133 133t186.5 48.5t186.5 -48.5t133 -133t48.5 -186.5t-48.5 -186.5t-133 -133t-186.5 -48.5t-186.5 49.5zM537.5 116q62.5 36 98.5 98.5t36 137.5t-36 137.5t-98.5 98.5t-137.5 36t-137.5 -36
t-98.5 -98.5t-36 -137.5t36 -137.5t98.5 -98.5t137.5 -36t137.5 36zM242.5 445q22.5 42 64.5 66.5t99 24.5q53 0 91.5 -20.5t59 -53t23.5 -67.5h-99q-5 20 -23.5 36.5t-51.5 16.5q-39 0 -62.5 -27.5t-23.5 -68.5t23.5 -68.5t62.5 -27.5q33 0 51.5 16.5t23.5 36.5h99
q-3 -35 -23.5 -67.5t-59 -53t-91.5 -20.5q-57 0 -99 24.5t-64.5 66.5t-22.5 93t22.5 93z" />
    <glyph glyph-name="ordfeminine" unicode="&#xaa;" horiz-adv-x="375" 
d="M66 556q34 24 89 27l23 1q40 2 55.5 6t15.5 19q-2 40 -53 40q-54 0 -61 -42h-93q7 58 52 85.5t104 27.5q66 0 105.5 -31.5t39.5 -116.5v-172h-94v16q0 14 6 26q4 7 6 13.5t-2 8.5l-4 1q-4 0 -5.5 -4t-2.5 -5q-16 -30 -42.5 -47.5t-63.5 -17.5q-47 0 -78 26.5t-31 65.5
q0 49 34 73zM226.5 537.5q-13.5 -3.5 -32 -6t-26.5 -3.5q-41 -4 -41 -39q0 -16 11.5 -25t28.5 -9q16 0 34.5 9.5t33 31t14.5 55.5q-9 -10 -22.5 -13.5z" />
    <glyph glyph-name="guillemotleft" unicode="&#xab;" horiz-adv-x="592" 
d="M320 496l-188 -224l188 -224h-116l-188 224l188 224h116zM560 496l-188 -224l188 -224h-116l-188 224l188 224h116z" />
    <glyph glyph-name="logicalnot" unicode="&#xac;" horiz-adv-x="576" 
d="M544 184h-96v120h-416v96h512v-216z" />
    <glyph glyph-name="registered" unicode="&#xae;" horiz-adv-x="800" 
d="M80.5 538.5q48.5 84.5 133 133t186.5 48.5t186.5 -48.5t133 -133t48.5 -186.5t-48.5 -186.5t-133 -133t-186.5 -48.5t-186.5 49.5t-133 133.5t-48.5 185q0 102 48.5 186.5zM164 214.5q36 -62.5 98.5 -98.5t137.5 -36t137.5 36t98.5 98.5t36 137.5t-36 137.5t-98.5 98.5
t-137.5 36t-137.5 -36t-98.5 -98.5t-36 -137.5t36 -137.5zM427 528q71 0 104 -29t33 -79q0 -28 -21.5 -50.5t-59.5 -31.5q-11 -3 -11 -14q0 -12 12 -14q33 -5 47.5 -15t18.5 -25l30 -94h-111l-14 66q-6 29 -21 39.5t-54 10.5h-28v-116h-100v352h175zM446.5 379
q17.5 11 17.5 29q0 21 -14 30.5t-43 9.5h-55v-80h50q27 0 44.5 11z" />
    <glyph glyph-name="macron" unicode="&#xaf;" horiz-adv-x="584" 
 />
    <glyph glyph-name="degree" unicode="&#xb0;" horiz-adv-x="400" 
d="M113.5 391q-38.5 23 -60 63t-21.5 90q0 48 21.5 88.5t60 64t87.5 23.5t87 -23.5t59 -64t21 -88.5q0 -50 -21 -90t-59 -63t-87 -23t-87.5 23zM246 487.5q18 23.5 18 56.5t-18 56.5t-46 23.5t-46 -23.5t-18 -56.5t18 -56.5t46 -23.5t46 23.5z" />
    <glyph glyph-name="plusminus" unicode="&#xb1;" horiz-adv-x="496" 
d="M464 376h-168v-152h-96v152h-168v96h168v152h96v-152h168v-96zM464 176v-96h-432v96h432z" />
    <glyph glyph-name="uni00B2" unicode="&#xb2;" horiz-adv-x="360" 
d="M90 566q51 27 76.5 42.5t41.5 35t16 45.5q0 21 -13 32t-35 11q-21 0 -34.5 -14.5t-13.5 -44.5h-96q0 58 37.5 96.5t106.5 38.5t106.5 -33t37.5 -86q0 -39 -21.5 -68t-51 -47t-71.5 -37q-10 -4 -28 -13q-11 -4 -7 -12q5 -8 14 -1q14 7 25.5 10t29.5 3h118v-76h-296v88
q20 11 58 30z" />
    <glyph glyph-name="uni00B3" unicode="&#xb3;" horiz-adv-x="360" 
d="M181 514q25 0 38 11t13 29q0 24 -28 33t-80 9v64q100 0 100 43q0 16 -11.5 24.5t-30.5 8.5q-48 0 -48 -44h-94q0 50 39.5 83t101.5 33q64 0 101.5 -26.5t37.5 -69.5q0 -25 -14.5 -45t-40.5 -25q-13 -3 -13 -12q0 -7 14 -11q31 -8 46.5 -28t15.5 -45q0 -44 -37.5 -75
t-108.5 -31q-70 0 -110 33.5t-40 90.5h94q0 -50 55 -50z" />
    <glyph glyph-name="acute" unicode="&#xb4;" horiz-adv-x="584" 
 />
    <glyph glyph-name="paragraph" unicode="&#xb6;" horiz-adv-x="672" 
d="M552 -192h-104v800h-104v-800h-104v464q-59 0 -106.5 29t-74.5 78.5t-27 108.5t27 108.5t74.5 78.5t106.5 29h400v-96h-88v-800z" />
    <glyph glyph-name="periodcentered" unicode="&#xb7;" horiz-adv-x="240" 
d="M208 440v-176h-176v176h176z" />
    <glyph glyph-name="cedilla" unicode="&#xb8;" horiz-adv-x="584" 
 />
    <glyph glyph-name="uni00B9" unicode="&#xb9;" horiz-adv-x="264" 
d="M184 800v-352h-96v226h-80v60q40 0 57 5.5t23 18t12 42.5h84z" />
    <glyph glyph-name="ordmasculine" unicode="&#xba;" horiz-adv-x="394" 
d="M284.5 698q37.5 -22 57.5 -59.5t20 -83.5q0 -45 -20 -82.5t-57.5 -59.5t-87.5 -22t-87.5 22t-57.5 59.5t-20 82.5q0 46 20 83.5t57.5 59.5t87.5 22t87.5 -22zM249.5 495q18.5 24 18.5 60t-18.5 60.5t-52.5 24.5q-33 0 -51.5 -24.5t-18.5 -60.5t18.5 -60t51.5 -24
q34 0 52.5 24z" />
    <glyph glyph-name="guillemotright" unicode="&#xbb;" horiz-adv-x="592" 
d="M388 496l188 -224l-188 -224h-116l188 224l-188 224h116zM148 496l188 -224l-188 -224h-116l188 224l-188 224h116z" />
    <glyph glyph-name="onequarter" unicode="&#xbc;" horiz-adv-x="744" 
d="M184 704v-352h-96v226h-80v60q40 0 57 5.5t23 18t12 42.5h84zM36 0l448 704h112l-448 -704h-112zM400 148l138 204h126v-212h48v-76h-48v-64h-96v64h-168v84zM475 118q1 -1 3 -1q4 0 12 8q7 8 13.5 11.5t19.5 3.5h45v94q0 14 10 32q9 15 1 19h-2q-6 0 -11 -7l-92 -145
q-7 -11 1 -15z" />
    <glyph glyph-name="onehalf" unicode="&#xbd;" horiz-adv-x="728" 
d="M184 704v-352h-96v226h-80v60q40 0 57 5.5t23 18t12 42.5h84zM36 0l448 704h112l-448 -704h-112zM458 118q51 27 76.5 42.5t41.5 35t16 45.5q0 21 -13 32t-35 11q-21 0 -34.5 -14.5t-13.5 -44.5h-96q0 58 37.5 96.5t106.5 38.5t106.5 -33t37.5 -86q0 -39 -21.5 -68
t-51 -47t-71.5 -37q-10 -4 -28 -13q-11 -4 -7 -12q5 -8 14 -1q14 7 25.5 10t29.5 3h118v-76h-296v88q20 11 58 30z" />
    <glyph glyph-name="threequarters" unicode="&#xbe;" horiz-adv-x="840" 
d="M181 418q25 0 38 11t13 29q0 24 -28 33t-80 9v64q100 0 100 43q0 16 -11.5 24.5t-30.5 8.5q-48 0 -48 -44h-94q0 50 39.5 83t101.5 33q64 0 101.5 -26.5t37.5 -69.5q0 -25 -14.5 -45t-40.5 -25q-13 -3 -13 -12q0 -7 14 -11q31 -8 46.5 -28t15.5 -45q0 -44 -37.5 -75
t-108.5 -31q-70 0 -110 33.5t-40 90.5h94q0 -50 55 -50zM132 0l448 704h112l-448 -704h-112zM496 148l138 204h126v-212h48v-76h-48v-64h-96v64h-168v84zM571 118q1 -1 3 -1q4 0 12 8q7 8 13.5 11.5t19.5 3.5h45v94q0 14 10 32q9 15 1 19h-2q-6 0 -11 -7l-92 -145
q-7 -11 1 -15z" />
    <glyph glyph-name="questiondown" unicode="&#xbf;" horiz-adv-x="544" 
d="M184 528h176v-176h-176v176zM140.5 -164q-54.5 28 -81.5 72.5t-27 95.5q0 43 15 75.5t37.5 55t57.5 49.5q6 4 25.5 19t30 35.5t10.5 49.5h128q0 -47 -8 -73.5t-32 -58.5q-15 -20 -49 -50q-28 -26 -41.5 -44.5t-13.5 -43.5q0 -31 20.5 -52.5t60.5 -21.5q39 0 66 22t27 67
q0 14 -3 29h146q3 -21 3 -42q0 -64 -30.5 -112t-84.5 -74t-124 -26q-78 0 -132.5 28z" />
    <glyph glyph-name="Agrave" unicode="&#xc0;" horiz-adv-x="704" 
d="M400 768h-96l-112 152h128zM544 0l-50 152h-284l-50 -152h-176l256 704h224l256 -704h-176zM449 288l-69 209q-6 17 -8 36t-3 49q0 18 -17 18q-16 0 -16 -18q-2 -56 -12 -85l-69 -209h194z" />
    <glyph glyph-name="Aacute" unicode="&#xc1;" horiz-adv-x="704" 
d="M512 920l-112 -152h-96l80 152h128zM544 0l-50 152h-284l-50 -152h-176l256 704h224l256 -704h-176zM449 288l-69 209q-6 17 -8 36t-3 49q0 18 -17 18q-16 0 -16 -18q-2 -56 -12 -85l-69 -209h194z" />
    <glyph glyph-name="Acircumflex" unicode="&#xc2;" horiz-adv-x="704" 
d="M296 768h-120l116 136h120l116 -136h-120l-36 62q-3 5 -4 12t-1 9q-3 14 -15 14q-11 0 -15 -14q0 -2 -1 -9t-4 -12zM544 0l-50 152h-284l-50 -152h-176l256 704h224l256 -704h-176zM449 288l-69 209q-6 17 -8 36t-3 49q0 18 -17 18q-16 0 -16 -18q-2 -56 -12 -85
l-69 -209h194z" />
    <glyph glyph-name="Atilde" unicode="&#xc3;" horiz-adv-x="704" 
d="M376.5 775.5q-18.5 7.5 -43.5 21.5q-3 2 -14.5 8t-20.5 9t-16 3q-27 0 -46 -41h-92q14 56 51 92t93 36q21 0 39.5 -7.5t43.5 -21.5q3 -2 14.5 -8t20.5 -9t16 -3q27 0 46 41h92q-14 -56 -51 -92t-93 -36q-21 0 -39.5 7.5zM544 0l-50 152h-284l-50 -152h-176l256 704h224
l256 -704h-176zM449 288l-69 209q-6 17 -8 36t-3 49q0 18 -17 18q-16 0 -16 -18q-2 -56 -12 -85l-69 -209h194z" />
    <glyph glyph-name="Adieresis" unicode="&#xc4;" horiz-adv-x="704" 
d="M312 888v-120h-136v120h136zM528 888v-120h-136v120h136zM544 0l-50 152h-284l-50 -152h-176l256 704h224l256 -704h-176zM449 288l-69 209q-6 17 -8 36t-3 49q0 18 -17 18q-16 0 -16 -18q-2 -56 -12 -85l-69 -209h194z" />
    <glyph glyph-name="Aring" unicode="&#xc5;" horiz-adv-x="704" 
d="M494 152h-284l-50 -152h-176l251 691q-35 43 -35 101q0 42 19 77t53.5 55t79.5 20t79.5 -20t53.5 -55t19 -77q0 -58 -35 -101l251 -691h-176zM311.5 831.5q-15.5 -16.5 -15.5 -39.5t15.5 -39.5t40.5 -16.5t40.5 16.5t15.5 39.5t-15.5 39.5t-40.5 16.5t-40.5 -16.5z
M449 288l-69 209q-6 17 -8 36t-3 49q0 18 -17 18q-16 0 -16 -18q-2 -56 -12 -85l-69 -209h194z" />
    <glyph glyph-name="AE" unicode="&#xc6;" horiz-adv-x="888" 
d="M856 560h-340l51 -140h225v-136h-175l51 -140h188v-144h-312l-50 152h-284l-50 -152h-176l256 704h616v-144zM449 288l-69 209q-6 17 -8 36t-3 49q0 18 -17 18q-16 0 -16 -18q-2 -56 -12 -85l-69 -209h194z" />
    <glyph glyph-name="Ccedilla" unicode="&#xc7;" horiz-adv-x="720" 
d="M487 170q41 42 50 96h167q-6 -66 -38.5 -126t-94.5 -102t-151 -51q-5 -3 -12 -5q-12 -4 -12 -13q0 -13 16 -13q47 0 73.5 -21t26.5 -60q0 -56 -45 -81.5t-129 -25.5h-74v80q92 0 130 8.5t38 38.5q0 23 -34.5 34t-103.5 11l32 46q-99 10 -168.5 60.5t-105.5 130t-36 175.5
q0 103 41 187t121.5 132.5t193.5 48.5q104 0 177 -41t111 -105.5t44 -135.5h-167q-9 54 -50 96t-113 42q-58 0 -101 -29.5t-66 -81t-23 -113.5t23 -113.5t66 -81t101 -29.5q72 0 113 42z" />
    <glyph glyph-name="Egrave" unicode="&#xc8;" 
d="M288 768l-112 152h128l80 -152h-96zM216 420h296v-136h-296v-140h360v-144h-528v704h528v-144h-360v-140z" />
    <glyph glyph-name="Eacute" unicode="&#xc9;" 
d="M320 920h128l-112 -152h-96zM216 420h296v-136h-296v-140h360v-144h-528v704h528v-144h-360v-140z" />
    <glyph glyph-name="Ecircumflex" unicode="&#xca;" 
d="M364 904l116 -136h-120l-36 62q-3 5 -4 12t-1 9q-3 14 -15 14q-11 0 -15 -14q0 -2 -1 -9t-4 -12l-36 -62h-120l116 136h120zM216 420h296v-136h-296v-140h360v-144h-528v704h528v-144h-360v-140z" />
    <glyph glyph-name="Edieresis" unicode="&#xcb;" 
d="M128 888h136v-120h-136v120zM344 888h136v-120h-136v120zM216 420h296v-136h-296v-140h360v-144h-528v704h528v-144h-360v-140z" />
    <glyph glyph-name="Igrave" unicode="&#xcc;" horiz-adv-x="264" 
d="M84 768l-112 152h128l80 -152h-96zM48 704h168v-704h-168v704z" />
    <glyph glyph-name="Iacute" unicode="&#xcd;" horiz-adv-x="264" 
d="M164 920h128l-112 -152h-96zM48 704h168v-704h-168v704z" />
    <glyph glyph-name="Icircumflex" unicode="&#xce;" horiz-adv-x="264" 
d="M192 904l116 -136h-120l-36 62q-3 5 -4 12t-1 9q-3 14 -15 14q-11 0 -15 -14q0 -2 -1 -9t-4 -12l-36 -62h-120l116 136h120zM48 704h168v-704h-168v704z" />
    <glyph glyph-name="Idieresis" unicode="&#xcf;" horiz-adv-x="264" 
d="M-44 888h136v-120h-136v120zM172 888h136v-120h-136v120zM48 704h168v-704h-168v704z" />
    <glyph glyph-name="Eth" unicode="&#xd0;" horiz-adv-x="704" 
d="M532.5 656q79.5 -48 117.5 -127.5t38 -176.5q0 -96 -39 -176t-118.5 -128t-195.5 -48h-287v304h-80v96h80v304h287q118 0 197.5 -48zM437.5 173q41.5 29 62 76.5t20.5 102.5t-20.5 102.5t-62 76.5t-99.5 29h-122v-160h128v-96h-128v-160h122q58 0 99.5 29z" />
    <glyph glyph-name="Ntilde" unicode="&#xd1;" horiz-adv-x="752" 
d="M533 804q-37 -36 -93 -36q-21 0 -39.5 7.5t-43.5 21.5q-3 2 -14.5 8t-20.5 9t-16 3q-27 0 -46 -41h-92q14 56 51 92t93 36q21 0 39.5 -7.5t43.5 -21.5q3 -2 14.5 -8t20.5 -9t16 -3q27 0 46 41h92q-14 -56 -51 -92zM536 150q6 -12 15 -12q13 0 13 12q0 7 -5 19
q-11 23 -17 41.5t-6 37.5v456h168v-704h-256l-232 554q-7 13 -16 12q-12 -3 -12 -13q0 -6 5 -18q11 -23 17 -41.5t6 -37.5v-456h-168v704h256z" />
    <glyph glyph-name="Ograve" unicode="&#xd2;" horiz-adv-x="752" 
d="M336 768l-112 152h128l80 -152h-96zM571.5 671.5q81.5 -48.5 123 -132.5t41.5 -187t-41.5 -187t-123 -132.5t-195.5 -48.5t-195.5 48.5t-123 132.5t-41.5 187t41.5 187t123 132.5t195.5 48.5t195.5 -48.5zM479.5 157.5q43.5 29.5 66 80.5t22.5 114t-22.5 114t-66 80.5
t-103.5 29.5t-103.5 -29.5t-66 -80.5t-22.5 -114t22.5 -114t66 -80.5t103.5 -29.5t103.5 29.5z" />
    <glyph glyph-name="Oacute" unicode="&#xd3;" horiz-adv-x="752" 
d="M400 920h128l-112 -152h-96zM571.5 671.5q81.5 -48.5 123 -132.5t41.5 -187t-41.5 -187t-123 -132.5t-195.5 -48.5t-195.5 48.5t-123 132.5t-41.5 187t41.5 187t123 132.5t195.5 48.5t195.5 -48.5zM479.5 157.5q43.5 29.5 66 80.5t22.5 114t-22.5 114t-66 80.5
t-103.5 29.5t-103.5 -29.5t-66 -80.5t-22.5 -114t22.5 -114t66 -80.5t103.5 -29.5t103.5 29.5z" />
    <glyph glyph-name="Ocircumflex" unicode="&#xd4;" horiz-adv-x="752" 
d="M436 904l116 -136h-120l-36 62q-3 5 -4 12t-1 9q-3 14 -15 14q-11 0 -15 -14q0 -2 -1 -9t-4 -12l-36 -62h-120l116 136h120zM571.5 671.5q81.5 -48.5 123 -132.5t41.5 -187t-41.5 -187t-123 -132.5t-195.5 -48.5t-195.5 48.5t-123 132.5t-41.5 187t41.5 187t123 132.5
t195.5 48.5t195.5 -48.5zM479.5 157.5q43.5 29.5 66 80.5t22.5 114t-22.5 114t-66 80.5t-103.5 29.5t-103.5 -29.5t-66 -80.5t-22.5 -114t22.5 -114t66 -80.5t103.5 -29.5t103.5 29.5z" />
    <glyph glyph-name="Otilde" unicode="&#xd5;" horiz-adv-x="752" 
d="M533 804q-37 -36 -93 -36q-21 0 -39.5 7.5t-43.5 21.5q-3 2 -14.5 8t-20.5 9t-16 3q-27 0 -46 -41h-92q14 56 51 92t93 36q21 0 39.5 -7.5t43.5 -21.5q3 -2 14.5 -8t20.5 -9t16 -3q27 0 46 41h92q-14 -56 -51 -92zM571.5 671.5q81.5 -48.5 123 -132.5t41.5 -187
t-41.5 -187t-123 -132.5t-195.5 -48.5t-195.5 48.5t-123 132.5t-41.5 187t41.5 187t123 132.5t195.5 48.5t195.5 -48.5zM479.5 157.5q43.5 29.5 66 80.5t22.5 114t-22.5 114t-66 80.5t-103.5 29.5t-103.5 -29.5t-66 -80.5t-22.5 -114t22.5 -114t66 -80.5t103.5 -29.5
t103.5 29.5z" />
    <glyph glyph-name="Odieresis" unicode="&#xd6;" horiz-adv-x="752" 
d="M200 888h136v-120h-136v120zM416 888h136v-120h-136v120zM571.5 671.5q81.5 -48.5 123 -132.5t41.5 -187t-41.5 -187t-123 -132.5t-195.5 -48.5t-195.5 48.5t-123 132.5t-41.5 187t41.5 187t123 132.5t195.5 48.5t195.5 -48.5zM479.5 157.5q43.5 29.5 66 80.5t22.5 114
t-22.5 114t-66 80.5t-103.5 29.5t-103.5 -29.5t-66 -80.5t-22.5 -114t22.5 -114t66 -80.5t103.5 -29.5t103.5 29.5z" />
    <glyph glyph-name="multiply" unicode="&#xd7;" horiz-adv-x="512" 
d="M472 500l-148 -148l148 -148l-68 -68l-148 148l-148 -148l-68 68l148 148l-148 148l68 68l148 -148l148 148z" />
    <glyph glyph-name="Oslash" unicode="&#xd8;" horiz-adv-x="752" 
d="M57.5 539q41.5 84 123 132.5t195.5 48.5q120 0 208 -56l62 72l66 -58l-62 -72q42 -49 64 -114.5t22 -139.5q0 -103 -41.5 -187t-123 -132.5t-195.5 -48.5q-120 0 -208 56l-62 -72l-66 58l62 72q-42 49 -64 114.5t-22 139.5q0 103 41.5 187zM212 227q4 -8 9.5 -11t9.5 -1
q8 4 5 20v6q0 15 8 23l238 280q-45 32 -106 32q-60 0 -103.5 -29.5t-66 -80.5t-22.5 -114q0 -69 28 -125zM376 128q60 0 103.5 29.5t66 80.5t22.5 114q0 71 -28 125q-7 13 -15 13q-12 0 -10.5 -12t1.5 -13q0 -16 -12 -31l-234 -274q45 -32 106 -32z" />
    <glyph glyph-name="Ugrave" unicode="&#xd9;" horiz-adv-x="720" 
d="M320 768l-112 152h128l80 -152h-96zM631.5 119q-40.5 -67 -111 -101t-160.5 -34q-91 0 -161.5 34t-110.5 101t-40 163v422h168v-434q0 -48 21.5 -80t54.5 -47t68 -15q33 0 66.5 15.5t55.5 47.5t22 79v434h168v-422q0 -96 -40.5 -163z" />
    <glyph glyph-name="Uacute" unicode="&#xda;" horiz-adv-x="720" 
d="M384 920h128l-112 -152h-96zM631.5 119q-40.5 -67 -111 -101t-160.5 -34q-91 0 -161.5 34t-110.5 101t-40 163v422h168v-434q0 -48 21.5 -80t54.5 -47t68 -15q33 0 66.5 15.5t55.5 47.5t22 79v434h168v-422q0 -96 -40.5 -163z" />
    <glyph glyph-name="Ucircumflex" unicode="&#xdb;" horiz-adv-x="720" 
d="M420 904l116 -136h-120l-36 62q-3 5 -4 12t-1 9q-3 14 -15 14q-11 0 -15 -14q0 -2 -1 -9t-4 -12l-36 -62h-120l116 136h120zM631.5 119q-40.5 -67 -111 -101t-160.5 -34q-91 0 -161.5 34t-110.5 101t-40 163v422h168v-434q0 -48 21.5 -80t54.5 -47t68 -15q33 0 66.5 15.5
t55.5 47.5t22 79v434h168v-422q0 -96 -40.5 -163z" />
    <glyph glyph-name="Udieresis" unicode="&#xdc;" horiz-adv-x="720" 
d="M184 888h136v-120h-136v120zM400 888h136v-120h-136v120zM631.5 119q-40.5 -67 -111 -101t-160.5 -34q-91 0 -161.5 34t-110.5 101t-40 163v422h168v-434q0 -48 21.5 -80t54.5 -47t68 -15q33 0 66.5 15.5t55.5 47.5t22 79v434h168v-422q0 -96 -40.5 -163z" />
    <glyph glyph-name="Yacute" unicode="&#xdd;" horiz-adv-x="656" 
d="M352 920h128l-112 -152h-96zM312 418q0 -21 16 -21t16 21q2 32 10 45l136 241h182l-260 -440v-264h-168v264l-260 440h182l136 -241q8 -13 10 -45z" />
    <glyph glyph-name="Thorn" unicode="&#xde;" horiz-adv-x="640" 
d="M216 704v-100h134q91 0 152.5 -34t91.5 -90t30 -124q0 -67 -30.5 -125.5t-89 -94.5t-138.5 -36h-150v-100h-168v704h168zM424 275q32 31 32 77q0 50 -31.5 79t-83.5 29h-125v-216h125q51 0 83 31z" />
    <glyph glyph-name="germandbls" unicode="&#xdf;" 
d="M231 582.5q23 25.5 63 25.5q38 0 56 -26.5t18 -57.5q0 -46 -29.5 -70t-66.5 -30v-112q65 -6 104.5 -26.5t39.5 -75.5q0 -38 -26 -60t-62 -22h-72v-128h87q113 0 173 53.5t60 143.5q0 47 -21.5 81t-52.5 53.5t-60 25.5q-23 5 -23 20q0 7 5 11.5t14 8.5q35 17 62.5 55
t27.5 96q0 48 -29 91.5t-82.5 70t-123.5 26.5q-51 0 -106 -18t-97 -70.5t-42 -147.5v-500h160v510q0 47 23 72.5z" />
    <glyph glyph-name="agrave" unicode="&#xe0;" horiz-adv-x="592" 
d="M256 592l-112 152h128l80 -152h-96zM73 265q57 40 151 46q32 2 45 2q64 3 90 10t25 33q-1 28 -21 48t-69 20q-50 0 -73.5 -19t-30.5 -53h-158q13 98 89.5 145t176.5 47q111 0 178.5 -53.5t67.5 -198.5v-292h-160v27q0 22 11 44q1 3 6 13t5 17q0 6 -5 8l-6 2q-8 0 -11 -7
t-4 -8q-26 -52 -71.5 -82t-108.5 -30q-52 0 -94.5 21t-66 56.5t-23.5 79.5q0 84 57 124zM341.5 232.5q-24.5 -5.5 -95.5 -14.5q-31 -3 -50.5 -19t-19.5 -47q0 -27 19.5 -42t48.5 -15q26 0 58.5 16t57 52t24.5 93q-18 -18 -42.5 -23.5z" />
    <glyph glyph-name="aacute" unicode="&#xe1;" horiz-adv-x="592" 
d="M312 744h128l-112 -152h-96zM73 265q57 40 151 46q32 2 45 2q64 3 90 10t25 33q-1 28 -21 48t-69 20q-50 0 -73.5 -19t-30.5 -53h-158q13 98 89.5 145t176.5 47q111 0 178.5 -53.5t67.5 -198.5v-292h-160v27q0 22 11 44q1 3 6 13t5 17q0 6 -5 8l-6 2q-8 0 -11 -7t-4 -8
q-26 -52 -71.5 -82t-108.5 -30q-52 0 -94.5 21t-66 56.5t-23.5 79.5q0 84 57 124zM341.5 232.5q-24.5 -5.5 -95.5 -14.5q-31 -3 -50.5 -19t-19.5 -47q0 -27 19.5 -42t48.5 -15q26 0 58.5 16t57 52t24.5 93q-18 -18 -42.5 -23.5z" />
    <glyph glyph-name="acircumflex" unicode="&#xe2;" horiz-adv-x="592" 
d="M356 728l116 -136h-120l-36 62q-3 5 -4 12t-1 9q-3 14 -15 14q-11 0 -15 -14q0 -2 -1 -9t-4 -12l-36 -62h-120l116 136h120zM73 265q57 40 151 46q32 2 45 2q64 3 90 10t25 33q-1 28 -21 48t-69 20q-50 0 -73.5 -19t-30.5 -53h-158q13 98 89.5 145t176.5 47
q111 0 178.5 -53.5t67.5 -198.5v-292h-160v27q0 22 11 44q1 3 6 13t5 17q0 6 -5 8l-6 2q-8 0 -11 -7t-4 -8q-26 -52 -71.5 -82t-108.5 -30q-52 0 -94.5 21t-66 56.5t-23.5 79.5q0 84 57 124zM341.5 232.5q-24.5 -5.5 -95.5 -14.5q-31 -3 -50.5 -19t-19.5 -47q0 -27 19.5 -42
t48.5 -15q26 0 58.5 16t57 52t24.5 93q-18 -18 -42.5 -23.5z" />
    <glyph glyph-name="atilde" unicode="&#xe3;" horiz-adv-x="592" 
d="M453 628q-37 -36 -93 -36q-21 0 -39.5 7.5t-43.5 21.5q-3 2 -14.5 8t-20.5 9t-16 3q-27 0 -46 -41h-92q14 56 51 92t93 36q21 0 39.5 -7.5t43.5 -21.5q3 -2 14.5 -8t20.5 -9t16 -3q27 0 46 41h92q-14 -56 -51 -92zM73 265q57 40 151 46q32 2 45 2q64 3 90 10t25 33
q-1 28 -21 48t-69 20q-50 0 -73.5 -19t-30.5 -53h-158q13 98 89.5 145t176.5 47q111 0 178.5 -53.5t67.5 -198.5v-292h-160v27q0 22 11 44q1 3 6 13t5 17q0 6 -5 8l-6 2q-8 0 -11 -7t-4 -8q-26 -52 -71.5 -82t-108.5 -30q-52 0 -94.5 21t-66 56.5t-23.5 79.5q0 84 57 124z
M341.5 232.5q-24.5 -5.5 -95.5 -14.5q-31 -3 -50.5 -19t-19.5 -47q0 -27 19.5 -42t48.5 -15q26 0 58.5 16t57 52t24.5 93q-18 -18 -42.5 -23.5z" />
    <glyph glyph-name="adieresis" unicode="&#xe4;" horiz-adv-x="592" 
d="M120 712h136v-120h-136v120zM336 712h136v-120h-136v120zM73 265q57 40 151 46q32 2 45 2q64 3 90 10t25 33q-1 28 -21 48t-69 20q-50 0 -73.5 -19t-30.5 -53h-158q13 98 89.5 145t176.5 47q111 0 178.5 -53.5t67.5 -198.5v-292h-160v27q0 22 11 44q1 3 6 13t5 17
q0 6 -5 8l-6 2q-8 0 -11 -7t-4 -8q-26 -52 -71.5 -82t-108.5 -30q-52 0 -94.5 21t-66 56.5t-23.5 79.5q0 84 57 124zM341.5 232.5q-24.5 -5.5 -95.5 -14.5q-31 -3 -50.5 -19t-19.5 -47q0 -27 19.5 -42t48.5 -15q26 0 58.5 16t57 52t24.5 93q-18 -18 -42.5 -23.5z" />
    <glyph glyph-name="aring" unicode="&#xe5;" horiz-adv-x="592" 
d="M511 445.5q33 -55.5 33 -153.5v-292h-160v27q0 22 11 44q1 3 6 13t5 17q0 6 -5 8l-6 2q-8 0 -11 -7t-4 -8q-26 -52 -71.5 -82t-108.5 -30q-52 0 -94.5 21t-66 56.5t-23.5 79.5q0 84 57 124t151 46q32 2 45 2q64 3 90 10t25 33q-1 28 -21 48t-69 20q-50 0 -73.5 -19
t-30.5 -53h-158q9 65 46.5 107t94.5 64q-29 40 -29 93q0 42 19 77t53.5 55t79.5 20t79.5 -20t53.5 -55t19 -77q0 -52 -28 -91q58 -24 91 -79.5zM255.5 655.5q-15.5 -16.5 -15.5 -39.5t15.5 -39.5t40.5 -16.5t40.5 16.5t15.5 39.5t-15.5 39.5t-40.5 16.5t-40.5 -16.5z
M302.5 111q32.5 16 57 52t24.5 93q-18 -18 -42.5 -23.5t-95.5 -14.5q-31 -3 -50.5 -19t-19.5 -47q0 -27 19.5 -42t48.5 -15q26 0 58.5 16z" />
    <glyph glyph-name="ae" unicode="&#xe6;" horiz-adv-x="944" 
d="M73 265q57 40 151 46q32 2 45 2q64 3 90 10t25 33q-1 28 -21 48t-69 20q-50 0 -73.5 -19t-30.5 -53h-158q13 98 85 145t165 47q55 0 103 -26.5t71 -66.5q9 -16 19 -16t18 14q26 40 73 67.5t113 27.5q62 0 119 -29t93.5 -89t36.5 -146q0 -33 -3 -56h-383q8 -51 41 -81.5
t82 -30.5q36 0 60 17t34 47h159q-17 -83 -78.5 -137.5t-165.5 -54.5q-69 0 -124 32t-82 81q-10 19 -22 19q-11 0 -24 -19q-44 -62 -94.5 -87.5t-127.5 -25.5q-52 0 -94.5 21t-66 56.5t-23.5 79.5q0 84 57 124zM739 394q-28 26 -73 26q-99 0 -120 -100h225q-4 48 -32 74z
M195.5 110q19.5 -15 48.5 -15q26 0 58.5 16t57 52t24.5 93q-18 -18 -42.5 -23.5t-95.5 -14.5q-31 -3 -50.5 -19t-19.5 -47q0 -27 19.5 -42z" />
    <glyph glyph-name="ccedilla" unicode="&#xe7;" horiz-adv-x="576" 
d="M368.5 146q26.5 26 33.5 65l158 -1q-4 -54 -30.5 -102t-75.5 -81t-114 -41l-12 -4q-12 -4 -12 -13q0 -13 16 -13q47 0 73.5 -21t26.5 -60q0 -56 -45 -81.5t-129 -25.5h-74v80q92 0 130 8.5t38 38.5q0 23 -34.5 34t-103.5 11l34 48q-72 11 -124.5 50t-80 98t-27.5 128
q0 78 34 141.5t98 101t152 37.5q77 0 134.5 -31.5t89.5 -83t36 -110.5l-158 -1q-7 39 -33.5 64.5t-67.5 25.5q-56 0 -90.5 -42t-34.5 -102t34.5 -102t90.5 -42q41 0 67.5 26z" />
    <glyph glyph-name="egrave" unicode="&#xe8;" horiz-adv-x="576" 
d="M360 592h-96l-112 152h128zM557 224h-383q8 -51 41 -81.5t82 -30.5q36 0 60 17t34 47h159q-17 -82 -82 -137t-170 -55q-89 0 -153 37t-96.5 100.5t-32.5 142.5q0 82 33 145.5t96 99t150 35.5q70 0 130.5 -29t97.5 -88.5t37 -146.5q0 -33 -3 -56zM178 320h225
q-4 48 -32 74t-73 26q-99 0 -120 -100z" />
    <glyph glyph-name="eacute" unicode="&#xe9;" horiz-adv-x="576" 
d="M440 744l-112 -152h-96l80 152h128zM557 224h-383q8 -51 41 -81.5t82 -30.5q36 0 60 17t34 47h159q-17 -82 -82 -137t-170 -55q-89 0 -153 37t-96.5 100.5t-32.5 142.5q0 82 33 145.5t96 99t150 35.5q70 0 130.5 -29t97.5 -88.5t37 -146.5q0 -33 -3 -56zM178 320h225
q-4 48 -32 74t-73 26q-99 0 -120 -100z" />
    <glyph glyph-name="ecircumflex" unicode="&#xea;" horiz-adv-x="576" 
d="M232 592h-120l116 136h120l116 -136h-120l-36 62q-3 5 -4 12t-1 9q-3 14 -15 14q-11 0 -15 -14q0 -2 -1 -9t-4 -12zM557 224h-383q8 -51 41 -81.5t82 -30.5q36 0 60 17t34 47h159q-17 -82 -82 -137t-170 -55q-89 0 -153 37t-96.5 100.5t-32.5 142.5q0 82 33 145.5t96 99
t150 35.5q70 0 130.5 -29t97.5 -88.5t37 -146.5q0 -33 -3 -56zM178 320h225q-4 48 -32 74t-73 26q-99 0 -120 -100z" />
    <glyph glyph-name="edieresis" unicode="&#xeb;" horiz-adv-x="576" 
d="M248 712v-120h-136v120h136zM464 712v-120h-136v120h136zM557 224h-383q8 -51 41 -81.5t82 -30.5q36 0 60 17t34 47h159q-17 -82 -82 -137t-170 -55q-89 0 -153 37t-96.5 100.5t-32.5 142.5q0 82 33 145.5t96 99t150 35.5q70 0 130.5 -29t97.5 -88.5t37 -146.5
q0 -33 -3 -56zM178 320h225q-4 48 -32 74t-73 26q-99 0 -120 -100z" />
    <glyph glyph-name="igrave" unicode="&#xec;" horiz-adv-x="256" 
d="M80 592l-112 152h128l80 -152h-96zM208 528v-528h-160v528h160z" />
    <glyph glyph-name="iacute" unicode="&#xed;" horiz-adv-x="256" 
d="M160 744h128l-112 -152h-96zM208 528v-528h-160v528h160z" />
    <glyph glyph-name="icircumflex" unicode="&#xee;" horiz-adv-x="256" 
d="M188 728l116 -136h-120l-36 62q-3 5 -4 12t-1 9q-3 14 -15 14q-11 0 -15 -14q0 -2 -1 -9t-4 -12l-36 -62h-120l116 136h120zM208 528v-528h-160v528h160z" />
    <glyph glyph-name="idieresis" unicode="&#xef;" horiz-adv-x="256" 
d="M-48 712h136v-120h-136v120zM168 712h136v-120h-136v120zM208 528v-528h-160v528h160z" />
    <glyph glyph-name="eth" unicode="&#xf0;" horiz-adv-x="592" 
d="M576 280q0 -83 -35 -150.5t-98.5 -106.5t-146.5 -39t-147 36.5t-98.5 99.5t-34.5 138t31.5 130.5t83.5 85t111 29.5q49 0 91 -19q22 -9 41 -26q13 -10 18 -10q4 0 6.5 3t2.5 7q0 9 -7 17q-19 29 -40 44q-46 33 -125 42l-7 -45h-88l7 51q-14 1 -46 1v136q24 0 66 -2l7 50
h88l-9 -61q329 -59 329 -411zM388 162.5q31 42.5 31 104.5q0 30 -8 62q-29 27 -60 41t-60 14q-50 0 -82.5 -35.5t-32.5 -96.5q0 -58 31.5 -95t87.5 -37q62 0 93 42.5z" />
    <glyph glyph-name="ntilde" unicode="&#xf1;" 
d="M469 628q-37 -36 -93 -36q-21 0 -39.5 7.5t-43.5 21.5q-3 2 -14.5 8t-20.5 9t-16 3q-27 0 -46 -41h-92q14 56 51 92t93 36q21 0 39.5 -7.5t43.5 -21.5q3 -2 14.5 -8t20.5 -9t16 -3q27 0 46 41h92q-14 -56 -51 -92zM525 487q51 -57 51 -167v-320h-160v256q0 86 -19.5 119
t-64.5 33q-33 0 -61.5 -26t-45.5 -73t-17 -106v-203h-160v528h160v-25q0 -31 -13 -57q-11 -22 -11 -31q0 -8 6 -10q2 -1 5 -1q9 0 16 16q23 49 68 86.5t107 37.5q88 0 139 -57z" />
    <glyph glyph-name="ograve" unicode="&#xf2;" horiz-adv-x="592" 
d="M256 592l-112 152h128l80 -152h-96zM444.5 506.5q63.5 -37.5 97.5 -101.5t34 -141t-34 -141t-97.5 -101.5t-148.5 -37.5t-148.5 37.5t-97.5 101.5t-34 141t34 141t97.5 101.5t148.5 37.5t148.5 -37.5zM384.5 161q31.5 41 31.5 103t-31.5 103t-88.5 41t-88.5 -41
t-31.5 -103t31.5 -103t88.5 -41t88.5 41z" />
    <glyph glyph-name="oacute" unicode="&#xf3;" horiz-adv-x="592" 
d="M320 744h128l-112 -152h-96zM444.5 506.5q63.5 -37.5 97.5 -101.5t34 -141t-34 -141t-97.5 -101.5t-148.5 -37.5t-148.5 37.5t-97.5 101.5t-34 141t34 141t97.5 101.5t148.5 37.5t148.5 -37.5zM384.5 161q31.5 41 31.5 103t-31.5 103t-88.5 41t-88.5 -41t-31.5 -103
t31.5 -103t88.5 -41t88.5 41z" />
    <glyph glyph-name="ocircumflex" unicode="&#xf4;" horiz-adv-x="592" 
d="M356 728l116 -136h-120l-36 62q-3 5 -4 12t-1 9q-3 14 -15 14q-11 0 -15 -14q0 -2 -1 -9t-4 -12l-36 -62h-120l116 136h120zM444.5 506.5q63.5 -37.5 97.5 -101.5t34 -141t-34 -141t-97.5 -101.5t-148.5 -37.5t-148.5 37.5t-97.5 101.5t-34 141t34 141t97.5 101.5
t148.5 37.5t148.5 -37.5zM384.5 161q31.5 41 31.5 103t-31.5 103t-88.5 41t-88.5 -41t-31.5 -103t31.5 -103t88.5 -41t88.5 41z" />
    <glyph glyph-name="otilde" unicode="&#xf5;" horiz-adv-x="592" 
d="M453 628q-37 -36 -93 -36q-21 0 -39.5 7.5t-43.5 21.5q-3 2 -14.5 8t-20.5 9t-16 3q-27 0 -46 -41h-92q14 56 51 92t93 36q21 0 39.5 -7.5t43.5 -21.5q3 -2 14.5 -8t20.5 -9t16 -3q27 0 46 41h92q-14 -56 -51 -92zM444.5 506.5q63.5 -37.5 97.5 -101.5t34 -141t-34 -141
t-97.5 -101.5t-148.5 -37.5t-148.5 37.5t-97.5 101.5t-34 141t34 141t97.5 101.5t148.5 37.5t148.5 -37.5zM384.5 161q31.5 41 31.5 103t-31.5 103t-88.5 41t-88.5 -41t-31.5 -103t31.5 -103t88.5 -41t88.5 41z" />
    <glyph glyph-name="odieresis" unicode="&#xf6;" horiz-adv-x="592" 
d="M120 712h136v-120h-136v120zM336 712h136v-120h-136v120zM444.5 506.5q63.5 -37.5 97.5 -101.5t34 -141t-34 -141t-97.5 -101.5t-148.5 -37.5t-148.5 37.5t-97.5 101.5t-34 141t34 141t97.5 101.5t148.5 37.5t148.5 -37.5zM384.5 161q31.5 41 31.5 103t-31.5 103
t-88.5 41t-88.5 -41t-31.5 -103t31.5 -103t88.5 -41t88.5 41z" />
    <glyph glyph-name="divide" unicode="&#xf7;" horiz-adv-x="496" 
d="M328 624v-160h-160v160h160zM464 304h-432v96h432v-96zM328 240v-160h-160v160h160z" />
    <glyph glyph-name="oslash" unicode="&#xf8;" horiz-adv-x="592" 
d="M50 405q34 64 97.5 101.5t148.5 37.5q86 0 153 -40l49 56l62 -55l-48 -55q31 -38 47.5 -85.5t16.5 -100.5q0 -77 -34 -141t-97.5 -101.5t-148.5 -37.5q-86 0 -153 40l-49 -56l-62 55l48 55q-31 38 -47.5 85.5t-16.5 100.5q0 77 34 141zM186 201q5 -13 14 -13q13 0 10 21
l-1 8q0 11 7 19l138 158q-26 14 -58 14q-57 0 -88.5 -41t-31.5 -103q0 -36 10 -63zM296 120q57 0 88.5 41t31.5 103q0 36 -10 63q-5 13 -14 13q-13 0 -10 -21l1 -8q0 -11 -7 -19l-138 -158q26 -14 58 -14z" />
    <glyph glyph-name="ugrave" unicode="&#xf9;" 
d="M256 592l-112 152h128l80 -152h-96zM83 41q-51 57 -51 167v320h160v-256q0 -86 19.5 -119t64.5 -33q33 0 61.5 26t45.5 73t17 106v203h160v-528h-160v25q0 31 13 57q11 22 11 31q0 8 -6 10q-2 1 -5 1q-9 0 -16 -16q-25 -49 -69.5 -86.5t-105.5 -37.5q-88 0 -139 57z" />
    <glyph glyph-name="uacute" unicode="&#xfa;" 
d="M320 744h128l-112 -152h-96zM83 41q-51 57 -51 167v320h160v-256q0 -86 19.5 -119t64.5 -33q33 0 61.5 26t45.5 73t17 106v203h160v-528h-160v25q0 31 13 57q11 22 11 31q0 8 -6 10q-2 1 -5 1q-9 0 -16 -16q-25 -49 -69.5 -86.5t-105.5 -37.5q-88 0 -139 57z" />
    <glyph glyph-name="ucircumflex" unicode="&#xfb;" 
d="M356 728l116 -136h-120l-36 62q-3 5 -4 12t-1 9q-3 14 -15 14q-11 0 -15 -14q0 -2 -1 -9t-4 -12l-36 -62h-120l116 136h120zM83 41q-51 57 -51 167v320h160v-256q0 -86 19.5 -119t64.5 -33q33 0 61.5 26t45.5 73t17 106v203h160v-528h-160v25q0 31 13 57q11 22 11 31
q0 8 -6 10q-2 1 -5 1q-9 0 -16 -16q-25 -49 -69.5 -86.5t-105.5 -37.5q-88 0 -139 57z" />
    <glyph glyph-name="udieresis" unicode="&#xfc;" 
d="M120 712h136v-120h-136v120zM336 712h136v-120h-136v120zM83 41q-51 57 -51 167v320h160v-256q0 -86 19.5 -119t64.5 -33q33 0 61.5 26t45.5 73t17 106v203h160v-528h-160v25q0 31 13 57q11 22 11 31q0 8 -6 10q-2 1 -5 1q-9 0 -16 -16q-25 -49 -69.5 -86.5t-105.5 -37.5
q-88 0 -139 57z" />
    <glyph glyph-name="yacute" unicode="&#xfd;" horiz-adv-x="544" 
d="M296 744h128l-112 -152h-96zM258 159q0 -21 16 -21q9 0 12 5.5t4 15.5q1 5 2.5 22t6.5 34l91 313h170l-224 -589q-27 -71 -68 -101t-110 -30h-128v128h44h31q39 0 53 6.5t25 33.5l6 15l-205 537h170l96 -313q8 -27 8 -56z" />
    <glyph glyph-name="thorn" unicode="&#xfe;" horiz-adv-x="624" 
d="M501 507q52 -37 79.5 -100.5t27.5 -142.5t-27.5 -142.5t-79.5 -100.5t-123 -37q-112 0 -166 103q-4 8 -8 12t-10 2q-8 -3 -8 -11t10 -28q12 -21 12 -43v-211h-160v912h160v-208q0 -22 -11 -44q-2 -4 -8 -15t-6 -18q0 -5 6 -8q2 -1 6 -1q9 0 17 16q55 102 166 102
q71 0 123 -37zM418.5 161q29.5 41 29.5 103t-29.5 103t-86.5 41q-55 0 -89.5 -42t-34.5 -102t34.5 -102t89.5 -42q57 0 86.5 41z" />
    <glyph glyph-name="ydieresis" unicode="&#xff;" horiz-adv-x="544" 
d="M96 712h136v-120h-136v120zM312 712h136v-120h-136v120zM258 159q0 -21 16 -21q9 0 12 5.5t4 15.5q1 5 2.5 22t6.5 34l91 313h170l-224 -589q-27 -71 -68 -101t-110 -30h-128v128h44h31q39 0 53 6.5t25 33.5l6 15l-205 537h170l96 -313q8 -27 8 -56z" />
    <glyph glyph-name="Amacron" unicode="&#x100;" horiz-adv-x="704" 
d="M536 880v-96h-368v96h368zM544 0l-50 152h-284l-50 -152h-176l256 704h224l256 -704h-176zM449 288l-69 209q-6 17 -8 36t-3 49q0 18 -17 18q-16 0 -16 -18q-2 -56 -12 -85l-69 -209h194z" />
    <glyph glyph-name="amacron" unicode="&#x101;" horiz-adv-x="592" 
d="M112 608v96h368v-96h-368zM73 265q57 40 151 46q32 2 45 2q64 3 90 10t25 33q-1 28 -21 48t-69 20q-50 0 -73.5 -19t-30.5 -53h-158q13 98 89.5 145t176.5 47q111 0 178.5 -53.5t67.5 -198.5v-292h-160v27q0 22 11 44q1 3 6 13t5 17q0 6 -5 8l-6 2q-8 0 -11 -7t-4 -8
q-26 -52 -71.5 -82t-108.5 -30q-52 0 -94.5 21t-66 56.5t-23.5 79.5q0 84 57 124zM341.5 232.5q-24.5 -5.5 -95.5 -14.5q-31 -3 -50.5 -19t-19.5 -47q0 -27 19.5 -42t48.5 -15q26 0 58.5 16t57 52t24.5 93q-18 -18 -42.5 -23.5z" />
    <glyph glyph-name="Abreve" unicode="&#x102;" horiz-adv-x="704" 
d="M234.5 807q-42.5 39 -42.5 105h96q0 -72 64 -72q29 0 46.5 17t17.5 55h96q0 -66 -42.5 -105t-117.5 -39t-117.5 39zM544 0l-50 152h-284l-50 -152h-176l256 704h224l256 -704h-176zM449 288l-69 209q-6 17 -8 36t-3 49q0 18 -17 18q-16 0 -16 -18q-2 -56 -12 -85
l-69 -209h194z" />
    <glyph glyph-name="abreve" unicode="&#x103;" horiz-adv-x="592" 
d="M413.5 631q-42.5 -39 -117.5 -39t-117.5 39t-42.5 105h96q0 -72 64 -72q29 0 46.5 17t17.5 55h96q0 -66 -42.5 -105zM73 265q57 40 151 46q32 2 45 2q64 3 90 10t25 33q-1 28 -21 48t-69 20q-50 0 -73.5 -19t-30.5 -53h-158q13 98 89.5 145t176.5 47q111 0 178.5 -53.5
t67.5 -198.5v-292h-160v27q0 22 11 44q1 3 6 13t5 17q0 6 -5 8l-6 2q-8 0 -11 -7t-4 -8q-26 -52 -71.5 -82t-108.5 -30q-52 0 -94.5 21t-66 56.5t-23.5 79.5q0 84 57 124zM341.5 232.5q-24.5 -5.5 -95.5 -14.5q-31 -3 -50.5 -19t-19.5 -47q0 -27 19.5 -42t48.5 -15
q26 0 58.5 16t57 52t24.5 93q-18 -18 -42.5 -23.5z" />
    <glyph glyph-name="Aogonek" unicode="&#x104;" horiz-adv-x="704" 
d="M599 -109.5q15 -12.5 42 -15.5t79 -3v-80h-58q-85 0 -125.5 31t-40.5 82q0 27 12.5 53t34.5 44l-49 150h-284l-50 -152h-176l256 704h224l256 -704q-63 0 -99.5 -19t-36.5 -51q0 -27 15 -39.5zM449 288l-69 209q-6 17 -8 36t-3 49q0 18 -17 18q-16 0 -16 -18
q-2 -56 -12 -85l-69 -209h194z" />
    <glyph glyph-name="aogonek" unicode="&#x105;" horiz-adv-x="592" 
d="M444.5 -19q-36.5 -19 -36.5 -51q0 -27 15 -39.5t42 -15.5t79 -3v-80h-58q-85 0 -125.5 31t-40.5 82q0 32 17.5 62.5t46.5 45.5v14q0 22 11 44q1 3 6 13t5 17q0 6 -5 8l-6 2q-8 0 -11 -7t-4 -8q-26 -52 -71.5 -82t-108.5 -30q-52 0 -94.5 21t-66 56.5t-23.5 79.5
q0 84 57 124t151 46q32 2 45 2q64 3 90 10t25 33q-1 28 -21 48t-69 20q-50 0 -73.5 -19t-30.5 -53h-158q13 98 89.5 145t176.5 47q111 0 178.5 -53.5t67.5 -198.5v-292q-63 0 -99.5 -19zM302.5 111q32.5 16 57 52t24.5 93q-18 -18 -42.5 -23.5t-95.5 -14.5q-31 -3 -50.5 -19
t-19.5 -47q0 -27 19.5 -42t48.5 -15q26 0 58.5 16z" />
    <glyph glyph-name="Cacute" unicode="&#x106;" horiz-adv-x="720" 
d="M400 920h128l-112 -152h-96zM57 539q41 84 121.5 132.5t193.5 48.5q104 0 177 -41t111 -105.5t44 -135.5h-167q-9 54 -50 96t-113 42q-58 0 -101 -29.5t-66 -81t-23 -113.5t23 -113.5t66 -81t101 -29.5q72 0 113 42t50 96h167q-6 -71 -44 -135.5t-111 -105.5t-177 -41
q-113 0 -193.5 48.5t-121.5 132.5t-41 187t41 187z" />
    <glyph glyph-name="cacute" unicode="&#x107;" horiz-adv-x="576" 
d="M320 744h128l-112 -152h-96zM50 405.5q34 63.5 98 101t152 37.5q77 0 134.5 -31.5t89.5 -83t36 -110.5l-158 -1q-7 39 -33.5 64.5t-67.5 25.5q-56 0 -90.5 -42t-34.5 -102t34.5 -102t90.5 -42q41 0 67.5 26t33.5 65l158 -1q-4 -59 -36 -111t-89.5 -83.5t-134.5 -31.5
q-86 0 -150.5 37.5t-99 101t-34.5 141.5t34 141.5z" />
    <glyph glyph-name="Cdotaccent" unicode="&#x10a;" horiz-adv-x="720" 
d="M288 912h160v-144h-160v144zM57 539q41 84 121.5 132.5t193.5 48.5q104 0 177 -41t111 -105.5t44 -135.5h-167q-9 54 -50 96t-113 42q-58 0 -101 -29.5t-66 -81t-23 -113.5t23 -113.5t66 -81t101 -29.5q72 0 113 42t50 96h167q-6 -71 -44 -135.5t-111 -105.5t-177 -41
q-113 0 -193.5 48.5t-121.5 132.5t-41 187t41 187z" />
    <glyph glyph-name="cdotaccent" unicode="&#x10b;" horiz-adv-x="576" 
d="M216 736h160v-144h-160v144zM50 405.5q34 63.5 98 101t152 37.5q77 0 134.5 -31.5t89.5 -83t36 -110.5l-158 -1q-7 39 -33.5 64.5t-67.5 25.5q-56 0 -90.5 -42t-34.5 -102t34.5 -102t90.5 -42q41 0 67.5 26t33.5 65l158 -1q-4 -59 -36 -111t-89.5 -83.5t-134.5 -31.5
q-86 0 -150.5 37.5t-99 101t-34.5 141.5t34 141.5z" />
    <glyph glyph-name="Ccaron" unicode="&#x10c;" horiz-adv-x="720" 
d="M348 842q3 -5 4 -12t1 -9q4 -14 15 -14q12 0 15 14q0 2 1 9t4 12l36 62h120l-116 -136h-120l-116 136h120zM57 539q41 84 121.5 132.5t193.5 48.5q104 0 177 -41t111 -105.5t44 -135.5h-167q-9 54 -50 96t-113 42q-58 0 -101 -29.5t-66 -81t-23 -113.5t23 -113.5t66 -81
t101 -29.5q72 0 113 42t50 96h167q-6 -71 -44 -135.5t-111 -105.5t-177 -41q-113 0 -193.5 48.5t-121.5 132.5t-41 187t41 187z" />
    <glyph glyph-name="ccaron" unicode="&#x10d;" horiz-adv-x="576" 
d="M276 666q3 -5 4 -12t1 -9q4 -14 15 -14q12 0 15 14q0 2 1 9t4 12l36 62h120l-116 -136h-120l-116 136h120zM50 405.5q34 63.5 98 101t152 37.5q77 0 134.5 -31.5t89.5 -83t36 -110.5l-158 -1q-7 39 -33.5 64.5t-67.5 25.5q-56 0 -90.5 -42t-34.5 -102t34.5 -102t90.5 -42
q41 0 67.5 26t33.5 65l158 -1q-4 -59 -36 -111t-89.5 -83.5t-134.5 -31.5q-86 0 -150.5 37.5t-99 101t-34.5 141.5t34 141.5z" />
    <glyph glyph-name="Dcaron" unicode="&#x10e;" horiz-adv-x="704" 
d="M316 842q3 -5 4 -12t1 -9q4 -14 15 -14q12 0 15 14q0 2 1 9t4 12l36 62h120l-116 -136h-120l-116 136h120zM532.5 656q79.5 -48 117.5 -127.5t38 -176.5q0 -96 -39 -176t-118.5 -128t-195.5 -48h-287v704h287q118 0 197.5 -48zM437.5 173q41.5 29 62 76.5t20.5 102.5
t-20.5 102.5t-62 76.5t-99.5 29h-122v-416h122q58 0 99.5 29z" />
    <glyph glyph-name="dcaron" unicode="&#x10f;" horiz-adv-x="784" 
d="M416 0v19q0 17 12 43q10 20 10 28t-8 11l-3 1q-7 0 -10.5 -7t-4.5 -8q-25 -49 -66.5 -76t-99.5 -27q-71 0 -123 37t-79.5 100.5t-27.5 142.5t27.5 142.5t79.5 100.5t123 37q108 0 166 -102q5 -9 10 -14t13 -1q6 3 6 8q0 7 -6 18t-8 15q-11 22 -11 44v208h160v-720h-160z
M674 536.5q6 7.5 17 12.5q3 1 11.5 5t11.5 7.5t2 8.5q-3 8 -10 8q-6 0 -19 -5q-14 -5 -34 -5h-37v136h168v-111q0 -28 -10.5 -49t-40.5 -62q-11 -14 -25 -34h-92l44 69q8 12 14 19.5zM381.5 162q34.5 42 34.5 102t-34.5 102t-89.5 42q-57 0 -86.5 -41t-29.5 -103t29.5 -103
t86.5 -41q55 0 89.5 42z" />
    <glyph glyph-name="Dcroat" unicode="&#x110;" horiz-adv-x="704" 
d="M532.5 656q79.5 -48 117.5 -127.5t38 -176.5q0 -96 -39 -176t-118.5 -128t-195.5 -48h-287v304h-80v96h80v304h287q118 0 197.5 -48zM437.5 173q41.5 29 62 76.5t20.5 102.5t-20.5 102.5t-62 76.5t-99.5 29h-122v-160h128v-96h-128v-160h122q58 0 99.5 29z" />
    <glyph glyph-name="dcroat" unicode="&#x111;" horiz-adv-x="624" 
d="M656 560h-80v-560h-160v19q0 17 12 43q10 20 10 28t-8 11l-3 1q-7 0 -10.5 -7t-4.5 -8q-25 -49 -66.5 -76t-99.5 -27q-71 0 -123 37t-79.5 100.5t-27.5 142.5t27.5 142.5t79.5 100.5t123 37q108 0 166 -102q5 -9 10 -14t13 -1q6 3 6 8q0 7 -6 18t-8 15q-11 22 -11 44v48
h-128v96h128v64h160v-64h80v-96zM381.5 162q34.5 42 34.5 102t-34.5 102t-89.5 42q-57 0 -86.5 -41t-29.5 -103t29.5 -103t86.5 -41q55 0 89.5 42z" />
    <glyph glyph-name="Emacron" unicode="&#x112;" 
d="M120 784v96h368v-96h-368zM216 420h296v-136h-296v-140h360v-144h-528v704h528v-144h-360v-140z" />
    <glyph glyph-name="emacron" unicode="&#x113;" horiz-adv-x="576" 
d="M472 704v-96h-368v96h368zM557 224h-383q8 -51 41 -81.5t82 -30.5q36 0 60 17t34 47h159q-17 -82 -82 -137t-170 -55q-89 0 -153 37t-96.5 100.5t-32.5 142.5q0 82 33 145.5t96 99t150 35.5q70 0 130.5 -29t97.5 -88.5t37 -146.5q0 -33 -3 -56zM178 320h225q-4 48 -32 74
t-73 26q-99 0 -120 -100z" />
    <glyph glyph-name="Edotaccent" unicode="&#x116;" 
d="M224 912h160v-144h-160v144zM216 420h296v-136h-296v-140h360v-144h-528v704h528v-144h-360v-140z" />
    <glyph glyph-name="edotaccent" unicode="&#x117;" horiz-adv-x="576" 
d="M368 736v-144h-160v144h160zM557 224h-383q8 -51 41 -81.5t82 -30.5q36 0 60 17t34 47h159q-17 -82 -82 -137t-170 -55q-89 0 -153 37t-96.5 100.5t-32.5 142.5q0 82 33 145.5t96 99t150 35.5q70 0 130.5 -29t97.5 -88.5t37 -146.5q0 -33 -3 -56zM178 320h225
q-4 48 -32 74t-73 26q-99 0 -120 -100z" />
    <glyph glyph-name="Eogonek" unicode="&#x118;" 
d="M216 560v-140h296v-136h-296v-140h360v-144q-63 0 -99.5 -19t-36.5 -51q0 -27 15 -39.5t42 -15.5t79 -3v-80h-58q-85 0 -125.5 31t-40.5 82q0 26 12 51.5t33 43.5h-349v704h528v-144h-360z" />
    <glyph glyph-name="eogonek" unicode="&#x119;" horiz-adv-x="576" 
d="M557 224h-383q8 -51 41 -81.5t82 -30.5q36 0 60 17t34 47h159q-16 -78 -76.5 -132.5t-158.5 -59.5q-43 -18 -43 -54q0 -27 15 -39.5t42 -15.5t79 -3v-80h-58q-85 0 -125.5 31t-40.5 82q0 23 9.5 46t26.5 41q-97 22 -150.5 96t-53.5 176q0 82 33 145.5t96 99t150 35.5
q70 0 130.5 -29t97.5 -88.5t37 -146.5q0 -33 -3 -56zM178 320h225q-4 48 -32 74t-73 26q-99 0 -120 -100z" />
    <glyph glyph-name="Ecaron" unicode="&#x11a;" 
d="M284 842q3 -5 4 -12t1 -9q4 -14 15 -14q12 0 15 14q0 2 1 9t4 12l36 62h120l-116 -136h-120l-116 136h120zM216 420h296v-136h-296v-140h360v-144h-528v704h528v-144h-360v-140z" />
    <glyph glyph-name="ecaron" unicode="&#x11b;" horiz-adv-x="576" 
d="M228 592l-116 136h120l36 -62q3 -5 4 -12t1 -9q4 -14 15 -14q12 0 15 14q0 2 1 9t4 12l36 62h120l-116 -136h-120zM557 224h-383q8 -51 41 -81.5t82 -30.5q36 0 60 17t34 47h159q-17 -82 -82 -137t-170 -55q-89 0 -153 37t-96.5 100.5t-32.5 142.5q0 82 33 145.5t96 99
t150 35.5q70 0 130.5 -29t97.5 -88.5t37 -146.5q0 -33 -3 -56zM178 320h225q-4 48 -32 74t-73 26q-99 0 -120 -100z" />
    <glyph glyph-name="Gbreve" unicode="&#x11e;" horiz-adv-x="752" 
d="M493.5 807q-42.5 -39 -117.5 -39t-117.5 39t-42.5 105h96q0 -72 64 -72q29 0 46.5 17t17.5 55h96q0 -66 -42.5 -105zM59 538.5q43 83.5 125 132.5t194 49q99 0 169.5 -35.5t109.5 -93.5t47 -127h-167q-15 51 -54.5 81.5t-103.5 30.5q-62 0 -106 -29.5t-66.5 -80.5
t-22.5 -114q0 -99 46.5 -161.5t137.5 -62.5q48 0 85.5 19.5t58.5 47.5t24 53h-160v136h328v-384h-168v18q0 32 16 71q6 14 6 21q0 9 -6 11q-4 2 -6 2q-9 0 -14 -12q-22 -50 -67.5 -88.5t-121.5 -38.5q-101 0 -175 48t-113 132t-39 188q0 103 43 186.5z" />
    <glyph glyph-name="gbreve" unicode="&#x11f;" horiz-adv-x="624" 
d="M429.5 631q-42.5 -39 -117.5 -39t-117.5 39t-42.5 105h96q0 -72 64 -72q29 0 46.5 17t17.5 55h96q0 -66 -42.5 -105zM43.5 414q27.5 61 79.5 95.5t123 34.5q110 0 166 -102q0 -1 4 -7.5t12 -4.5q8 3 8 11q0 9 -9 27q-11 22 -11 44v16h160v-492q0 -121 -74 -182.5
t-203 -61.5q-244 0 -267 184h156q6 -31 32 -47.5t79 -16.5q66 0 91.5 30.5t25.5 84.5q0 22 12 43q11 20 11 28q0 7 -7 10q-2 1 -5 1q-8 0 -15 -13q-25 -45 -66 -66.5t-100 -21.5q-71 0 -123 34.5t-79.5 95.5t-27.5 138t27.5 138zM381.5 182.5q34.5 38.5 34.5 93.5
t-34.5 93.5t-89.5 38.5q-57 0 -86.5 -37.5t-29.5 -94.5t29.5 -94.5t86.5 -37.5q55 0 89.5 38.5z" />
    <glyph glyph-name="Gdotaccent" unicode="&#x120;" horiz-adv-x="752" 
d="M296 912h160v-144h-160v144zM59 538.5q43 83.5 125 132.5t194 49q99 0 169.5 -35.5t109.5 -93.5t47 -127h-167q-15 51 -54.5 81.5t-103.5 30.5q-62 0 -106 -29.5t-66.5 -80.5t-22.5 -114q0 -99 46.5 -161.5t137.5 -62.5q48 0 85.5 19.5t58.5 47.5t24 53h-160v136h328
v-384h-168v18q0 32 16 71q6 14 6 21q0 9 -6 11q-4 2 -6 2q-9 0 -14 -12q-22 -50 -67.5 -88.5t-121.5 -38.5q-101 0 -175 48t-113 132t-39 188q0 103 43 186.5z" />
    <glyph glyph-name="gdotaccent" unicode="&#x121;" horiz-adv-x="624" 
d="M232 736h160v-144h-160v144zM43.5 414q27.5 61 79.5 95.5t123 34.5q110 0 166 -102q0 -1 4 -7.5t12 -4.5q8 3 8 11q0 9 -9 27q-11 22 -11 44v16h160v-492q0 -121 -74 -182.5t-203 -61.5q-244 0 -267 184h156q6 -31 32 -47.5t79 -16.5q66 0 91.5 30.5t25.5 84.5
q0 22 12 43q11 20 11 28q0 7 -7 10q-2 1 -5 1q-8 0 -15 -13q-25 -45 -66 -66.5t-100 -21.5q-71 0 -123 34.5t-79.5 95.5t-27.5 138t27.5 138zM381.5 182.5q34.5 38.5 34.5 93.5t-34.5 93.5t-89.5 38.5q-57 0 -86.5 -37.5t-29.5 -94.5t29.5 -94.5t86.5 -37.5q55 0 89.5 38.5z
" />
    <glyph glyph-name="uni0122" unicode="&#x122;" horiz-adv-x="752" 
d="M59 538.5q43 83.5 125 132.5t194 49q99 0 169.5 -35.5t109.5 -93.5t47 -127h-167q-15 51 -54.5 81.5t-103.5 30.5q-62 0 -106 -29.5t-66.5 -80.5t-22.5 -114q0 -99 46.5 -161.5t137.5 -62.5q48 0 85.5 19.5t58.5 47.5t24 53h-160v136h328v-384h-168v18q0 32 16 71
q6 14 6 21q0 9 -6 11q-4 2 -6 2q-9 0 -14 -12q-22 -50 -67.5 -88.5t-121.5 -38.5q-101 0 -175 48t-113 132t-39 188q0 103 43 186.5zM344 -213q8 11 22 18q4 2 12.5 5.5t11.5 7t2 8.5q-3 8 -10 8q-6 0 -19 -5q-14 -5 -34 -5h-37v128h168v-103q0 -27 -9 -44.5t-36 -51.5
l-31 -41h-92l42 61q2 3 10 14z" />
    <glyph glyph-name="uni0123" unicode="&#x123;" horiz-adv-x="624" 
d="M344 757q-8 -11 -22 -18q-4 -2 -12.5 -5.5t-11.5 -7t-2 -8.5q3 -8 10 -8q6 0 19 5q14 5 34 5h37v-128h-168v103q0 27 9 44.5t36 51.5l31 41h92l-42 -61q-2 -3 -10 -14zM43.5 414q27.5 61 79.5 95.5t123 34.5q110 0 166 -102q0 -1 4 -7.5t12 -4.5q8 3 8 11q0 9 -9 27
q-11 22 -11 44v16h160v-492q0 -121 -74 -182.5t-203 -61.5q-244 0 -267 184h156q6 -31 32 -47.5t79 -16.5q66 0 91.5 30.5t25.5 84.5q0 22 12 43q11 20 11 28q0 7 -7 10q-2 1 -5 1q-8 0 -15 -13q-25 -45 -66 -66.5t-100 -21.5q-71 0 -123 34.5t-79.5 95.5t-27.5 138
t27.5 138zM381.5 182.5q34.5 38.5 34.5 93.5t-34.5 93.5t-89.5 38.5q-57 0 -86.5 -37.5t-29.5 -94.5t29.5 -94.5t86.5 -37.5q55 0 89.5 38.5z" />
    <glyph glyph-name="Hbar" unicode="&#x126;" horiz-adv-x="720" 
d="M752 592v-96h-80v-496h-168v280h-288v-280h-168v496h-80v96h80v112h168v-112h288v112h168v-112h80zM504 424v72h-288v-72h288z" />
    <glyph glyph-name="hbar" unicode="&#x127;" 
d="M525 487q51 -57 51 -167v-320h-160v256q0 86 -19.5 119t-64.5 33q-33 0 -61.5 -26t-45.5 -73t-17 -106v-203h-160v560h-80v96h80v64h160v-64h128v-96h-128v-57q0 -31 -13 -57q-11 -22 -11 -31q0 -8 6 -10q2 -1 5 -1q9 0 16 16q23 49 68 86.5t107 37.5q88 0 139 -57z" />
    <glyph glyph-name="Imacron" unicode="&#x12a;" horiz-adv-x="264" 
d="M-52 784v96h368v-96h-368zM48 704h168v-704h-168v704z" />
    <glyph glyph-name="imacron" unicode="&#x12b;" horiz-adv-x="256" 
d="M-56 608v96h368v-96h-368zM208 528v-528h-160v528h160z" />
    <glyph glyph-name="Iogonek" unicode="&#x12e;" horiz-adv-x="264" 
d="M116.5 -19q-36.5 -19 -36.5 -51q0 -27 15 -39.5t42 -15.5t79 -3v-80h-58q-85 0 -125.5 31t-40.5 82q0 30 15 58.5t41 44.5v696h168v-704q-63 0 -99.5 -19z" />
    <glyph glyph-name="iogonek" unicode="&#x12f;" horiz-adv-x="256" 
d="M48 720h160v-128h-160v128zM48 528h160v-528q-63 0 -99.5 -19t-36.5 -51q0 -27 15 -39.5t42 -15.5t79 -3v-80h-58q-85 0 -125.5 31t-40.5 82q0 32 17.5 62.5t46.5 45.5v515z" />
    <glyph glyph-name="Idotaccent" unicode="&#x130;" horiz-adv-x="264" 
d="M52 912h160v-144h-160v144zM48 704h168v-704h-168v704z" />
    <glyph glyph-name="dotlessi" unicode="&#x131;" horiz-adv-x="256" 
d="M48 528h160v-528h-160v528z" />
    <glyph glyph-name="IJ" unicode="&#x132;" horiz-adv-x="808" 
d="M48 0v704h168v-704h-168zM776 252q0 -130 -64 -199t-184 -69q-116 0 -182 68t-66 192h168q0 -116 80 -116q37 0 58.5 29t21.5 87v460h168v-452z" />
    <glyph glyph-name="ij" unicode="&#x133;" horiz-adv-x="520" 
d="M48 720h160v-128h-160v128zM48 528h160v-528h-160v528zM312 720h160v-128h-160v128zM472 -28q0 -92 -37.5 -128t-120.5 -36h-130v128h76q23 0 33.5 4t14.5 15.5t4 36.5v536h160v-556z" />
    <glyph glyph-name="uni0136" unicode="&#x136;" horiz-adv-x="672" 
d="M672 0h-204l-197 272l-55 -61v-211h-168v704h168v-197q0 -29 -7 -45.5t-20 -31.5q-5 -7 -5 -12q0 -6 5 -10q5 -3 9 -3q6 0 13 7l249 292h196l-279 -312zM252 -48h168v-103q0 -27 -9 -44.5t-36 -51.5l-31 -41h-92l42 61q2 3 10 14t22 18q4 2 12.5 5.5t11.5 7t2 8.5
q-3 8 -10 8q-6 0 -19 -5q-14 -5 -34 -5h-37v128z" />
    <glyph glyph-name="uni0137" unicode="&#x137;" horiz-adv-x="576" 
d="M592 0h-192l-148 203l-44 -44v-159h-160v720h160v-295q0 -26 -6 -42.5t-19 -30.5q-8 -10 -8 -17q0 -5 5 -9q5 -3 8 -3q8 0 16 10l180 195h192l-220 -221zM220 -48h168v-103q0 -27 -9 -44.5t-36 -51.5l-31 -41h-92l42 61q2 3 10 14t22 18q4 2 12.5 5.5t11.5 7t2 8.5
q-3 8 -10 8q-6 0 -19 -5q-14 -5 -34 -5h-37v128z" />
    <glyph glyph-name="Lacute" unicode="&#x139;" horiz-adv-x="576" 
d="M164 920h128l-112 -152h-96zM216 144h344v-144h-512v704h168v-560z" />
    <glyph glyph-name="lacute" unicode="&#x13a;" horiz-adv-x="256" 
d="M160 936h128l-112 -152h-96zM208 0h-160v720h160v-720z" />
    <glyph glyph-name="uni013B" unicode="&#x13b;" horiz-adv-x="576" 
d="M216 144h344v-144h-512v704h168v-560zM272 -213q8 11 22 18q4 2 12.5 5.5t11.5 7t2 8.5q-3 8 -10 8q-6 0 -19 -5q-14 -5 -34 -5h-37v128h168v-103q0 -27 -9 -44.5t-36 -51.5l-31 -41h-92l42 61q2 3 10 14z" />
    <glyph glyph-name="uni013C" unicode="&#x13c;" horiz-adv-x="256" 
d="M208 0h-160v720h160v-720zM96 -213q8 11 22 18q4 2 12.5 5.5t11.5 7t2 8.5q-3 8 -10 8q-6 0 -19 -5q-14 -5 -34 -5h-37v128h168v-103q0 -27 -9 -44.5t-36 -51.5l-31 -41h-92l42 61q2 3 10 14z" />
    <glyph glyph-name="Lcaron" unicode="&#x13d;" horiz-adv-x="576" 
d="M216 144h344v-144h-512v704h168v-560zM450 536.5q6 7.5 17 12.5q3 1 11.5 5t11.5 7.5t2 8.5q-3 8 -10 8q-6 0 -19 -5q-14 -5 -34 -5h-37v136h168v-111q0 -28 -10.5 -49t-40.5 -62q-11 -14 -25 -34h-92l44 69q8 12 14 19.5z" />
    <glyph glyph-name="lcaron" unicode="&#x13e;" horiz-adv-x="416" 
d="M208 0h-160v720h160v-720zM306 536.5q6 7.5 17 12.5q3 1 11.5 5t11.5 7.5t2 8.5q-3 8 -10 8q-6 0 -19 -5q-14 -5 -34 -5h-37v136h168v-111q0 -28 -10.5 -49t-40.5 -62q-11 -14 -25 -34h-92l44 69q8 12 14 19.5z" />
    <glyph glyph-name="Ldot" unicode="&#x13f;" horiz-adv-x="576" 
d="M216 144h344v-144h-512v704h168v-560zM400 440h160v-144h-160v144z" />
    <glyph glyph-name="ldot" unicode="&#x140;" horiz-adv-x="408" 
d="M208 0h-160v720h160v-720zM248 440h160v-144h-160v144z" />
    <glyph glyph-name="Lslash" unicode="&#x141;" horiz-adv-x="576" 
d="M216 144h344v-144h-512v276l-80 -32v104l80 32v324h168v-256l128 52v-104l-128 -52v-200z" />
    <glyph glyph-name="lslash" unicode="&#x142;" horiz-adv-x="256" 
d="M336 494v-100l-128 -47v-347h-160v289l-128 -47v100l128 47v331h160v-273z" />
    <glyph glyph-name="Nacute" unicode="&#x143;" horiz-adv-x="752" 
d="M408 920h128l-112 -152h-96zM536 150q6 -12 15 -12q13 0 13 12q0 7 -5 19q-11 23 -17 41.5t-6 37.5v456h168v-704h-256l-232 554q-7 13 -16 12q-12 -3 -12 -13q0 -6 5 -18q11 -23 17 -41.5t6 -37.5v-456h-168v704h256z" />
    <glyph glyph-name="nacute" unicode="&#x144;" 
d="M328 744h128l-112 -152h-96zM525 487q51 -57 51 -167v-320h-160v256q0 86 -19.5 119t-64.5 33q-33 0 -61.5 -26t-45.5 -73t-17 -106v-203h-160v528h160v-25q0 -31 -13 -57q-11 -22 -11 -31q0 -8 6 -10q2 -1 5 -1q9 0 16 16q23 49 68 86.5t107 37.5q88 0 139 -57z" />
    <glyph glyph-name="uni0145" unicode="&#x145;" horiz-adv-x="752" 
d="M536 150q6 -12 15 -12q13 0 13 12q0 7 -5 19q-11 23 -17 41.5t-6 37.5v456h168v-704h-256l-232 554q-7 13 -16 12q-12 -3 -12 -13q0 -6 5 -18q11 -23 17 -41.5t6 -37.5v-456h-168v704h256zM344 -213q8 11 22 18q4 2 12.5 5.5t11.5 7t2 8.5q-3 8 -10 8q-6 0 -19 -5
q-14 -5 -34 -5h-37v128h168v-103q0 -27 -9 -44.5t-36 -51.5l-31 -41h-92l42 61q2 3 10 14z" />
    <glyph glyph-name="uni0146" unicode="&#x146;" 
d="M525 487q51 -57 51 -167v-320h-160v256q0 86 -19.5 119t-64.5 33q-33 0 -61.5 -26t-45.5 -73t-17 -106v-203h-160v528h160v-25q0 -31 -13 -57q-11 -22 -11 -31q0 -8 6 -10q2 -1 5 -1q9 0 16 16q23 49 68 86.5t107 37.5q88 0 139 -57zM280 -213q8 11 22 18q4 2 12.5 5.5
t11.5 7t2 8.5q-3 8 -10 8q-6 0 -19 -5q-14 -5 -34 -5h-37v128h168v-103q0 -27 -9 -44.5t-36 -51.5l-31 -41h-92l42 61q2 3 10 14z" />
    <glyph glyph-name="Ncaron" unicode="&#x147;" horiz-adv-x="752" 
d="M356 842q3 -5 4 -12t1 -9q4 -14 15 -14q12 0 15 14q0 2 1 9t4 12l36 62h120l-116 -136h-120l-116 136h120zM536 150q6 -12 15 -12q13 0 13 12q0 7 -5 19q-11 23 -17 41.5t-6 37.5v456h168v-704h-256l-232 554q-7 13 -16 12q-12 -3 -12 -13q0 -6 5 -18q11 -23 17 -41.5
t6 -37.5v-456h-168v704h256z" />
    <glyph glyph-name="ncaron" unicode="&#x148;" 
d="M284 666q3 -5 4 -12t1 -9q4 -14 15 -14q12 0 15 14q0 2 1 9t4 12l36 62h120l-116 -136h-120l-116 136h120zM525 487q51 -57 51 -167v-320h-160v256q0 86 -19.5 119t-64.5 33q-33 0 -61.5 -26t-45.5 -73t-17 -106v-203h-160v528h160v-25q0 -31 -13 -57q-11 -22 -11 -31
q0 -8 6 -10q2 -1 5 -1q9 0 16 16q23 49 68 86.5t107 37.5q88 0 139 -57z" />
    <glyph glyph-name="Eng" unicode="&#x14a;" horiz-adv-x="752" 
d="M704 704v-732q0 -92 -37.5 -128t-120.5 -36h-130v128h68q23 0 33.5 4t14.5 15.5t4 36.5v8h-88l-232 554q-7 13 -16 12q-12 -3 -12 -13q0 -6 5 -18q11 -23 17 -41.5t6 -37.5v-456h-168v704h256l232 -554q6 -12 15 -12q13 0 13 12q0 7 -5 19q-11 23 -17 41.5t-6 37.5v456
h168z" />
    <glyph glyph-name="eng" unicode="&#x14b;" 
d="M525 487q51 -57 51 -167v-348q0 -92 -37.5 -128t-120.5 -36h-130v128h76q23 0 33.5 4t14.5 15.5t4 36.5v264q0 86 -19.5 119t-64.5 33q-33 0 -61.5 -26t-45.5 -73t-17 -106v-203h-160v528h160v-25q0 -31 -13 -57q-11 -22 -11 -31q0 -8 6 -10q2 -1 5 -1q9 0 16 16
q23 49 68 86.5t107 37.5q88 0 139 -57z" />
    <glyph glyph-name="Omacron" unicode="&#x14c;" horiz-adv-x="752" 
d="M192 784v96h368v-96h-368zM571.5 671.5q81.5 -48.5 123 -132.5t41.5 -187t-41.5 -187t-123 -132.5t-195.5 -48.5t-195.5 48.5t-123 132.5t-41.5 187t41.5 187t123 132.5t195.5 48.5t195.5 -48.5zM479.5 157.5q43.5 29.5 66 80.5t22.5 114t-22.5 114t-66 80.5t-103.5 29.5
t-103.5 -29.5t-66 -80.5t-22.5 -114t22.5 -114t66 -80.5t103.5 -29.5t103.5 29.5z" />
    <glyph glyph-name="omacron" unicode="&#x14d;" horiz-adv-x="592" 
d="M112 608v96h368v-96h-368zM444.5 506.5q63.5 -37.5 97.5 -101.5t34 -141t-34 -141t-97.5 -101.5t-148.5 -37.5t-148.5 37.5t-97.5 101.5t-34 141t34 141t97.5 101.5t148.5 37.5t148.5 -37.5zM384.5 161q31.5 41 31.5 103t-31.5 103t-88.5 41t-88.5 -41t-31.5 -103
t31.5 -103t88.5 -41t88.5 41z" />
    <glyph glyph-name="Ohungarumlaut" unicode="&#x150;" horiz-adv-x="752" 
d="M272 888h120l-96 -120h-80zM496 888h120l-96 -120h-80zM571.5 671.5q81.5 -48.5 123 -132.5t41.5 -187t-41.5 -187t-123 -132.5t-195.5 -48.5t-195.5 48.5t-123 132.5t-41.5 187t41.5 187t123 132.5t195.5 48.5t195.5 -48.5zM479.5 157.5q43.5 29.5 66 80.5t22.5 114
t-22.5 114t-66 80.5t-103.5 29.5t-103.5 -29.5t-66 -80.5t-22.5 -114t22.5 -114t66 -80.5t103.5 -29.5t103.5 29.5z" />
    <glyph glyph-name="ohungarumlaut" unicode="&#x151;" horiz-adv-x="592" 
d="M192 712h120l-96 -120h-80zM416 712h120l-96 -120h-80zM444.5 506.5q63.5 -37.5 97.5 -101.5t34 -141t-34 -141t-97.5 -101.5t-148.5 -37.5t-148.5 37.5t-97.5 101.5t-34 141t34 141t97.5 101.5t148.5 37.5t148.5 -37.5zM384.5 161q31.5 41 31.5 103t-31.5 103t-88.5 41
t-88.5 -41t-31.5 -103t31.5 -103t88.5 -41t88.5 41z" />
    <glyph glyph-name="OE" unicode="&#x152;" horiz-adv-x="1040" 
d="M57.5 538q41.5 84 117.5 133t177 49q118 0 200 -85q14 -14 22 -9q6 3 6 10q0 6 -4 11q-9 11 -12.5 18t-3.5 19v20h448v-144h-280v-136h216v-144h-216v-136h280v-144h-448v20q0 12 3 18.5t10 15.5q6 9 6 14q0 6 -5 9q-4 2 -6 2q-7 0 -16 -11q-81 -84 -200 -84
q-101 0 -177 49t-117.5 133t-41.5 186t41.5 186zM207.5 239q23.5 -51 66.5 -81t98 -30t98 30t66.5 81t23.5 113t-23.5 113t-66.5 81t-98 30t-98 -30t-66.5 -81t-23.5 -113t23.5 -113z" />
    <glyph glyph-name="oe" unicode="&#x153;" horiz-adv-x="976" 
d="M49.5 405q33.5 64 95.5 101.5t143 37.5q57 0 104.5 -21.5t80.5 -59.5q11 -12 20 -12t20 12q79 81 190 81q66 0 125 -29t95.5 -88.5t36.5 -146.5q0 -33 -3 -56h-383q8 -51 41 -81.5t82 -30.5q36 0 60 17t34 47h159q-11 -52 -42.5 -95.5t-82.5 -70t-119 -26.5
q-60 0 -108.5 21.5t-83.5 59.5q-13 13 -21 13t-19 -12q-33 -38 -80.5 -60t-105.5 -22q-81 0 -143 37.5t-95.5 101.5t-33.5 141t33.5 141zM771 394q-28 26 -73 26q-99 0 -120 -100h225q-4 48 -32 74zM207.5 161q31.5 -41 88.5 -41t88.5 41t31.5 103t-31.5 103t-88.5 41
t-88.5 -41t-31.5 -103t31.5 -103z" />
    <glyph glyph-name="Racute" unicode="&#x154;" horiz-adv-x="688" 
d="M352 920h128l-112 -152h-96zM573.5 645.5q66.5 -58.5 66.5 -157.5q0 -39 -19.5 -76.5t-56 -64.5t-86.5 -34q-17 -2 -17 -18t18 -18q66 -7 94 -31t39 -58l60 -188h-190l-28 139q-8 39 -22.5 60.5t-44 31t-83.5 9.5h-88v-240h-168v704h318q141 0 207.5 -58.5zM437 401
q35 25 35 67q0 47 -28.5 69.5t-86.5 22.5h-141v-184h131q55 0 90 25z" />
    <glyph glyph-name="racute" unicode="&#x155;" horiz-adv-x="416" 
d="M240 744h128l-112 -152h-96zM197 415q8 0 15 14q17 39 36.5 61.5t55 34t96.5 11.5v-154q-11 1 -32 1q-88 0 -124 -42t-36 -136v-205h-160v528h160v-24q0 -24 -14 -52q-8 -18 -8 -25q0 -11 9 -12h2z" />
    <glyph glyph-name="uni0156" unicode="&#x156;" horiz-adv-x="688" 
d="M573.5 645.5q66.5 -58.5 66.5 -157.5q0 -39 -19.5 -76.5t-56 -64.5t-86.5 -34q-17 -2 -17 -18t18 -18q66 -7 94 -31t39 -58l60 -188h-190l-28 139q-8 39 -22.5 60.5t-44 31t-83.5 9.5h-88v-240h-168v704h318q141 0 207.5 -58.5zM437 401q35 25 35 67q0 47 -28.5 69.5
t-86.5 22.5h-141v-184h131q55 0 90 25zM304 -213q8 11 22 18q4 2 12.5 5.5t11.5 7t2 8.5q-3 8 -10 8q-6 0 -19 -5q-14 -5 -34 -5h-37v128h168v-103q0 -27 -9 -44.5t-36 -51.5l-31 -41h-92l42 61q2 3 10 14z" />
    <glyph glyph-name="uni0157" unicode="&#x157;" horiz-adv-x="416" 
d="M197 415q8 0 15 14q17 39 36.5 61.5t55 34t96.5 11.5v-154q-11 1 -32 1q-88 0 -124 -42t-36 -136v-205h-160v528h160v-24q0 -24 -14 -52q-8 -18 -8 -25q0 -11 9 -12h2zM208 -213q8 11 22 18q4 2 12.5 5.5t11.5 7t2 8.5q-3 8 -10 8q-6 0 -19 -5q-14 -5 -34 -5h-37v128h168
v-103q0 -27 -9 -44.5t-36 -51.5l-31 -41h-92l42 61q2 3 10 14z" />
    <glyph glyph-name="Rcaron" unicode="&#x158;" horiz-adv-x="688" 
d="M316 842q3 -5 4 -12t1 -9q4 -14 15 -14q12 0 15 14q0 2 1 9t4 12l36 62h120l-116 -136h-120l-116 136h120zM573.5 645.5q66.5 -58.5 66.5 -157.5q0 -39 -19.5 -76.5t-56 -64.5t-86.5 -34q-17 -2 -17 -18t18 -18q66 -7 94 -31t39 -58l60 -188h-190l-28 139
q-8 39 -22.5 60.5t-44 31t-83.5 9.5h-88v-240h-168v704h318q141 0 207.5 -58.5zM437 401q35 25 35 67q0 47 -28.5 69.5t-86.5 22.5h-141v-184h131q55 0 90 25z" />
    <glyph glyph-name="rcaron" unicode="&#x159;" horiz-adv-x="416" 
d="M228 666q3 -5 4 -12t1 -9q4 -14 15 -14q12 0 15 14q0 2 1 9t4 12l36 62h120l-116 -136h-120l-116 136h120zM197 415q8 0 15 14q17 39 36.5 61.5t55 34t96.5 11.5v-154q-11 1 -32 1q-88 0 -124 -42t-36 -136v-205h-160v528h160v-24q0 -24 -14 -52q-8 -18 -8 -25
q0 -11 9 -12h2z" />
    <glyph glyph-name="Sacute" unicode="&#x15a;" horiz-adv-x="640" 
d="M344 920h128l-112 -152h-96zM549.5 379q74.5 -52 74.5 -165q0 -64 -34.5 -116t-103 -83t-166.5 -31q-100 0 -168.5 36t-102 96t-33.5 132h166q0 -54 32.5 -91t105.5 -37q70 0 103 25t33 59q0 33 -30 52t-106 29q-107 14 -168 43t-86.5 73t-25.5 109q0 60 33 107.5
t96.5 75t152.5 27.5q91 0 152 -32t91 -84.5t33 -115.5h-162q0 40 -28 68t-88 28q-59 0 -86 -20.5t-27 -47.5q0 -25 24 -43t97 -26q147 -16 221.5 -68z" />
    <glyph glyph-name="sacute" unicode="&#x15b;" horiz-adv-x="544" 
d="M296 744h128l-112 -152h-96zM198.5 126.5q23.5 -22.5 76.5 -22.5q49 0 71 13t22 35t-31.5 32.5t-105.5 18.5q-121 14 -160 61.5t-39 107.5q0 46 28 85t83 63t131 24q101 0 166.5 -46.5t71.5 -137.5h-158q-3 64 -83 64q-41 0 -60 -12t-19 -33q0 -16 19.5 -27t78.5 -16
q116 -11 177 -51.5t61 -122.5q0 -51 -31 -91.5t-89 -63.5t-137 -23q-120 0 -185 52.5t-70 147.5h158q1 -35 24.5 -57.5z" />
    <glyph glyph-name="Scedilla" unicode="&#x15e;" horiz-adv-x="640" 
d="M348 -31q0 -13 16 -13q47 0 73.5 -21t26.5 -60q0 -56 -45 -81.5t-129 -25.5h-74v80q92 0 130 8.5t38 38.5q0 23 -34.5 34t-103.5 11l32 46q-86 8 -145 45t-88 94t-29 123h166q0 -54 32.5 -91t105.5 -37q70 0 103 25t33 59q0 33 -30 52t-106 29q-107 14 -168 43t-86.5 73
t-25.5 109q0 60 33 107.5t96.5 75t152.5 27.5q91 0 152 -32t91 -84.5t33 -115.5h-162q0 40 -28 68t-88 28q-59 0 -86 -20.5t-27 -47.5q0 -25 24 -43t97 -26q147 -16 221.5 -68t74.5 -165q0 -58 -28.5 -106.5t-85 -81t-138.5 -40.5l-12 -4q-12 -4 -12 -13z" />
    <glyph glyph-name="scedilla" unicode="&#x15f;" horiz-adv-x="544" 
d="M300 -31q0 -13 16 -13q47 0 73.5 -21t26.5 -60q0 -56 -45 -81.5t-129 -25.5h-74v80q92 0 130 8.5t38 38.5q0 23 -34.5 34t-103.5 11l32 46q-101 9 -155 60.5t-59 137.5h158q1 -35 24.5 -57.5t76.5 -22.5q49 0 71 13t22 35t-31.5 32.5t-105.5 18.5q-121 14 -160 61.5
t-39 107.5q0 46 28 85t83 63t131 24q101 0 166.5 -46.5t71.5 -137.5h-158q-3 64 -83 64q-41 0 -60 -12t-19 -33q0 -16 19.5 -27t78.5 -16q116 -11 177 -51.5t61 -122.5q0 -68 -54 -115.5t-148 -59.5q-4 -2 -7.5 -3t-6.5 -2q-12 -4 -12 -13z" />
    <glyph glyph-name="Scaron" unicode="&#x160;" horiz-adv-x="640" 
d="M300 842q3 -5 4 -12t1 -9q4 -14 15 -14q12 0 15 14q0 2 1 9t4 12l36 62h120l-116 -136h-120l-116 136h120zM549.5 379q74.5 -52 74.5 -165q0 -64 -34.5 -116t-103 -83t-166.5 -31q-100 0 -168.5 36t-102 96t-33.5 132h166q0 -54 32.5 -91t105.5 -37q70 0 103 25t33 59
q0 33 -30 52t-106 29q-107 14 -168 43t-86.5 73t-25.5 109q0 60 33 107.5t96.5 75t152.5 27.5q91 0 152 -32t91 -84.5t33 -115.5h-162q0 40 -28 68t-88 28q-59 0 -86 -20.5t-27 -47.5q0 -25 24 -43t97 -26q147 -16 221.5 -68z" />
    <glyph glyph-name="scaron" unicode="&#x161;" horiz-adv-x="544" 
d="M252 666q3 -5 4 -12t1 -9q4 -14 15 -14q12 0 15 14q0 2 1 9t4 12l36 62h120l-116 -136h-120l-116 136h120zM198.5 126.5q23.5 -22.5 76.5 -22.5q49 0 71 13t22 35t-31.5 32.5t-105.5 18.5q-121 14 -160 61.5t-39 107.5q0 46 28 85t83 63t131 24q101 0 166.5 -46.5
t71.5 -137.5h-158q-3 64 -83 64q-41 0 -60 -12t-19 -33q0 -16 19.5 -27t78.5 -16q116 -11 177 -51.5t61 -122.5q0 -51 -31 -91.5t-89 -63.5t-137 -23q-120 0 -185 52.5t-70 147.5h158q1 -35 24.5 -57.5z" />
    <glyph glyph-name="uni0162" unicode="&#x162;" horiz-adv-x="640" 
d="M348 -31q0 -13 16 -13q47 0 73.5 -21t26.5 -60q0 -56 -45 -81.5t-129 -25.5h-74v80q92 0 130 8.5t38 38.5q0 23 -34.5 34t-103.5 11l42 60h-52v560h-220v144h608v-144h-220v-560h-20l-2 -4q-2 -5 -7.5 -8t-9.5 -4.5t-5 -1.5q-12 -4 -12 -13z" />
    <glyph glyph-name="uni0163" unicode="&#x163;" horiz-adv-x="432" 
d="M256 400v-220q0 -27 2.5 -37t11.5 -12.5t34 -2.5h96v-128h-104l-2 -4q-3 -6 -9 -9t-13 -5q-12 -4 -12 -13q0 -13 16 -13q47 0 73.5 -21t26.5 -60q0 -56 -45 -81.5t-129 -25.5h-74v80q92 0 130 8.5t38 38.5q0 23 -34.5 34t-103.5 11l43 64q-55 8 -80 44.5t-25 113.5v238
h-96v128h96v144h160v-144h144v-128h-144z" />
    <glyph glyph-name="Tcaron" unicode="&#x164;" horiz-adv-x="640" 
d="M300 842q3 -5 4 -12t1 -9q4 -14 15 -14q12 0 15 14q0 2 1 9t4 12l36 62h120l-116 -136h-120l-116 136h120zM624 560h-220v-560h-168v560h-220v144h608v-144z" />
    <glyph glyph-name="tcaron" unicode="&#x165;" horiz-adv-x="584" 
d="M584 704v-111q0 -28 -10.5 -49t-40.5 -62q-11 -14 -25 -34h-92l44 69q8 12 14 19.5t17 12.5q3 1 11.5 5t11.5 7.5t2 8.5q-3 8 -10 8q-6 0 -19 -5q-14 -5 -34 -5h-37v136h168zM256 528h144v-128h-144v-220q0 -27 2.5 -37t11.5 -12.5t34 -2.5h96v-128h-148q-55 0 -89 14.5
t-50.5 49.5t-16.5 98v238h-96v128h96v144h160v-144z" />
    <glyph glyph-name="Tbar" unicode="&#x166;" horiz-adv-x="640" 
d="M624 560h-220v-184h128v-96h-128v-280h-168v280h-128v96h128v184h-220v144h608v-144z" />
    <glyph glyph-name="tbar" unicode="&#x167;" horiz-adv-x="432" 
d="M256 400v-96h128v-96h-128v-28q0 -27 2.5 -37t11.5 -12.5t34 -2.5h96v-128h-148q-55 0 -89 14.5t-50.5 49.5t-16.5 98v46h-80v96h80v96h-96v128h96v144h160v-144h144v-128h-144z" />
    <glyph glyph-name="Umacron" unicode="&#x16a;" horiz-adv-x="720" 
d="M176 784v96h368v-96h-368zM631.5 119q-40.5 -67 -111 -101t-160.5 -34q-91 0 -161.5 34t-110.5 101t-40 163v422h168v-434q0 -48 21.5 -80t54.5 -47t68 -15q33 0 66.5 15.5t55.5 47.5t22 79v434h168v-422q0 -96 -40.5 -163z" />
    <glyph glyph-name="umacron" unicode="&#x16b;" 
d="M112 608v96h368v-96h-368zM83 41q-51 57 -51 167v320h160v-256q0 -86 19.5 -119t64.5 -33q33 0 61.5 26t45.5 73t17 106v203h160v-528h-160v25q0 31 13 57q11 22 11 31q0 8 -6 10q-2 1 -5 1q-9 0 -16 -16q-25 -49 -69.5 -86.5t-105.5 -37.5q-88 0 -139 57z" />
    <glyph glyph-name="Uring" unicode="&#x16e;" horiz-adv-x="720" 
d="M439.5 924q34.5 -20 53.5 -55t19 -77t-19 -77t-53.5 -55t-79.5 -20t-79.5 20t-53.5 55t-19 77t19 77t53.5 55t79.5 20t79.5 -20zM400.5 752.5q15.5 16.5 15.5 39.5t-15.5 39.5t-40.5 16.5t-40.5 -16.5t-15.5 -39.5t15.5 -39.5t40.5 -16.5t40.5 16.5zM631.5 119
q-40.5 -67 -111 -101t-160.5 -34q-91 0 -161.5 34t-110.5 101t-40 163v422h168v-434q0 -48 21.5 -80t54.5 -47t68 -15q33 0 66.5 15.5t55.5 47.5t22 79v434h168v-422q0 -96 -40.5 -163z" />
    <glyph glyph-name="uring" unicode="&#x16f;" 
d="M560 528v-528h-160v25q0 31 13 57q11 22 11 31q0 8 -6 10q-2 1 -5 1q-9 0 -16 -16q-25 -49 -69.5 -86.5t-105.5 -37.5q-88 0 -139 57t-51 167v320h138q-26 38 -26 88q0 42 19 77t53.5 55t79.5 20t79.5 -20t53.5 -55t19 -77q0 -50 -26 -88h138zM255.5 655.5
q-15.5 -16.5 -15.5 -39.5t15.5 -39.5t40.5 -16.5t40.5 16.5t15.5 39.5t-15.5 39.5t-40.5 16.5t-40.5 -16.5zM337.5 146q28.5 26 45.5 73t17 106v177q-41 -38 -104 -38t-104 38v-230q0 -86 19.5 -119t64.5 -33q33 0 61.5 26z" />
    <glyph glyph-name="Uhungarumlaut" unicode="&#x170;" horiz-adv-x="720" 
d="M256 888h120l-96 -120h-80zM480 888h120l-96 -120h-80zM631.5 119q-40.5 -67 -111 -101t-160.5 -34q-91 0 -161.5 34t-110.5 101t-40 163v422h168v-434q0 -48 21.5 -80t54.5 -47t68 -15q33 0 66.5 15.5t55.5 47.5t22 79v434h168v-422q0 -96 -40.5 -163z" />
    <glyph glyph-name="uhungarumlaut" unicode="&#x171;" 
d="M192 712h120l-96 -120h-80zM416 712h120l-96 -120h-80zM83 41q-51 57 -51 167v320h160v-256q0 -86 19.5 -119t64.5 -33q33 0 61.5 26t45.5 73t17 106v203h160v-528h-160v25q0 31 13 57q11 22 11 31q0 8 -6 10q-2 1 -5 1q-9 0 -16 -16q-25 -49 -69.5 -86.5t-105.5 -37.5
q-88 0 -139 57z" />
    <glyph glyph-name="Uogonek" unicode="&#x172;" horiz-adv-x="720" 
d="M672 704v-422q0 -133 -75.5 -209.5t-198.5 -86.5q-46 -20 -46 -56q0 -27 15 -39.5t42 -15.5t79 -3v-80h-58q-85 0 -125.5 31t-40.5 82q0 22 8.5 44t24.5 39q-114 17 -181.5 92.5t-67.5 201.5v422h168v-434q0 -48 21.5 -80t54.5 -47t68 -15q33 0 66.5 15.5t55.5 47.5
t22 79v434h168z" />
    <glyph glyph-name="uogonek" unicode="&#x173;" 
d="M460.5 -19q-36.5 -19 -36.5 -51q0 -27 15 -39.5t42 -15.5t79 -3v-80h-58q-85 0 -125.5 31t-40.5 82q0 32 17.5 62.5t46.5 45.5v12q0 31 13 57q11 22 11 31q0 8 -6 10q-2 1 -5 1q-9 0 -16 -16q-25 -49 -69.5 -86.5t-105.5 -37.5q-88 0 -139 57t-51 167v320h160v-256
q0 -86 19.5 -119t64.5 -33q33 0 61.5 26t45.5 73t17 106v203h160v-528q-63 0 -99.5 -19z" />
    <glyph glyph-name="Wcircumflex" unicode="&#x174;" horiz-adv-x="1008" 
d="M564 904l116 -136h-120l-36 62q-3 5 -4 12t-1 9q-3 14 -15 14q-11 0 -15 -14q0 -2 -1 -9t-4 -12l-36 -62h-120l116 136h120zM284 129q0 -21 16 -21t16 21q0 49 7 85l85 490h192l85 -490q7 -43 7 -85q0 -21 16 -21t16 21q0 39 9 85l99 490h176l-176 -704h-240l-66 421
q-6 39 -6 90q0 21 -16 21t-16 -21q0 -51 -6 -90l-66 -421h-240l-176 704h176l99 -490q7 -35 9 -85z" />
    <glyph glyph-name="wcircumflex" unicode="&#x175;" horiz-adv-x="816" 
d="M468 728l116 -136h-120l-36 62q-3 5 -4 12t-1 9q-3 14 -15 14q-11 0 -15 -14q0 -2 -1 -9t-4 -12l-36 -62h-120l116 136h120zM220 133q0 -21 16 -21t16 21q0 41 5 67l55 328h192l55 -328q5 -26 5 -67q0 -21 16 -21t16 21q0 41 5 67l63 328h168l-144 -528h-216l-43 289
q-2 18 -5 90q0 21 -16 21t-16 -21q-3 -72 -5 -90l-43 -289h-216l-144 528h168l63 -328q5 -26 5 -67z" />
    <glyph glyph-name="Ycircumflex" unicode="&#x176;" horiz-adv-x="656" 
d="M388 904l116 -136h-120l-36 62q-3 5 -4 12t-1 9q-3 14 -15 14q-11 0 -15 -14q0 -2 -1 -9t-4 -12l-36 -62h-120l116 136h120zM312 418q0 -21 16 -21t16 21q2 32 10 45l136 241h182l-260 -440v-264h-168v264l-260 440h182l136 -241q8 -13 10 -45z" />
    <glyph glyph-name="ycircumflex" unicode="&#x177;" horiz-adv-x="544" 
d="M332 728l116 -136h-120l-36 62q-3 5 -4 12t-1 9q-3 14 -15 14q-11 0 -15 -14q0 -2 -1 -9t-4 -12l-36 -62h-120l116 136h120zM258 159q0 -21 16 -21q9 0 12 5.5t4 15.5q1 5 2.5 22t6.5 34l91 313h170l-224 -589q-27 -71 -68 -101t-110 -30h-128v128h44h31q39 0 53 6.5
t25 33.5l6 15l-205 537h170l96 -313q8 -27 8 -56z" />
    <glyph glyph-name="Ydieresis" unicode="&#x178;" horiz-adv-x="656" 
d="M152 888h136v-120h-136v120zM368 888h136v-120h-136v120zM312 418q0 -21 16 -21t16 21q2 32 10 45l136 241h182l-260 -440v-264h-168v264l-260 440h182l136 -241q8 -13 10 -45z" />
    <glyph glyph-name="Zacute" unicode="&#x179;" horiz-adv-x="656" 
d="M352 920h128l-112 -152h-96zM426 546q22 10 16 22q-4 8 -12 8q-3 0 -16 -5q-26 -11 -53 -11h-329v144h592v-160l-342 -349q-20 -20 -52 -37q-22 -10 -16 -22q4 -8 12 -8q4 0 16 5q26 11 53 11h329v-144h-592v160l342 349q23 24 52 37z" />
    <glyph glyph-name="zacute" unicode="&#x17a;" horiz-adv-x="544" 
d="M296 744h128l-112 -152h-96zM322 381q18 8 13 21q-3 8 -11 8q-4 0 -14 -4q-31 -14 -66 -14h-212v136h480v-152l-217 -186q-29 -24 -73 -43q-18 -8 -13 -21q3 -8 11 -8q4 0 14 4q32 14 66 14h212v-136h-480v152l217 186q29 24 73 43z" />
    <glyph glyph-name="Zdotaccent" unicode="&#x17b;" horiz-adv-x="656" 
d="M248 912h160v-144h-160v144zM426 546q22 10 16 22q-4 8 -12 8q-3 0 -16 -5q-26 -11 -53 -11h-329v144h592v-160l-342 -349q-20 -20 -52 -37q-22 -10 -16 -22q4 -8 12 -8q4 0 16 5q26 11 53 11h329v-144h-592v160l342 349q23 24 52 37z" />
    <glyph glyph-name="zdotaccent" unicode="&#x17c;" horiz-adv-x="544" 
d="M192 736h160v-144h-160v144zM322 381q18 8 13 21q-3 8 -11 8q-4 0 -14 -4q-31 -14 -66 -14h-212v136h480v-152l-217 -186q-29 -24 -73 -43q-18 -8 -13 -21q3 -8 11 -8q4 0 14 4q32 14 66 14h212v-136h-480v152l217 186q29 24 73 43z" />
    <glyph glyph-name="Zcaron" unicode="&#x17d;" horiz-adv-x="656" 
d="M308 842q3 -5 4 -12t1 -9q4 -14 15 -14q12 0 15 14q0 2 1 9t4 12l36 62h120l-116 -136h-120l-116 136h120zM426 546q22 10 16 22q-4 8 -12 8q-3 0 -16 -5q-26 -11 -53 -11h-329v144h592v-160l-342 -349q-20 -20 -52 -37q-22 -10 -16 -22q4 -8 12 -8q4 0 16 5q26 11 53 11
h329v-144h-592v160l342 349q23 24 52 37z" />
    <glyph glyph-name="zcaron" unicode="&#x17e;" horiz-adv-x="544" 
d="M252 666q3 -5 4 -12t1 -9q4 -14 15 -14q12 0 15 14q0 2 1 9t4 12l36 62h120l-116 -136h-120l-116 136h120zM322 381q18 8 13 21q-3 8 -11 8q-4 0 -14 -4q-31 -14 -66 -14h-212v136h480v-152l-217 -186q-29 -24 -73 -43q-18 -8 -13 -21q3 -8 11 -8q4 0 14 4q32 14 66 14
h212v-136h-480v152l217 186q29 24 73 43z" />
    <glyph glyph-name="Aringacute" unicode="&#x1fa;" horiz-adv-x="704" 
d="M512 1128l-112 -152h-96l80 152h128zM494 152h-284l-50 -152h-176l251 691q-35 43 -35 101q0 42 19 77t53.5 55t79.5 20t79.5 -20t53.5 -55t19 -77q0 -58 -35 -101l251 -691h-176zM311.5 831.5q-15.5 -16.5 -15.5 -39.5t15.5 -39.5t40.5 -16.5t40.5 16.5t15.5 39.5
t-15.5 39.5t-40.5 16.5t-40.5 -16.5zM449 288l-69 209q-6 17 -8 36t-3 49q0 18 -17 18q-16 0 -16 -18q-2 -56 -12 -85l-69 -209h194z" />
    <glyph glyph-name="aringacute" unicode="&#x1fb;" horiz-adv-x="592" 
d="M440 952l-112 -152h-96l80 152h128zM511 445.5q33 -55.5 33 -153.5v-292h-160v27q0 22 11 44q1 3 6 13t5 17q0 6 -5 8l-6 2q-8 0 -11 -7t-4 -8q-26 -52 -71.5 -82t-108.5 -30q-52 0 -94.5 21t-66 56.5t-23.5 79.5q0 84 57 124t151 46q32 2 45 2q64 3 90 10t25 33
q-1 28 -21 48t-69 20q-50 0 -73.5 -19t-30.5 -53h-158q9 65 46.5 107t94.5 64q-29 40 -29 93q0 42 19 77t53.5 55t79.5 20t79.5 -20t53.5 -55t19 -77q0 -52 -28 -91q58 -24 91 -79.5zM255.5 655.5q-15.5 -16.5 -15.5 -39.5t15.5 -39.5t40.5 -16.5t40.5 16.5t15.5 39.5
t-15.5 39.5t-40.5 16.5t-40.5 -16.5zM302.5 111q32.5 16 57 52t24.5 93q-18 -18 -42.5 -23.5t-95.5 -14.5q-31 -3 -50.5 -19t-19.5 -47q0 -27 19.5 -42t48.5 -15q26 0 58.5 16z" />
    <glyph glyph-name="AEacute" unicode="&#x1fc;" horiz-adv-x="888" 
d="M576 920l-112 -152h-96l80 152h128zM856 560h-340l51 -140h225v-136h-175l51 -140h188v-144h-312l-50 152h-284l-50 -152h-176l256 704h616v-144zM449 288l-69 209q-6 17 -8 36t-3 49q0 18 -17 18q-16 0 -16 -18q-2 -56 -12 -85l-69 -209h194z" />
    <glyph glyph-name="aeacute" unicode="&#x1fd;" horiz-adv-x="944" 
d="M496 744h128l-112 -152h-96zM73 265q57 40 151 46q32 2 45 2q64 3 90 10t25 33q-1 28 -21 48t-69 20q-50 0 -73.5 -19t-30.5 -53h-158q13 98 85 145t165 47q55 0 103 -26.5t71 -66.5q9 -16 19 -16t18 14q26 40 73 67.5t113 27.5q62 0 119 -29t93.5 -89t36.5 -146
q0 -33 -3 -56h-383q8 -51 41 -81.5t82 -30.5q36 0 60 17t34 47h159q-17 -83 -78.5 -137.5t-165.5 -54.5q-69 0 -124 32t-82 81q-10 19 -22 19q-11 0 -24 -19q-44 -62 -94.5 -87.5t-127.5 -25.5q-52 0 -94.5 21t-66 56.5t-23.5 79.5q0 84 57 124zM739 394q-28 26 -73 26
q-99 0 -120 -100h225q-4 48 -32 74zM195.5 110q19.5 -15 48.5 -15q26 0 58.5 16t57 52t24.5 93q-18 -18 -42.5 -23.5t-95.5 -14.5q-31 -3 -50.5 -19t-19.5 -47q0 -27 19.5 -42z" />
    <glyph glyph-name="uni0218" unicode="&#x218;" horiz-adv-x="640" 
d="M549.5 379q74.5 -52 74.5 -165q0 -64 -34.5 -116t-103 -83t-166.5 -31q-100 0 -168.5 36t-102 96t-33.5 132h166q0 -54 32.5 -91t105.5 -37q70 0 103 25t33 59q0 33 -30 52t-106 29q-107 14 -168 43t-86.5 73t-25.5 109q0 60 33 107.5t96.5 75t152.5 27.5q91 0 152 -32
t91 -84.5t33 -115.5h-162q0 40 -28 68t-88 28q-59 0 -86 -20.5t-27 -47.5q0 -25 24 -43t97 -26q147 -16 221.5 -68zM288 -213q8 11 22 18q4 2 12.5 5.5t11.5 7t2 8.5q-3 8 -10 8q-6 0 -19 -5q-14 -5 -34 -5h-37v128h168v-103q0 -27 -9 -44.5t-36 -51.5l-31 -41h-92l42 61
q2 3 10 14z" />
    <glyph glyph-name="uni0219" unicode="&#x219;" horiz-adv-x="544" 
d="M198.5 126.5q23.5 -22.5 76.5 -22.5q49 0 71 13t22 35t-31.5 32.5t-105.5 18.5q-121 14 -160 61.5t-39 107.5q0 46 28 85t83 63t131 24q101 0 166.5 -46.5t71.5 -137.5h-158q-3 64 -83 64q-41 0 -60 -12t-19 -33q0 -16 19.5 -27t78.5 -16q116 -11 177 -51.5t61 -122.5
q0 -51 -31 -91.5t-89 -63.5t-137 -23q-120 0 -185 52.5t-70 147.5h158q1 -35 24.5 -57.5zM240 -213q8 11 22 18q4 2 12.5 5.5t11.5 7t2 8.5q-3 8 -10 8q-6 0 -19 -5q-14 -5 -34 -5h-37v128h168v-103q0 -27 -9 -44.5t-36 -51.5l-31 -41h-92l42 61q2 3 10 14z" />
    <glyph glyph-name="uni021A" unicode="&#x21a;" horiz-adv-x="640" 
d="M624 560h-220v-560h-168v560h-220v144h608v-144zM288 -213q8 11 22 18q4 2 12.5 5.5t11.5 7t2 8.5q-3 8 -10 8q-6 0 -19 -5q-14 -5 -34 -5h-37v128h168v-103q0 -27 -9 -44.5t-36 -51.5l-31 -41h-92l42 61q2 3 10 14z" />
    <glyph glyph-name="uni021B" unicode="&#x21b;" horiz-adv-x="432" 
d="M256 400v-220q0 -27 2.5 -37t11.5 -12.5t34 -2.5h96v-128h-148q-55 0 -89 14.5t-50.5 49.5t-16.5 98v238h-96v128h96v144h160v-144h144v-128h-144zM140 -48h168v-103q0 -27 -9 -44.5t-36 -51.5l-31 -41h-92l42 61q2 3 10 14t22 18q4 2 12.5 5.5t11.5 7t2 8.5q-3 8 -10 8
q-6 0 -19 -5q-14 -5 -34 -5h-37v128z" />
    <glyph glyph-name="circumflex" unicode="&#x2c6;" horiz-adv-x="584" 
 />
    <glyph glyph-name="caron" unicode="&#x2c7;" horiz-adv-x="584" 
 />
    <glyph glyph-name="breve" unicode="&#x2d8;" horiz-adv-x="584" 
 />
    <glyph glyph-name="dotaccent" unicode="&#x2d9;" horiz-adv-x="584" 
 />
    <glyph glyph-name="ring" unicode="&#x2da;" horiz-adv-x="584" 
 />
    <glyph glyph-name="ogonek" unicode="&#x2db;" horiz-adv-x="584" 
 />
    <glyph glyph-name="tilde" unicode="&#x2dc;" horiz-adv-x="584" 
 />
    <glyph glyph-name="hungarumlaut" unicode="&#x2dd;" horiz-adv-x="584" 
 />
    <glyph glyph-name="Wgrave" unicode="&#x1e80;" horiz-adv-x="1008" 
d="M464 768l-112 152h128l80 -152h-96zM284 129q0 -21 16 -21t16 21q0 49 7 85l85 490h192l85 -490q7 -43 7 -85q0 -21 16 -21t16 21q0 39 9 85l99 490h176l-176 -704h-240l-66 421q-6 39 -6 90q0 21 -16 21t-16 -21q0 -51 -6 -90l-66 -421h-240l-176 704h176l99 -490
q7 -35 9 -85z" />
    <glyph glyph-name="wgrave" unicode="&#x1e81;" horiz-adv-x="816" 
d="M368 592l-112 152h128l80 -152h-96zM220 133q0 -21 16 -21t16 21q0 41 5 67l55 328h192l55 -328q5 -26 5 -67q0 -21 16 -21t16 21q0 41 5 67l63 328h168l-144 -528h-216l-43 289q-2 18 -5 90q0 21 -16 21t-16 -21q-3 -72 -5 -90l-43 -289h-216l-144 528h168l63 -328
q5 -26 5 -67z" />
    <glyph glyph-name="Wacute" unicode="&#x1e82;" horiz-adv-x="1008" 
d="M528 920h128l-112 -152h-96zM284 129q0 -21 16 -21t16 21q0 49 7 85l85 490h192l85 -490q7 -43 7 -85q0 -21 16 -21t16 21q0 39 9 85l99 490h176l-176 -704h-240l-66 421q-6 39 -6 90q0 21 -16 21t-16 -21q0 -51 -6 -90l-66 -421h-240l-176 704h176l99 -490q7 -35 9 -85z
" />
    <glyph glyph-name="wacute" unicode="&#x1e83;" horiz-adv-x="816" 
d="M432 744h128l-112 -152h-96zM220 133q0 -21 16 -21t16 21q0 41 5 67l55 328h192l55 -328q5 -26 5 -67q0 -21 16 -21t16 21q0 41 5 67l63 328h168l-144 -528h-216l-43 289q-2 18 -5 90q0 21 -16 21t-16 -21q-3 -72 -5 -90l-43 -289h-216l-144 528h168l63 -328q5 -26 5 -67
z" />
    <glyph glyph-name="Wdieresis" unicode="&#x1e84;" horiz-adv-x="1008" 
d="M328 888h136v-120h-136v120zM544 888h136v-120h-136v120zM284 129q0 -21 16 -21t16 21q0 49 7 85l85 490h192l85 -490q7 -43 7 -85q0 -21 16 -21t16 21q0 39 9 85l99 490h176l-176 -704h-240l-66 421q-6 39 -6 90q0 21 -16 21t-16 -21q0 -51 -6 -90l-66 -421h-240
l-176 704h176l99 -490q7 -35 9 -85z" />
    <glyph glyph-name="wdieresis" unicode="&#x1e85;" horiz-adv-x="816" 
d="M232 712h136v-120h-136v120zM448 712h136v-120h-136v120zM220 133q0 -21 16 -21t16 21q0 41 5 67l55 328h192l55 -328q5 -26 5 -67q0 -21 16 -21t16 21q0 41 5 67l63 328h168l-144 -528h-216l-43 289q-2 18 -5 90q0 21 -16 21t-16 -21q-3 -72 -5 -90l-43 -289h-216
l-144 528h168l63 -328q5 -26 5 -67z" />
    <glyph glyph-name="Ygrave" unicode="&#x1ef2;" horiz-adv-x="656" 
d="M288 768l-112 152h128l80 -152h-96zM312 418q0 -21 16 -21t16 21q2 32 10 45l136 241h182l-260 -440v-264h-168v264l-260 440h182l136 -241q8 -13 10 -45z" />
    <glyph glyph-name="ygrave" unicode="&#x1ef3;" horiz-adv-x="544" 
d="M232 592l-112 152h128l80 -152h-96zM258 159q0 -21 16 -21q9 0 12 5.5t4 15.5q1 5 2.5 22t6.5 34l91 313h170l-224 -589q-27 -71 -68 -101t-110 -30h-128v128h44h31q39 0 53 6.5t25 33.5l6 15l-205 537h170l96 -313q8 -27 8 -56z" />
    <glyph glyph-name="endash" unicode="&#x2013;" horiz-adv-x="528" 
d="M32 208v96h464v-96h-464z" />
    <glyph glyph-name="emdash" unicode="&#x2014;" horiz-adv-x="656" 
d="M32 208v96h592v-96h-592z" />
    <glyph glyph-name="quoteleft" unicode="&#x2018;" horiz-adv-x="240" 
d="M126 595q-4 -2 -12.5 -5.5t-11.5 -7t-2 -8.5q3 -8 10 -8q6 0 19 5q14 5 34 5h45v-176h-176v151q0 29 10 52t42 77l24 40h100l-51 -95q-11 -20 -31 -30z" />
    <glyph glyph-name="quoteright" unicode="&#x2019;" horiz-adv-x="240" 
d="M114 509q4 2 12.5 5.5t11.5 7t2 8.5q-3 8 -10 8q-6 0 -19 -5q-14 -5 -34 -5h-45v176h176v-151q0 -29 -10 -52t-42 -77l-24 -40h-100l51 95q11 20 31 30z" />
    <glyph glyph-name="quotesinglbase" unicode="&#x201a;" horiz-adv-x="240" 
d="M114 -19q4 2 12.5 5.5t11.5 7t2 8.5q-3 8 -10 8q-6 0 -19 -5q-14 -5 -34 -5h-45v176h176v-151q0 -29 -10 -52t-42 -77l-24 -40h-100l51 95q11 20 31 30z" />
    <glyph glyph-name="quotedblleft" unicode="&#x201c;" horiz-adv-x="480" 
d="M126 595q-4 -2 -12.5 -5.5t-11.5 -7t-2 -8.5q3 -8 10 -8q6 0 19 5q14 5 34 5h45v-176h-176v151q0 29 10 52t42 77l24 40h100l-51 -95q-11 -20 -31 -30zM366 595q-4 -2 -12.5 -5.5t-11.5 -7t-2 -8.5q3 -8 10 -8q6 0 19 5q14 5 34 5h45v-176h-176v151q0 29 10 52t42 77
l24 40h100l-51 -95q-11 -20 -31 -30z" />
    <glyph glyph-name="quotedblright" unicode="&#x201d;" horiz-adv-x="480" 
d="M114 509q4 2 12.5 5.5t11.5 7t2 8.5q-3 8 -10 8q-6 0 -19 -5q-14 -5 -34 -5h-45v176h176v-151q0 -29 -10 -52t-42 -77l-24 -40h-100l51 95q11 20 31 30zM354 509q4 2 12.5 5.5t11.5 7t2 8.5q-3 8 -10 8q-6 0 -19 -5q-14 -5 -34 -5h-45v176h176v-151q0 -29 -10 -52
t-42 -77l-24 -40h-100l51 95q11 20 31 30z" />
    <glyph glyph-name="quotedblbase" unicode="&#x201e;" horiz-adv-x="480" 
d="M114 -19q4 2 12.5 5.5t11.5 7t2 8.5q-3 8 -10 8q-6 0 -19 -5q-14 -5 -34 -5h-45v176h176v-151q0 -29 -10 -52t-42 -77l-24 -40h-100l51 95q11 20 31 30zM354 -19q4 2 12.5 5.5t11.5 7t2 8.5q-3 8 -10 8q-6 0 -19 -5q-14 -5 -34 -5h-45v176h176v-151q0 -29 -10 -52
t-42 -77l-24 -40h-100l51 95q11 20 31 30z" />
    <glyph glyph-name="dagger" unicode="&#x2020;" horiz-adv-x="544" 
d="M512 528v-96h-192v-496h-96v496h-192v96h192v176h96v-176h192z" />
    <glyph glyph-name="daggerdbl" unicode="&#x2021;" horiz-adv-x="544" 
d="M512 432h-192v-224h192v-96h-192v-176h-96v176h-192v96h192v224h-192v96h192v176h96v-176h192v-96z" />
    <glyph glyph-name="bullet" unicode="&#x2022;" horiz-adv-x="496" 
d="M349 525.5q46 -26.5 72.5 -72.5t26.5 -101q0 -56 -26.5 -101.5t-72.5 -72t-101 -26.5t-101 26.5t-72.5 72t-26.5 101.5q0 55 26.5 101t72.5 72.5t101 26.5t101 -26.5z" />
    <glyph glyph-name="ellipsis" unicode="&#x2026;" horiz-adv-x="720" 
d="M208 176v-176h-176v176h176zM448 176v-176h-176v176h176zM688 176v-176h-176v176h176z" />
    <glyph glyph-name="perthousand" unicode="&#x2030;" horiz-adv-x="1216" 
d="M113.5 391q-38.5 23 -60 63t-21.5 90q0 48 21.5 88.5t60 64t87.5 23.5t87 -23.5t59 -64t21 -88.5q0 -50 -21 -90t-59 -63t-87 -23t-87.5 23zM584 704h112l-448 -704h-112zM246 487.5q18 23.5 18 56.5t-18 56.5t-46 23.5t-46 -23.5t-18 -56.5t18 -56.5t46 -23.5t46 23.5z
M545.5 7q-38.5 23 -60 63t-21.5 90q0 48 21.5 88.5t60 64t87.5 23.5t87 -23.5t59 -64t21 -88.5q0 -50 -21 -90t-59 -63t-87 -23t-87.5 23zM929.5 7q-38.5 23 -60 63t-21.5 90q0 48 21.5 88.5t60 64t87.5 23.5t87 -23.5t59 -64t21 -88.5q0 -50 -21 -90t-59 -63t-87 -23
t-87.5 23zM678 103.5q18 23.5 18 56.5t-18 56.5t-46 23.5t-46 -23.5t-18 -56.5t18 -56.5t46 -23.5t46 23.5zM1062 103.5q18 23.5 18 56.5t-18 56.5t-46 23.5t-46 -23.5t-18 -56.5t18 -56.5t46 -23.5t46 23.5z" />
    <glyph glyph-name="guilsinglleft" unicode="&#x2039;" horiz-adv-x="352" 
d="M320 496l-188 -224l188 -224h-116l-188 224l188 224h116z" />
    <glyph glyph-name="guilsinglright" unicode="&#x203a;" horiz-adv-x="352" 
d="M148 496l188 -224l-188 -224h-116l188 224l-188 224h116z" />
    <glyph glyph-name="fraction" unicode="&#x2044;" horiz-adv-x="104" 
d="M-228 0l448 704h112l-448 -704h-112z" />
    <glyph glyph-name="uni2070" unicode="&#x2070;" horiz-adv-x="376" 
d="M296.5 756.5q39.5 -51.5 39.5 -132.5t-39.5 -132.5t-108.5 -51.5q-68 0 -108 51.5t-40 132.5t40 132.5t108 51.5q69 0 108.5 -51.5zM226.5 548.5q13.5 28.5 13.5 75.5q0 48 -13.5 76t-38.5 28t-38.5 -28t-13.5 -76q0 -47 13.5 -75.5t38.5 -28.5t38.5 28.5z" />
    <glyph glyph-name="uni2074" unicode="&#x2074;" horiz-adv-x="376" 
d="M32 596l138 204h126v-212h48v-76h-48v-64h-96v64h-168v84zM107 566q1 -1 3 -1q4 0 12 8q7 8 13.5 11.5t19.5 3.5h45v94q0 14 10 32q9 15 1 19h-2q-6 0 -11 -7l-92 -145q-7 -11 1 -15z" />
    <glyph glyph-name="uni2075" unicode="&#x2075;" horiz-adv-x="360" 
d="M207 682q51 0 86 -28.5t35 -85.5q0 -54 -40 -91t-109 -37q-66 0 -106.5 33.5t-40.5 86.5h94q0 -19 14 -31.5t38 -12.5q25 0 39.5 13.5t14.5 36.5q0 24 -13 38.5t-37 14.5q-18 0 -29.5 -6t-22.5 -19h-93l27 206h233v-76h-161l-2 -19q-1 -15 -12 -27q-2 -2 -6 -6.5
t-4.5 -7.5t2.5 -6q1 -1 4 -1q4 0 8.5 3.5t5.5 4.5q34 17 75 17z" />
    <glyph glyph-name="uni2076" unicode="&#x2076;" horiz-adv-x="368" 
d="M69 752.5q37 55.5 121 55.5q60 0 97.5 -30t40.5 -71h-94q-4 15 -14.5 23t-31.5 8q-27 0 -36.5 -11.5t-14.5 -35.5q-1 -7 -8 -16q-2 -3 -6 -8t-5 -8.5t2 -5.5q1 -1 4 -1q4 0 9 5q31 31 74 31q61 0 95 -33.5t34 -86.5q0 -35 -20 -64.5t-54.5 -46.5t-77.5 -17
q-71 0 -111.5 43.5t-40.5 119.5q0 94 37 149.5zM142.5 528q14.5 -16 41.5 -16t41.5 15.5t14.5 40.5q0 26 -14 41t-42 15q-27 0 -41.5 -16t-14.5 -40t14.5 -40z" />
    <glyph glyph-name="uni2077" unicode="&#x2077;" horiz-adv-x="328" 
d="M219.5 607q-24.5 -69 -27.5 -159h-104q10 93 33 157t81 114q11 9 6 15q-1 2 -5 2q-3 0 -11 -5q-13 -7 -33 -7h-127v76h280v-64q-68 -60 -92.5 -129z" />
    <glyph glyph-name="uni2078" unicode="&#x2078;" horiz-adv-x="376" 
d="M329 590q15 -20 15 -44q0 -47 -41 -76.5t-115 -29.5t-115 29.5t-41 76.5q0 24 15.5 44t41.5 31q11 4 11 12q0 5 -3.5 8t-7.5 4q-23 9 -36 27.5t-13 39.5q0 39 38.5 67.5t109.5 28.5q72 0 110 -28.5t38 -67.5q0 -20 -13 -37.5t-36 -29.5q-1 0 -6 -2.5t-5 -9.5t12 -12
q26 -11 41 -31zM136 701q0 -16 12.5 -25.5t39.5 -9.5t39.5 9.5t12.5 25.5q0 35 -52 35t-52 -35zM233.5 524q14.5 12 14.5 31t-14.5 31t-45.5 12t-45.5 -12t-14.5 -31t14.5 -31t45.5 -12t45.5 12z" />
    <glyph glyph-name="uni2079" unicode="&#x2079;" horiz-adv-x="368" 
d="M299 495.5q-37 -55.5 -121 -55.5q-60 0 -97.5 30t-40.5 71h94q4 -15 14.5 -23t31.5 -8q27 0 36.5 11.5t14.5 35.5q1 7 8 16q2 3 6 8t5 8.5t-2 5.5q-1 1 -4 1q-4 0 -9 -5q-31 -31 -74 -31q-61 0 -95 33.5t-34 86.5q0 35 20 64.5t54.5 46.5t77.5 17q71 0 111.5 -43.5
t40.5 -119.5q0 -94 -37 -149.5zM225.5 720q-14.5 16 -41.5 16t-41.5 -15.5t-14.5 -40.5q0 -26 14 -41t42 -15q27 0 41.5 16t14.5 40t-14.5 40z" />
    <glyph glyph-name="Euro" unicode="&#x20ac;" horiz-adv-x="720" 
d="M87 436q21 128 103 206t213 78q95 0 160.5 -41t100 -105.5t40.5 -135.5h-167q-7 54 -40.5 96t-92.5 42q-76 0 -120 -76q-11 -19 -21 -28t-25 -14q-19 -5 -19 -17q0 -7 6 -11t13 -2q27 8 41 8h169v-64h-432v64h71zM448 268h-169q-14 0 -41 8l-5 1q-6 0 -10 -4t-4 -10
q0 -12 19 -17q15 -5 25 -14t21 -28q44 -76 120 -76q59 0 92.5 42t40.5 96h167q-6 -71 -40.5 -135.5t-100 -105.5t-160.5 -41q-131 0 -213 78t-103 206h-71v64h432v-64z" />
    <glyph glyph-name="trademark" unicode="&#x2122;" horiz-adv-x="872" 
d="M352 704v-88h-110v-264h-100v264h-110v88h320zM538 704l56 -210q7 -28 7 -49q0 -14 11 -14t11 14q0 21 7 49l56 210h154v-352h-100v176q0 15 5.5 41.5t10.5 38.5q1 2 1 7q0 8 -7 9h-2q-8 0 -10 -9l-72 -263h-108l-71 263q-1 3 -3.5 6t-6.5 3q-6 0 -8.5 -4.5t-0.5 -11.5
q5 -12 10.5 -38.5t5.5 -41.5v-176h-100v352h154z" />
    <glyph glyph-name="oneeighth" unicode="&#x215b;" horiz-adv-x="744" 
d="M184 704v-352h-96v226h-80v60q40 0 57 5.5t23 18t12 42.5h84zM36 0l448 704h112l-448 -704h-112zM697 142q15 -20 15 -44q0 -47 -41 -76.5t-115 -29.5t-115 29.5t-41 76.5q0 24 15.5 44t41.5 31q11 4 11 12q0 5 -3.5 8t-7.5 4q-23 9 -36 27.5t-13 39.5q0 39 38.5 67.5
t109.5 28.5q72 0 110 -28.5t38 -67.5q0 -20 -13 -37.5t-36 -29.5q-1 0 -6 -2.5t-5 -9.5t12 -12q26 -11 41 -31zM504 253q0 -16 12.5 -25.5t39.5 -9.5t39.5 9.5t12.5 25.5q0 35 -52 35t-52 -35zM601.5 76q14.5 12 14.5 31t-14.5 31t-45.5 12t-45.5 -12t-14.5 -31t14.5 -31
t45.5 -12t45.5 12z" />
    <glyph glyph-name="threeeighths" unicode="&#x215c;" horiz-adv-x="840" 
d="M181 418q25 0 38 11t13 29q0 24 -28 33t-80 9v64q100 0 100 43q0 16 -11.5 24.5t-30.5 8.5q-48 0 -48 -44h-94q0 50 39.5 83t101.5 33q64 0 101.5 -26.5t37.5 -69.5q0 -25 -14.5 -45t-40.5 -25q-13 -3 -13 -12q0 -7 14 -11q31 -8 46.5 -28t15.5 -45q0 -44 -37.5 -75
t-108.5 -31q-70 0 -110 33.5t-40 90.5h94q0 -50 55 -50zM132 0l448 704h112l-448 -704h-112zM793 142q15 -20 15 -44q0 -47 -41 -76.5t-115 -29.5t-115 29.5t-41 76.5q0 24 15.5 44t41.5 31q11 4 11 12q0 5 -3.5 8t-7.5 4q-23 9 -36 27.5t-13 39.5q0 39 38.5 67.5
t109.5 28.5q72 0 110 -28.5t38 -67.5q0 -20 -13 -37.5t-36 -29.5q-1 0 -6 -2.5t-5 -9.5t12 -12q26 -11 41 -31zM600 253q0 -16 12.5 -25.5t39.5 -9.5t39.5 9.5t12.5 25.5q0 35 -52 35t-52 -35zM697.5 76q14.5 12 14.5 31t-14.5 31t-45.5 12t-45.5 -12t-14.5 -31t14.5 -31
t45.5 -12t45.5 12z" />
    <glyph glyph-name="fiveeighths" unicode="&#x215d;" horiz-adv-x="840" 
d="M207 586q51 0 86 -28.5t35 -85.5q0 -54 -40 -91t-109 -37q-66 0 -106.5 33.5t-40.5 86.5h94q0 -19 14 -31.5t38 -12.5q25 0 39.5 13.5t14.5 36.5q0 24 -13 38.5t-37 14.5q-18 0 -29.5 -6t-22.5 -19h-93l27 206h233v-76h-161l-2 -19q-1 -15 -12 -27q-2 -2 -6 -6.5
t-4.5 -7.5t2.5 -6q1 -1 4 -1q4 0 8.5 3.5t5.5 4.5q34 17 75 17zM132 0l448 704h112l-448 -704h-112zM793 142q15 -20 15 -44q0 -47 -41 -76.5t-115 -29.5t-115 29.5t-41 76.5q0 24 15.5 44t41.5 31q11 4 11 12q0 5 -3.5 8t-7.5 4q-23 9 -36 27.5t-13 39.5q0 39 38.5 67.5
t109.5 28.5q72 0 110 -28.5t38 -67.5q0 -20 -13 -37.5t-36 -29.5q-1 0 -6 -2.5t-5 -9.5t12 -12q26 -11 41 -31zM600 253q0 -16 12.5 -25.5t39.5 -9.5t39.5 9.5t12.5 25.5q0 35 -52 35t-52 -35zM697.5 76q14.5 12 14.5 31t-14.5 31t-45.5 12t-45.5 -12t-14.5 -31t14.5 -31
t45.5 -12t45.5 12z" />
    <glyph glyph-name="seveneighths" unicode="&#x215e;" horiz-adv-x="808" 
d="M219.5 511q-24.5 -69 -27.5 -159h-104q10 93 33 157t81 114q11 9 6 15q-1 2 -5 2q-3 0 -11 -5q-13 -7 -33 -7h-127v76h280v-64q-68 -60 -92.5 -129zM100 0l448 704h112l-448 -704h-112zM761 142q15 -20 15 -44q0 -47 -41 -76.5t-115 -29.5t-115 29.5t-41 76.5
q0 24 15.5 44t41.5 31q11 4 11 12q0 5 -3.5 8t-7.5 4q-23 9 -36 27.5t-13 39.5q0 39 38.5 67.5t109.5 28.5q72 0 110 -28.5t38 -67.5q0 -20 -13 -37.5t-36 -29.5q-1 0 -6 -2.5t-5 -9.5t12 -12q26 -11 41 -31zM568 253q0 -16 12.5 -25.5t39.5 -9.5t39.5 9.5t12.5 25.5
q0 35 -52 35t-52 -35zM665.5 76q14.5 12 14.5 31t-14.5 31t-45.5 12t-45.5 -12t-14.5 -31t14.5 -31t45.5 -12t45.5 12z" />
    <glyph glyph-name="arrowleft" unicode="&#x2190;" horiz-adv-x="768" 
d="M209 304q-18 0 -52 8h-4q-5 0 -9 -3t-5 -9v-2q0 -10 11 -14q5 -2 26.5 -7t31.5 -13l112 -88v-112l-288 240v96l288 240v-112l-112 -88q-10 -8 -31.5 -13t-26.5 -7q-11 -4 -11 -14q0 -7 6 -11.5t12 -2.5q34 8 52 8h527v-96h-527z" />
    <glyph glyph-name="arrowup" unicode="&#x2191;" horiz-adv-x="640" 
d="M272 527q0 18 8 52v4q0 5 -3 9t-9 5h-2q-10 0 -14 -11q-2 -5 -7 -26.5t-13 -31.5l-88 -112h-112l240 288h96l240 -288h-112l-88 112q-8 10 -13 31.5t-7 26.5q-4 11 -14 11q-7 0 -11.5 -5.5t-2.5 -12.5q8 -34 8 -52v-527h-96v527z" />
    <glyph glyph-name="arrowright" unicode="&#x2192;" horiz-adv-x="768" 
d="M559 400q18 0 52 -8h4q5 0 9 3t5 9v2q0 10 -11 14q-5 2 -26.5 7t-31.5 13l-112 88v112l288 -240v-96l-288 -240v112l112 88q10 8 31.5 13t26.5 7q11 4 11 14q0 7 -5.5 11.5t-12.5 2.5q-34 -8 -52 -8h-527v96h527z" />
    <glyph glyph-name="arrowdown" unicode="&#x2193;" horiz-adv-x="640" 
d="M360 125v-4q0 -5 3 -9t9 -5h2q10 0 14 11q2 5 7 26.5t13 31.5l88 112h112l-240 -288h-96l-240 288h112l88 -112q8 -10 13 -31.5t7 -26.5q4 -11 14 -11q7 0 11.5 6t2.5 12q-8 34 -8 52v527h96v-527q0 -18 -8 -52z" />
    <glyph glyph-name="uni2196" unicode="&#x2196;" horiz-adv-x="629" 
d="M530 70l-373 372q-13 13 -31 43q-5 7 -12 7q-4 0 -9 -3q-10 -7 -4 -19q2 -4 13.5 -22.5t13.5 -32.5l17 -142l-79 -79l-34 374l68 67l373 -33l-79 -80l-142 17q-13 2 -32 13.5t-23 13.5t-8 2q-7 0 -11 -5q-3 -4 -3 -9q0 -8 7 -13q30 -18 43 -31l372 -372z" />
    <glyph glyph-name="uni2197" unicode="&#x2197;" horiz-adv-x="629" 
d="M447 542q7 5 7 13q0 5 -3 9q-4 4 -9.5 4.5t-9.5 -1.5t-23 -13.5t-32 -13.5l-142 -17l-79 80l373 33l68 -67l-34 -374l-79 79l17 142q2 14 13.5 32.5t13.5 22.5t2 8q0 7 -6 11q-5 3 -9 3q-7 0 -12 -7q-18 -30 -31 -43l-373 -372l-67 68l372 372q13 13 43 31z" />
    <glyph glyph-name="uni2198" unicode="&#x2198;" horiz-adv-x="629" 
d="M503 219q5 -7 12 -7q5 0 9 3q10 7 4 19q-2 4 -13.5 22.5t-13.5 32.5l-17 142l79 79l34 -374l-68 -67l-373 33l79 80l142 -17q13 -2 32 -13.5t23 -13.5t8 -2q7 0 11 5q3 5 3 9q0 8 -7 13q-30 18 -43 31l-372 372l67 68l373 -372q13 -13 31 -43z" />
    <glyph glyph-name="uni2199" unicode="&#x2199;" horiz-adv-x="629" 
d="M597 566l-372 -372q-13 -13 -43 -31q-7 -5 -7 -13q0 -4 3 -9q4 -4 9.5 -4.5t9.5 1.5t23 13.5t32 13.5l142 17l79 -80l-373 -33l-68 67l34 374l79 -79l-17 -142q-2 -14 -13.5 -32.5t-13.5 -22.5t-2 -8q0 -6 6 -11q5 -3 9 -3q7 0 12 7q18 30 31 43l373 372z" />
    <glyph glyph-name="partialdiff" unicode="&#x2202;" horiz-adv-x="560" 
d="M65 390.5q33 59.5 86.5 90.5t113.5 31q57 0 104 -28q24 -14 44 -34q10 -10 16 -10q5 0 8 3.5t3 8.5q0 7 -7 14q-19 19 -28 30.5t-11 14.5q-37 46 -106 71.5t-193 25.5v96q173 0 268 -54t130 -145.5t35 -224.5q0 -83 -31 -150.5t-87.5 -106.5t-129.5 -39
q-75 0 -131.5 36.5t-86.5 97.5t-30 133q0 80 33 139.5zM151 162.5q15 -39.5 47 -65t81 -25.5q76 0 112 57t36 136q0 46 -10 80q-32 38 -68.5 56.5t-71.5 18.5q-39 0 -71 -21.5t-51 -61.5t-19 -93q0 -42 15 -81.5z" />
    <glyph glyph-name="emptyset" unicode="&#x2205;" horiz-adv-x="616" 
 />
    <glyph glyph-name="product" unicode="&#x220f;" horiz-adv-x="544" 
d="M480 -192h-104v800h-224v-800h-104v896h432v-896z" />
    <glyph glyph-name="summation" unicode="&#x2211;" horiz-adv-x="640" 
d="M336 256l-288 328v120h544v-104h-357q-27 0 -53 11q-13 5 -16 5q-8 0 -12 -8q-1 -2 -1 -5q0 -11 17 -17q33 -14 52 -37l258 -293l-258 -293q-19 -23 -52 -37q-22 -10 -16 -22q4 -8 12 -8q4 0 16 5q26 11 53 11h357v-104h-544v120z" />
    <glyph glyph-name="minus" unicode="&#x2212;" horiz-adv-x="496" 
d="M464 400v-96h-432v96h432z" />
    <glyph glyph-name="radical" unicode="&#x221a;" horiz-adv-x="656" 
d="M640 608h-88l-216 -608h-128l-192 528h108l123 -374q10 -27 11 -48q1 -15 3.5 -21t10.5 -6t10.5 6t3.5 21q1 21 11 48l181 550h162v-96z" />
    <glyph glyph-name="infinity" unicode="&#x221e;" horiz-adv-x="704" 
d="M53.5 436.5q21.5 38.5 58.5 61t83 22.5q43 0 78.5 -20.5t70.5 -62.5q4 -4 8 -4t8 4q35 42 70.5 62.5t78.5 20.5q46 0 83 -22.5t58.5 -61t21.5 -84.5t-21.5 -84.5t-58.5 -61t-83 -22.5q-43 0 -78.5 20.5t-70.5 62.5q-3 4 -8 4t-8 -4q-35 -42 -70.5 -62.5t-78.5 -20.5
q-46 0 -83 22.5t-58.5 61t-21.5 84.5t21.5 84.5zM149 301.5q21 -21.5 50 -21.5q31 0 56 23t41 49q-16 26 -41 49t-56 23q-29 0 -50 -21.5t-21 -50.5t21 -50.5zM449 303q25 -23 56 -23q29 0 50 21.5t21 50.5t-21 50.5t-50 21.5q-31 0 -56 -23t-41 -49q16 -26 41 -49z" />
    <glyph glyph-name="integral" unicode="&#x222b;" horiz-adv-x="320" 
d="M125 646.5q17 40.5 58.5 57t120.5 16.5v-96q-41 0 -59.5 -6.5t-25.5 -26t-7 -62.5v-545q0 -78 -17 -118.5t-58.5 -57t-120.5 -16.5v96q41 0 59.5 6.5t25.5 26t7 62.5v545q0 78 17 118.5z" />
    <glyph glyph-name="approxequal" unicode="&#x2248;" horiz-adv-x="528" 
d="M475.5 441.5q-17.5 -31.5 -50 -52.5t-77.5 -21q-26 0 -50 8.5t-60 26.5q-25 12 -38 17.5t-25 5.5q-29 0 -43 -42h-100q3 31 20.5 60.5t50 48.5t77.5 19q26 0 50 -8.5t57 -24.5q22 -11 36.5 -16.5t26.5 -5.5q16 0 27 11t19 36h100q-3 -31 -20.5 -62.5zM475.5 259.5
q-17.5 -29.5 -50 -48.5t-77.5 -19q-26 0 -50 8.5t-57 24.5q-22 11 -36.5 16.5t-26.5 5.5q-16 0 -27 -11t-19 -36h-100q3 31 20.5 62.5t50 52.5t77.5 21q26 0 50 -8.5t60 -26.5q25 -12 38 -17.5t25 -5.5q29 0 43 42h100q-3 -31 -20.5 -60.5z" />
    <glyph glyph-name="notequal" unicode="&#x2260;" horiz-adv-x="496" 
d="M173 304l26 53q8 17 24 25q9 4 12.5 10.5t0.5 12.5q-3 7 -11 7q-5 0 -13 -3q-3 -1 -14.5 -5t-24.5 -4h-141v96h232l64 136h104l-39 -83q-7 -14 -14 -21.5t-16 -13.5q-8 -5 -12 -11t-1 -12q3 -7 11 -7q6 0 13 3q3 1 14.5 5t24.5 4h51v-96h-141l-25 -53q-8 -15 -25 -25
q-8 -5 -12 -11t-1 -12q3 -7 11 -7q6 0 13 3q3 1 14.5 5t24.5 4h141v-96h-232l-64 -136h-104l39 83q7 14 14 21.5t16 13.5q8 5 12 11t1 12q-3 7 -11 7q-5 0 -13 -3q-3 -1 -14.5 -5t-24.5 -4h-51v96h141z" />
    <glyph glyph-name="lessequal" unicode="&#x2264;" horiz-adv-x="464" 
d="M32 360v128l400 136v-104l-247 -68q-37 -10 -55 -12q-16 -2 -16 -16t16 -16q18 -2 55 -12l247 -68v-104zM432 176v-96h-400v96h400z" />
    <glyph glyph-name="greaterequal" unicode="&#x2265;" horiz-adv-x="464" 
d="M279 396q37 10 55 12q16 2 16 16t-16 16q-18 2 -55 12l-247 68v104l400 -136v-128l-400 -136v104zM432 176v-96h-400v96h400z" />
    <glyph glyph-name="lozenge" unicode="&#x25ca;" horiz-adv-x="560" 
d="M344 704l192 -352l-192 -352h-128l-192 352l192 352h128zM428 352l-123 238q-10 18 -11 36q-1 15 -3.5 21t-10.5 6t-10.5 -6t-3.5 -21q-1 -18 -11 -36l-123 -238l123 -238q10 -18 11 -36q1 -15 3.5 -21t10.5 -6t10.5 6t3.5 21q1 18 11 36z" />
    <glyph glyph-name="a.ss01" horiz-adv-x="624" 
d="M576 0h-160v19q0 17 12 43q10 20 10 28t-8 11l-3 1q-7 0 -10.5 -7t-4.5 -8q-25 -49 -66.5 -76t-99.5 -27q-71 0 -123 37t-79.5 100.5t-27.5 142.5t27.5 142.5t79.5 100.5t123 37q108 0 166 -102q5 -9 10 -14t13 -1q6 3 6 8q0 7 -6 18t-8 15q-11 22 -11 44v16h160v-528z
M381.5 162q34.5 42 34.5 102t-34.5 102t-89.5 42q-57 0 -86.5 -41t-29.5 -103t29.5 -103t86.5 -41q55 0 89.5 42z" />
    <glyph glyph-name="aacute.ss01" horiz-adv-x="624" 
d="M336 744h128l-112 -152h-96zM416 0v19q0 17 12 43q10 20 10 28t-8 11l-3 1q-7 0 -10.5 -7t-4.5 -8q-25 -49 -66.5 -76t-99.5 -27q-71 0 -123 37t-79.5 100.5t-27.5 142.5t27.5 142.5t79.5 100.5t123 37q108 0 166 -102q5 -9 10 -14t13 -1q6 3 6 8q0 7 -6 18t-8 15
q-11 22 -11 44v16h160v-528h-160zM381.5 162q34.5 42 34.5 102t-34.5 102t-89.5 42q-57 0 -86.5 -41t-29.5 -103t29.5 -103t86.5 -41q55 0 89.5 42z" />
    <glyph glyph-name="abreve.ss01" horiz-adv-x="624" 
d="M429.5 631q-42.5 -39 -117.5 -39t-117.5 39t-42.5 105h96q0 -72 64 -72q29 0 46.5 17t17.5 55h96q0 -66 -42.5 -105zM416 0v19q0 17 12 43q10 20 10 28t-8 11l-3 1q-7 0 -10.5 -7t-4.5 -8q-25 -49 -66.5 -76t-99.5 -27q-71 0 -123 37t-79.5 100.5t-27.5 142.5t27.5 142.5
t79.5 100.5t123 37q108 0 166 -102q5 -9 10 -14t13 -1q6 3 6 8q0 7 -6 18t-8 15q-11 22 -11 44v16h160v-528h-160zM381.5 162q34.5 42 34.5 102t-34.5 102t-89.5 42q-57 0 -86.5 -41t-29.5 -103t29.5 -103t86.5 -41q55 0 89.5 42z" />
    <glyph glyph-name="acircumflex.ss01" horiz-adv-x="624" 
d="M372 728l116 -136h-120l-36 62q-3 5 -4 12t-1 9q-3 14 -15 14q-11 0 -15 -14q0 -2 -1 -9t-4 -12l-36 -62h-120l116 136h120zM416 0v19q0 17 12 43q10 20 10 28t-8 11l-3 1q-7 0 -10.5 -7t-4.5 -8q-25 -49 -66.5 -76t-99.5 -27q-71 0 -123 37t-79.5 100.5t-27.5 142.5
t27.5 142.5t79.5 100.5t123 37q108 0 166 -102q5 -9 10 -14t13 -1q6 3 6 8q0 7 -6 18t-8 15q-11 22 -11 44v16h160v-528h-160zM381.5 162q34.5 42 34.5 102t-34.5 102t-89.5 42q-57 0 -86.5 -41t-29.5 -103t29.5 -103t86.5 -41q55 0 89.5 42z" />
    <glyph glyph-name="adieresis.ss01" horiz-adv-x="624" 
d="M136 712h136v-120h-136v120zM352 712h136v-120h-136v120zM416 0v19q0 17 12 43q10 20 10 28t-8 11l-3 1q-7 0 -10.5 -7t-4.5 -8q-25 -49 -66.5 -76t-99.5 -27q-71 0 -123 37t-79.5 100.5t-27.5 142.5t27.5 142.5t79.5 100.5t123 37q108 0 166 -102q5 -9 10 -14t13 -1
q6 3 6 8q0 7 -6 18t-8 15q-11 22 -11 44v16h160v-528h-160zM381.5 162q34.5 42 34.5 102t-34.5 102t-89.5 42q-57 0 -86.5 -41t-29.5 -103t29.5 -103t86.5 -41q55 0 89.5 42z" />
    <glyph glyph-name="agrave.ss01" horiz-adv-x="624" 
d="M288 592l-112 152h128l80 -152h-96zM416 0v19q0 17 12 43q10 20 10 28t-8 11l-3 1q-7 0 -10.5 -7t-4.5 -8q-25 -49 -66.5 -76t-99.5 -27q-71 0 -123 37t-79.5 100.5t-27.5 142.5t27.5 142.5t79.5 100.5t123 37q108 0 166 -102q5 -9 10 -14t13 -1q6 3 6 8q0 7 -6 18t-8 15
q-11 22 -11 44v16h160v-528h-160zM381.5 162q34.5 42 34.5 102t-34.5 102t-89.5 42q-57 0 -86.5 -41t-29.5 -103t29.5 -103t86.5 -41q55 0 89.5 42z" />
    <glyph glyph-name="amacron.ss01" horiz-adv-x="624" 
d="M128 608v96h368v-96h-368zM416 0v19q0 17 12 43q10 20 10 28t-8 11l-3 1q-7 0 -10.5 -7t-4.5 -8q-25 -49 -66.5 -76t-99.5 -27q-71 0 -123 37t-79.5 100.5t-27.5 142.5t27.5 142.5t79.5 100.5t123 37q108 0 166 -102q5 -9 10 -14t13 -1q6 3 6 8q0 7 -6 18t-8 15
q-11 22 -11 44v16h160v-528h-160zM381.5 162q34.5 42 34.5 102t-34.5 102t-89.5 42q-57 0 -86.5 -41t-29.5 -103t29.5 -103t86.5 -41q55 0 89.5 42z" />
    <glyph glyph-name="aogonek.ss01" horiz-adv-x="624" 
d="M476.5 -19q-36.5 -19 -36.5 -51q0 -27 15 -39.5t42 -15.5t79 -3v-80h-58q-85 0 -125.5 31t-40.5 82q0 32 17.5 62.5t46.5 45.5v6q0 17 12 43q10 20 10 28t-8 11l-3 1q-7 0 -10.5 -7t-4.5 -8q-25 -49 -66.5 -76t-99.5 -27q-71 0 -123 37t-79.5 100.5t-27.5 142.5
t27.5 142.5t79.5 100.5t123 37q108 0 166 -102q5 -9 10 -14t13 -1q6 3 6 8q0 7 -6 18t-8 15q-11 22 -11 44v16h160v-528q-63 0 -99.5 -19zM381.5 162q34.5 42 34.5 102t-34.5 102t-89.5 42q-57 0 -86.5 -41t-29.5 -103t29.5 -103t86.5 -41q55 0 89.5 42z" />
    <glyph glyph-name="aring.ss01" horiz-adv-x="624" 
d="M576 528v-528h-160v19q0 17 12 43q10 20 10 28t-8 11l-3 1q-7 0 -10.5 -7t-4.5 -8q-25 -49 -66.5 -76t-99.5 -27q-71 0 -123 37t-79.5 100.5t-27.5 142.5q0 100 44 174t121 97q-21 35 -21 81q0 42 19 77t53.5 55t79.5 20t79.5 -20t53.5 -55t19 -77q0 -50 -26 -88h138z
M271.5 655.5q-15.5 -16.5 -15.5 -39.5t15.5 -39.5t40.5 -16.5t40.5 16.5t15.5 39.5t-15.5 39.5t-40.5 16.5t-40.5 -16.5zM441 435q0 7 -6 18t-8 15q-9 19 -10 34q-17 -13 -32 -21q15 -18 27 -39q5 -9 10 -14t13 -1q6 3 6 8zM381.5 162q34.5 42 34.5 102t-34.5 102t-89.5 42
q-57 0 -86.5 -41t-29.5 -103t29.5 -103t86.5 -41q55 0 89.5 42z" />
    <glyph glyph-name="aringacute.ss01" horiz-adv-x="624" 
d="M456 952l-112 -152h-96l80 152h128zM576 528v-528h-160v19q0 17 12 43q10 20 10 28t-8 11l-3 1q-7 0 -10.5 -7t-4.5 -8q-25 -49 -66.5 -76t-99.5 -27q-71 0 -123 37t-79.5 100.5t-27.5 142.5q0 100 44 174t121 97q-21 35 -21 81q0 42 19 77t53.5 55t79.5 20t79.5 -20
t53.5 -55t19 -77q0 -50 -26 -88h138zM271.5 655.5q-15.5 -16.5 -15.5 -39.5t15.5 -39.5t40.5 -16.5t40.5 16.5t15.5 39.5t-15.5 39.5t-40.5 16.5t-40.5 -16.5zM441 435q0 7 -6 18t-8 15q-9 19 -10 34q-17 -13 -32 -21q15 -18 27 -39q5 -9 10 -14t13 -1q6 3 6 8zM381.5 162
q34.5 42 34.5 102t-34.5 102t-89.5 42q-57 0 -86.5 -41t-29.5 -103t29.5 -103t86.5 -41q55 0 89.5 42z" />
    <glyph glyph-name="atilde.ss01" horiz-adv-x="624" 
d="M477 628q-37 -36 -93 -36q-21 0 -39.5 7.5t-43.5 21.5q-3 2 -14.5 8t-20.5 9t-16 3q-27 0 -46 -41h-92q14 56 51 92t93 36q21 0 39.5 -7.5t43.5 -21.5q3 -2 14.5 -8t20.5 -9t16 -3q27 0 46 41h92q-14 -56 -51 -92zM416 0v19q0 17 12 43q10 20 10 28t-8 11l-3 1
q-7 0 -10.5 -7t-4.5 -8q-25 -49 -66.5 -76t-99.5 -27q-71 0 -123 37t-79.5 100.5t-27.5 142.5t27.5 142.5t79.5 100.5t123 37q108 0 166 -102q5 -9 10 -14t13 -1q6 3 6 8q0 7 -6 18t-8 15q-11 22 -11 44v16h160v-528h-160zM381.5 162q34.5 42 34.5 102t-34.5 102t-89.5 42
q-57 0 -86.5 -41t-29.5 -103t29.5 -103t86.5 -41q55 0 89.5 42z" />
    <glyph glyph-name="ae.ss01" horiz-adv-x="976" 
d="M43.5 406.5q27.5 63.5 79.5 100.5t123 37q108 0 166 -102q5 -9 10 -14t13 -1q6 3 6 8q0 7 -6 18t-8 15q-11 22 -11 44v16h160v-16q0 -22 -11 -44q-2 -4 -8 -15t-6 -18q0 -5 6 -8q2 -1 6 -1q9 0 17 16q58 102 166 102q53 -1 102.5 -30t80.5 -88.5t31 -145.5q0 -33 -3 -56
h-377q10 -48 41.5 -80t76.5 -32q36 0 59.5 17t33.5 47h159q-17 -82 -69.5 -137t-134.5 -55q-58 0 -99.5 27t-66.5 76q-4 8 -8 12t-10 2q-8 -3 -8 -11t10 -28q12 -26 12 -43v-19h-160v19q0 17 12 43q10 20 10 28t-8 11l-3 1q-7 0 -10.5 -7t-4.5 -8q-25 -49 -66.5 -76
t-99.5 -27q-71 0 -123 37t-79.5 100.5t-27.5 142.5t27.5 142.5zM771 394q-28 26 -73 26q-41 0 -71 -28t-43 -72h219q-4 48 -32 74zM205.5 161q29.5 -41 86.5 -41q55 0 89.5 42t34.5 102t-34.5 102t-89.5 42q-57 0 -86.5 -41t-29.5 -103t29.5 -103z" />
    <glyph glyph-name="aeacute.ss01" horiz-adv-x="976" 
d="M520 744h128l-112 -152h-96zM43.5 406.5q27.5 63.5 79.5 100.5t123 37q108 0 166 -102q5 -9 10 -14t13 -1q6 3 6 8q0 7 -6 18t-8 15q-11 22 -11 44v16h160v-16q0 -22 -11 -44q-2 -4 -8 -15t-6 -18q0 -5 6 -8q2 -1 6 -1q9 0 17 16q58 102 166 102q53 -1 102.5 -30
t80.5 -88.5t31 -145.5q0 -33 -3 -56h-377q10 -48 41.5 -80t76.5 -32q36 0 59.5 17t33.5 47h159q-17 -82 -69.5 -137t-134.5 -55q-58 0 -99.5 27t-66.5 76q-4 8 -8 12t-10 2q-8 -3 -8 -11t10 -28q12 -26 12 -43v-19h-160v19q0 17 12 43q10 20 10 28t-8 11l-3 1q-7 0 -10.5 -7
t-4.5 -8q-25 -49 -66.5 -76t-99.5 -27q-71 0 -123 37t-79.5 100.5t-27.5 142.5t27.5 142.5zM771 394q-28 26 -73 26q-41 0 -71 -28t-43 -72h219q-4 48 -32 74zM205.5 161q29.5 -41 86.5 -41q55 0 89.5 42t34.5 102t-34.5 102t-89.5 42q-57 0 -86.5 -41t-29.5 -103t29.5 -103
z" />
    <glyph glyph-name="zero.tf" horiz-adv-x="640" 
d="M469 672.5q69 -47.5 104 -130.5t35 -190t-35 -190t-104 -130.5t-165 -47.5t-165 47.5t-104 130.5t-35 190t35 190t104 130.5t165 47.5t165 -47.5zM411.5 183q36.5 63 36.5 169t-36.5 169t-107.5 63t-107.5 -63t-36.5 -169t36.5 -169t107.5 -63t107.5 63z" />
    <glyph glyph-name="one.tf" horiz-adv-x="640" 
d="M600 128v-128h-512v128h176v332h-176v112h16q79 0 114 11.5t46.5 35.5t23.5 85h136v-576h176z" />
    <glyph glyph-name="two.tf" horiz-adv-x="640" 
d="M156 225q100 56 152 90t84 74.5t32 91.5q0 48 -30 71.5t-82 23.5q-51 0 -82 -30.5t-31 -96.5h-159q0 75 31.5 136.5t93 98t147.5 36.5t147 -31.5t93 -85.5t32 -122q0 -80 -43.5 -140t-102.5 -98.5t-144 -81.5l-47 -25q-20 -11 -13 -22q4 -6 10 -6q7 0 17 6q22 12 44 17
t59 5h236v-136h-560v160q51 30 116 65z" />
    <glyph glyph-name="three.tf" horiz-adv-x="640" 
d="M227.5 153.5q31.5 -29.5 94.5 -29.5q56 0 87 22.5t31 64.5q0 49 -61 71t-163 22v112q90 0 149 22.5t59 70.5q0 36 -27.5 53.5t-72.5 17.5q-54 0 -83 -24.5t-29 -67.5h-156q0 66 32.5 118.5t92.5 83t140 30.5q83 0 142.5 -24.5t90 -68t30.5 -99.5q0 -48 -28.5 -88
t-77.5 -56q-10 -3 -14.5 -6.5t-4.5 -13.5q0 -9 5 -12.5t15 -5.5q61 -16 91 -57.5t30 -93.5q0 -56 -29.5 -104t-91.5 -77.5t-155 -29.5q-138 0 -211 66t-73 182h156q0 -49 31.5 -78.5z" />
    <glyph glyph-name="four.tf" horiz-adv-x="640" 
d="M24 288l276 416h220v-432h96v-136h-96v-136h-160v136h-336v152zM161 241q0 -7 7 -11q6 -2 7 -2q7 0 12 5.5t6 6.5q12 17 27 24.5t42 7.5h98v211q0 32 14 63q10 20 10 28t-6 10q-2 1 -5 1q-10 0 -17 -14l-189 -314q-6 -10 -6 -16z" />
    <glyph glyph-name="five.tf" horiz-adv-x="640" 
d="M289.5 467.5q36.5 11.5 76.5 11.5q60 0 114 -27t87 -81t33 -131q0 -70 -33 -128.5t-97 -93t-152 -34.5q-86 0 -149 30.5t-96 84.5t-33 125h156q0 -42 29 -69t91 -27q59 0 91.5 29t32.5 79t-30.5 79.5t-92.5 29.5q-38 0 -62.5 -9.5t-49.5 -31.5h-149l48 400h433v-144h-304
l-5 -47q-3 -25 -13 -45q-3 -6 -11 -17.5t-8 -16.5q0 -3 5 -8q4 -2 5 -2q5 0 10.5 4.5t6.5 5.5q30 22 66.5 33.5z" />
    <glyph glyph-name="six.tf" horiz-adv-x="656" 
d="M339 720q76 0 134 -28.5t90 -74.5t36 -99h-156q-9 29 -32.5 45.5t-74.5 16.5q-62 0 -87.5 -27t-34.5 -75q-3 -14 -8 -26q-4 -9 -12 -19q-1 -1 -5.5 -7.5t-4.5 -11.5q0 -4 4 -7q2 -2 6 -2q6 0 15 12q21 27 65.5 45t98.5 18q73 0 128.5 -31.5t85 -86t29.5 -122.5
q0 -70 -37.5 -129t-103.5 -93t-147 -34q-136 0 -212 86.5t-76 239.5q0 410 299 410zM233 159.5q33 -31.5 95 -31.5t95 31.5t33 80.5q0 52 -32.5 82t-95.5 30q-62 0 -95 -31.5t-33 -80.5t33 -80.5z" />
    <glyph glyph-name="seven.tf" horiz-adv-x="640" 
d="M584 576q-93 -83 -145 -176t-72 -189t-23 -211h-176q12 119 35 215t71.5 184t128.5 158q20 17 11 27q-3 4 -8 4t-11 -4t-9 -5q-11 -7 -26.5 -9t-42.5 -2h-117v-96h-144v232h528v-128z" />
    <glyph glyph-name="eight.tf" horiz-adv-x="656" 
d="M596 286.5q28 -41.5 28 -90.5q0 -60 -35 -108.5t-102 -76t-159 -27.5t-159 27.5t-102 76t-35 108.5q0 49 28 90.5t78 61.5q12 5 17 8.5t5 13.5q0 9 -4.5 13t-9.5 6t-7 3q-45 20 -68 56.5t-23 79.5q0 48 32 92.5t95.5 72t152.5 27.5t152.5 -27.5t95.5 -72t32 -92.5
q0 -43 -23 -79.5t-68 -56.5q-2 -1 -8 -3.5t-9.5 -7t-3.5 -11.5q0 -10 5 -13.5t17 -8.5q50 -20 78 -61.5zM237 563q-29 -21 -29 -55t29 -55t91 -21t91 21t29 55t-29 55t-91 21t-91 -21zM430.5 145.5q33.5 25.5 33.5 66.5t-33.5 66.5t-102.5 25.5t-102.5 -25.5t-33.5 -66.5
t33.5 -66.5t102.5 -25.5t102.5 25.5z" />
    <glyph glyph-name="nine.tf" horiz-adv-x="640" 
d="M317 -16q-76 0 -134 28.5t-90 74.5t-36 99h156q9 -29 32.5 -45.5t74.5 -16.5q62 0 87.5 27t34.5 75q3 14 8 26q4 9 12 19q1 1 5.5 7.5t4.5 11.5q0 4 -4 7q-2 2 -6 2q-6 0 -15 -12q-21 -27 -65.5 -45t-98.5 -18q-73 0 -128.5 31.5t-85 86t-29.5 122.5q0 70 37.5 129
t103.5 93t147 34q136 0 212 -86.5t76 -239.5q0 -410 -299 -410zM423 544.5q-33 31.5 -95 31.5t-95 -31.5t-33 -80.5q0 -52 32.5 -82t95.5 -30q62 0 95 31.5t33 80.5t-33 80.5z" />
    <glyph glyph-name="zero.tf.zero" horiz-adv-x="640" 
d="M485 672.5q69 -47.5 104 -130.5t35 -190t-35 -190t-104 -130.5t-165 -47.5t-165 47.5t-104 130.5t-35 190t35 190t104 130.5t165 47.5t165 -47.5zM212.5 521q-36.5 -63 -36.5 -169q0 -57 10 -100l237 276q-37 56 -103 56q-71 0 -107.5 -63zM427.5 183q36.5 63 36.5 169
q0 58 -10 101l-237 -276q36 -57 103 -57q71 0 107.5 63z" />
    <glyph glyph-name="zero.zero" horiz-adv-x="672" 
d="M501 672.5q69 -47.5 104 -130.5t35 -190t-35 -190t-104 -130.5t-165 -47.5t-165 47.5t-104 130.5t-35 190t35 190t104 130.5t165 47.5t165 -47.5zM228.5 521q-36.5 -63 -36.5 -169q0 -57 10 -100l237 276q-37 56 -103 56q-71 0 -107.5 -63zM443.5 183q36.5 63 36.5 169
q0 58 -10 101l-237 -276q36 -57 103 -57q71 0 107.5 63z" />
    <glyph glyph-name="zero.subs" horiz-adv-x="376" 
d="M296.5 60.5q39.5 -51.5 39.5 -132.5t-39.5 -132.5t-108.5 -51.5q-68 0 -108 51.5t-40 132.5t40 132.5t108 51.5q69 0 108.5 -51.5zM226.5 -147.5q13.5 28.5 13.5 75.5q0 48 -13.5 76t-38.5 28t-38.5 -28t-13.5 -76q0 -47 13.5 -75.5t38.5 -28.5t38.5 28.5z" />
    <glyph glyph-name="one.subs" horiz-adv-x="264" 
d="M184 104v-352h-96v226h-80v60q40 0 57 5.5t23 18t12 42.5h84z" />
    <glyph glyph-name="two.subs" horiz-adv-x="360" 
d="M90 -130q51 27 76.5 42.5t41.5 35t16 45.5q0 21 -13 32t-35 11q-21 0 -34.5 -14.5t-13.5 -44.5h-96q0 58 37.5 96.5t106.5 38.5t106.5 -33t37.5 -86q0 -39 -21.5 -68t-51 -47t-71.5 -37q-10 -4 -28 -13q-11 -4 -7 -12q5 -8 14 -1q14 7 25.5 10t29.5 3h118v-76h-296v88
q20 11 58 30z" />
    <glyph glyph-name="three.subs" horiz-adv-x="360" 
d="M181 -182q25 0 38 11t13 29q0 24 -28 33t-80 9v64q100 0 100 43q0 16 -11.5 24.5t-30.5 8.5q-48 0 -48 -44h-94q0 50 39.5 83t101.5 33q64 0 101.5 -26.5t37.5 -69.5q0 -25 -14.5 -45t-40.5 -25q-13 -3 -13 -12q0 -7 14 -11q31 -8 46.5 -28t15.5 -45q0 -44 -37.5 -75
t-108.5 -31q-70 0 -110 33.5t-40 90.5h94q0 -50 55 -50z" />
    <glyph glyph-name="four.subs" horiz-adv-x="376" 
d="M32 -100l138 204h126v-212h48v-76h-48v-64h-96v64h-168v84zM107 -130q1 -1 3 -1q4 0 12 8q7 8 13.5 11.5t19.5 3.5h45v94q0 14 10 32q9 15 1 19h-2q-6 0 -11 -7l-92 -145q-7 -11 1 -15z" />
    <glyph glyph-name="five.subs" horiz-adv-x="360" 
d="M207 -14q51 0 86 -28.5t35 -85.5q0 -54 -40 -91t-109 -37q-66 0 -106.5 33.5t-40.5 86.5h94q0 -19 14 -31.5t38 -12.5q25 0 39.5 13.5t14.5 36.5q0 24 -13 38.5t-37 14.5q-18 0 -29.5 -6t-22.5 -19h-93l27 206h233v-76h-161l-2 -19q-1 -15 -12 -27q-2 -2 -6 -6.5
t-4.5 -7.5t2.5 -6q1 -1 4 -1q4 0 8.5 3.5t5.5 4.5q34 17 75 17z" />
    <glyph glyph-name="six.subs" horiz-adv-x="368" 
d="M69 56.5q37 55.5 121 55.5q60 0 97.5 -30t40.5 -71h-94q-4 15 -14.5 23t-31.5 8q-27 0 -36.5 -11.5t-14.5 -35.5q-1 -7 -8 -16q-2 -3 -6 -8t-5 -8.5t2 -5.5q1 -1 4 -1q4 0 9 5q31 31 74 31q61 0 95 -33.5t34 -86.5q0 -35 -20 -64.5t-54.5 -46.5t-77.5 -17
q-71 0 -111.5 43.5t-40.5 119.5q0 94 37 149.5zM142.5 -168q14.5 -16 41.5 -16t41.5 15.5t14.5 40.5q0 26 -14 41t-42 15q-27 0 -41.5 -16t-14.5 -40t14.5 -40z" />
    <glyph glyph-name="seven.subs" horiz-adv-x="328" 
d="M219.5 -89q-24.5 -69 -27.5 -159h-104q10 93 33 157t81 114q11 9 6 15q-1 2 -5 2q-3 0 -11 -5q-13 -7 -33 -7h-127v76h280v-64q-68 -60 -92.5 -129z" />
    <glyph glyph-name="eight.subs" horiz-adv-x="376" 
d="M329 -106q15 -20 15 -44q0 -47 -41 -76.5t-115 -29.5t-115 29.5t-41 76.5q0 24 15.5 44t41.5 31q11 4 11 12q0 5 -3.5 8t-7.5 4q-23 9 -36 27.5t-13 39.5q0 39 38.5 67.5t109.5 28.5q72 0 110 -28.5t38 -67.5q0 -20 -13 -37.5t-36 -29.5q-1 0 -6 -2.5t-5 -9.5t12 -12
q26 -11 41 -31zM136 5q0 -16 12.5 -25.5t39.5 -9.5t39.5 9.5t12.5 25.5q0 35 -52 35t-52 -35zM233.5 -172q14.5 12 14.5 31t-14.5 31t-45.5 12t-45.5 -12t-14.5 -31t14.5 -31t45.5 -12t45.5 12z" />
    <glyph glyph-name="nine.subs" horiz-adv-x="368" 
d="M299 -200.5q-37 -55.5 -121 -55.5q-60 0 -97.5 30t-40.5 71h94q4 -15 14.5 -23t31.5 -8q27 0 36.5 11.5t14.5 35.5q1 7 8 16q2 3 6 8t5 8.5t-2 5.5q-1 1 -4 1q-4 0 -9 -5q-31 -31 -74 -31q-61 0 -95 33.5t-34 86.5q0 35 20 64.5t54.5 46.5t77.5 17q71 0 111.5 -43.5
t40.5 -119.5q0 -94 -37 -149.5zM225.5 24q-14.5 16 -41.5 16t-41.5 -15.5t-14.5 -40.5q0 -26 14 -41t42 -15q27 0 41.5 16t14.5 40t-14.5 40z" />
    <glyph glyph-name="zero.dnom" horiz-adv-x="376" 
d="M296.5 308.5q39.5 -51.5 39.5 -132.5t-39.5 -132.5t-108.5 -51.5q-68 0 -108 51.5t-40 132.5t40 132.5t108 51.5q69 0 108.5 -51.5zM226.5 100.5q13.5 28.5 13.5 75.5q0 48 -13.5 76t-38.5 28t-38.5 -28t-13.5 -76q0 -47 13.5 -75.5t38.5 -28.5t38.5 28.5z" />
    <glyph glyph-name="one.dnom" horiz-adv-x="264" 
d="M184 352v-352h-96v226h-80v60q40 0 57 5.5t23 18t12 42.5h84z" />
    <glyph glyph-name="two.dnom" horiz-adv-x="360" 
d="M90 118q51 27 76.5 42.5t41.5 35t16 45.5q0 21 -13 32t-35 11q-21 0 -34.5 -14.5t-13.5 -44.5h-96q0 58 37.5 96.5t106.5 38.5t106.5 -33t37.5 -86q0 -39 -21.5 -68t-51 -47t-71.5 -37q-10 -4 -28 -13q-11 -4 -7 -12q5 -8 14 -1q14 7 25.5 10t29.5 3h118v-76h-296v88
q20 11 58 30z" />
    <glyph glyph-name="three.dnom" horiz-adv-x="360" 
d="M181 66q25 0 38 11t13 29q0 24 -28 33t-80 9v64q100 0 100 43q0 16 -11.5 24.5t-30.5 8.5q-48 0 -48 -44h-94q0 50 39.5 83t101.5 33q64 0 101.5 -26.5t37.5 -69.5q0 -25 -14.5 -45t-40.5 -25q-13 -3 -13 -12q0 -7 14 -11q31 -8 46.5 -28t15.5 -45q0 -44 -37.5 -75
t-108.5 -31q-70 0 -110 33.5t-40 90.5h94q0 -50 55 -50z" />
    <glyph glyph-name="four.dnom" horiz-adv-x="376" 
d="M32 148l138 204h126v-212h48v-76h-48v-64h-96v64h-168v84zM107 118q1 -1 3 -1q4 0 12 8q7 8 13.5 11.5t19.5 3.5h45v94q0 14 10 32q9 15 1 19h-2q-6 0 -11 -7l-92 -145q-7 -11 1 -15z" />
    <glyph glyph-name="five.dnom" horiz-adv-x="360" 
d="M207 234q51 0 86 -28.5t35 -85.5q0 -54 -40 -91t-109 -37q-66 0 -106.5 33.5t-40.5 86.5h94q0 -19 14 -31.5t38 -12.5q25 0 39.5 13.5t14.5 36.5q0 24 -13 38.5t-37 14.5q-18 0 -29.5 -6t-22.5 -19h-93l27 206h233v-76h-161l-2 -19q-1 -15 -12 -27q-2 -2 -6 -6.5
t-4.5 -7.5t2.5 -6q1 -1 4 -1q4 0 8.5 3.5t5.5 4.5q34 17 75 17z" />
    <glyph glyph-name="six.dnom" horiz-adv-x="368" 
d="M69 304.5q37 55.5 121 55.5q60 0 97.5 -30t40.5 -71h-94q-4 15 -14.5 23t-31.5 8q-27 0 -36.5 -11.5t-14.5 -35.5q-1 -7 -8 -16q-2 -3 -6 -8t-5 -8.5t2 -5.5q1 -1 4 -1q4 0 9 5q31 31 74 31q61 0 95 -33.5t34 -86.5q0 -35 -20 -64.5t-54.5 -46.5t-77.5 -17
q-71 0 -111.5 43.5t-40.5 119.5q0 94 37 149.5zM142.5 80q14.5 -16 41.5 -16t41.5 15.5t14.5 40.5q0 26 -14 41t-42 15q-27 0 -41.5 -16t-14.5 -40t14.5 -40z" />
    <glyph glyph-name="seven.dnom" horiz-adv-x="328" 
d="M219.5 159q-24.5 -69 -27.5 -159h-104q10 93 33 157t81 114q11 9 6 15q-1 2 -5 2q-3 0 -11 -5q-13 -7 -33 -7h-127v76h280v-64q-68 -60 -92.5 -129z" />
    <glyph glyph-name="eight.dnom" horiz-adv-x="376" 
d="M329 142q15 -20 15 -44q0 -47 -41 -76.5t-115 -29.5t-115 29.5t-41 76.5q0 24 15.5 44t41.5 31q11 4 11 12q0 5 -3.5 8t-7.5 4q-23 9 -36 27.5t-13 39.5q0 39 38.5 67.5t109.5 28.5q72 0 110 -28.5t38 -67.5q0 -20 -13 -37.5t-36 -29.5q-1 0 -6 -2.5t-5 -9.5t12 -12
q26 -11 41 -31zM136 253q0 -16 12.5 -25.5t39.5 -9.5t39.5 9.5t12.5 25.5q0 35 -52 35t-52 -35zM233.5 76q14.5 12 14.5 31t-14.5 31t-45.5 12t-45.5 -12t-14.5 -31t14.5 -31t45.5 -12t45.5 12z" />
    <glyph glyph-name="nine.dnom" horiz-adv-x="368" 
d="M299 47.5q-37 -55.5 -121 -55.5q-60 0 -97.5 30t-40.5 71h94q4 -15 14.5 -23t31.5 -8q27 0 36.5 11.5t14.5 35.5q1 7 8 16q2 3 6 8t5 8.5t-2 5.5q-1 1 -4 1q-4 0 -9 -5q-31 -31 -74 -31q-61 0 -95 33.5t-34 86.5q0 35 20 64.5t54.5 46.5t77.5 17q71 0 111.5 -43.5
t40.5 -119.5q0 -94 -37 -149.5zM225.5 272q-14.5 16 -41.5 16t-41.5 -15.5t-14.5 -40.5q0 -26 14 -41t42 -15q27 0 41.5 16t14.5 40t-14.5 40z" />
    <glyph glyph-name="zero.numr" horiz-adv-x="376" 
d="M296.5 660.5q39.5 -51.5 39.5 -132.5t-39.5 -132.5t-108.5 -51.5q-68 0 -108 51.5t-40 132.5t40 132.5t108 51.5q69 0 108.5 -51.5zM226.5 452.5q13.5 28.5 13.5 75.5q0 48 -13.5 76t-38.5 28t-38.5 -28t-13.5 -76q0 -47 13.5 -75.5t38.5 -28.5t38.5 28.5z" />
    <glyph glyph-name="one.numr" horiz-adv-x="264" 
d="M184 704v-352h-96v226h-80v60q40 0 57 5.5t23 18t12 42.5h84z" />
    <glyph glyph-name="two.numr" horiz-adv-x="360" 
d="M90 470q51 27 76.5 42.5t41.5 35t16 45.5q0 21 -13 32t-35 11q-21 0 -34.5 -14.5t-13.5 -44.5h-96q0 58 37.5 96.5t106.5 38.5t106.5 -33t37.5 -86q0 -39 -21.5 -68t-51 -47t-71.5 -37q-10 -4 -28 -13q-11 -4 -7 -12q5 -8 14 -1q14 7 25.5 10t29.5 3h118v-76h-296v88
q20 11 58 30z" />
    <glyph glyph-name="three.numr" horiz-adv-x="360" 
d="M181 418q25 0 38 11t13 29q0 24 -28 33t-80 9v64q100 0 100 43q0 16 -11.5 24.5t-30.5 8.5q-48 0 -48 -44h-94q0 50 39.5 83t101.5 33q64 0 101.5 -26.5t37.5 -69.5q0 -25 -14.5 -45t-40.5 -25q-13 -3 -13 -12q0 -7 14 -11q31 -8 46.5 -28t15.5 -45q0 -44 -37.5 -75
t-108.5 -31q-70 0 -110 33.5t-40 90.5h94q0 -50 55 -50z" />
    <glyph glyph-name="four.numr" horiz-adv-x="376" 
d="M32 500l138 204h126v-212h48v-76h-48v-64h-96v64h-168v84zM107 470q1 -1 3 -1q4 0 12 8q7 8 13.5 11.5t19.5 3.5h45v94q0 14 10 32q9 15 1 19h-2q-6 0 -11 -7l-92 -145q-7 -11 1 -15z" />
    <glyph glyph-name="five.numr" horiz-adv-x="360" 
d="M207 586q51 0 86 -28.5t35 -85.5q0 -54 -40 -91t-109 -37q-66 0 -106.5 33.5t-40.5 86.5h94q0 -19 14 -31.5t38 -12.5q25 0 39.5 13.5t14.5 36.5q0 24 -13 38.5t-37 14.5q-18 0 -29.5 -6t-22.5 -19h-93l27 206h233v-76h-161l-2 -19q-1 -15 -12 -27q-2 -2 -6 -6.5
t-4.5 -7.5t2.5 -6q1 -1 4 -1q4 0 8.5 3.5t5.5 4.5q34 17 75 17z" />
    <glyph glyph-name="six.numr" horiz-adv-x="368" 
d="M69 656.5q37 55.5 121 55.5q60 0 97.5 -30t40.5 -71h-94q-4 15 -14.5 23t-31.5 8q-27 0 -36.5 -11.5t-14.5 -35.5q-1 -7 -8 -16q-2 -3 -6 -8t-5 -8.5t2 -5.5q1 -1 4 -1q4 0 9 5q31 31 74 31q61 0 95 -33.5t34 -86.5q0 -35 -20 -64.5t-54.5 -46.5t-77.5 -17
q-71 0 -111.5 43.5t-40.5 119.5q0 94 37 149.5zM142.5 432q14.5 -16 41.5 -16t41.5 15.5t14.5 40.5q0 26 -14 41t-42 15q-27 0 -41.5 -16t-14.5 -40t14.5 -40z" />
    <glyph glyph-name="seven.numr" horiz-adv-x="328" 
d="M219.5 511q-24.5 -69 -27.5 -159h-104q10 93 33 157t81 114q11 9 6 15q-1 2 -5 2q-3 0 -11 -5q-13 -7 -33 -7h-127v76h280v-64q-68 -60 -92.5 -129z" />
    <glyph glyph-name="eight.numr" horiz-adv-x="376" 
d="M329 494q15 -20 15 -44q0 -47 -41 -76.5t-115 -29.5t-115 29.5t-41 76.5q0 24 15.5 44t41.5 31q11 4 11 12q0 5 -3.5 8t-7.5 4q-23 9 -36 27.5t-13 39.5q0 39 38.5 67.5t109.5 28.5q72 0 110 -28.5t38 -67.5q0 -20 -13 -37.5t-36 -29.5q-1 0 -6 -2.5t-5 -9.5t12 -12
q26 -11 41 -31zM136 605q0 -16 12.5 -25.5t39.5 -9.5t39.5 9.5t12.5 25.5q0 35 -52 35t-52 -35zM233.5 428q14.5 12 14.5 31t-14.5 31t-45.5 12t-45.5 -12t-14.5 -31t14.5 -31t45.5 -12t45.5 12z" />
    <glyph glyph-name="nine.numr" horiz-adv-x="368" 
d="M299 399.5q-37 -55.5 -121 -55.5q-60 0 -97.5 30t-40.5 71h94q4 -15 14.5 -23t31.5 -8q27 0 36.5 11.5t14.5 35.5q1 7 8 16q2 3 6 8t5 8.5t-2 5.5q-1 1 -4 1q-4 0 -9 -5q-31 -31 -74 -31q-61 0 -95 33.5t-34 86.5q0 35 20 64.5t54.5 46.5t77.5 17q71 0 111.5 -43.5
t40.5 -119.5q0 -94 -37 -149.5zM225.5 624q-14.5 16 -41.5 16t-41.5 -15.5t-14.5 -40.5q0 -26 14 -41t42 -15q27 0 41.5 16t14.5 40t-14.5 40z" />
    <glyph glyph-name="exclam.case" horiz-adv-x="272" 
d="M214.5 461q-1.5 -65 -7.5 -106.5t-23 -114.5h-96q-17 73 -23 114.5t-7.5 106.5t-1.5 243h160q0 -178 -1.5 -243zM48 176h176v-176h-176v176z" />
    <glyph glyph-name="exclamdown.case" horiz-adv-x="272" 
d="M48 704h176v-176h-176v176zM57.5 243q1.5 65 7.5 106.5t23 114.5h96q17 -73 23 -114.5t7.5 -106.5t1.5 -243h-160q0 178 1.5 243z" />
    <glyph glyph-name="question.case" horiz-adv-x="544" 
d="M403.5 692q54.5 -28 81.5 -72.5t27 -95.5q0 -43 -15 -75.5t-37.5 -55t-57.5 -49.5q-6 -4 -25.5 -19t-30 -35.5t-10.5 -49.5h-128q0 47 8 73.5t32 58.5q15 20 49 50q28 26 41.5 44.5t13.5 43.5q0 31 -20.5 52.5t-60.5 21.5q-39 0 -66 -22t-27 -67q0 -14 3 -29h-146
q-3 21 -3 42q0 64 30.5 112t84.5 74t124 26q78 0 132.5 -28zM360 176v-176h-176v176h176z" />
    <glyph glyph-name="questiondown.case" horiz-adv-x="544" 
d="M184 704h176v-176h-176v176zM140.5 12q-54.5 28 -81.5 72.5t-27 95.5q0 43 15 75.5t37.5 55t57.5 49.5q6 4 25.5 19t30 35.5t10.5 49.5h128q0 -47 -8 -73.5t-32 -58.5q-15 -20 -49 -50q-28 -26 -41.5 -44.5t-13.5 -43.5q0 -31 20.5 -52.5t60.5 -21.5q39 0 66 22t27 67
q0 14 -3 29h146q3 -21 3 -42q0 -64 -30.5 -112t-84.5 -74t-124 -26q-78 0 -132.5 28z" />
    <glyph glyph-name="parenleft.case" horiz-adv-x="288" 
d="M176.5 612.5q-40.5 -110.5 -40.5 -260.5t40.5 -260.5t111.5 -219.5h-106q-71 98 -110.5 221t-39.5 259t39.5 259t110.5 221h106q-71 -109 -111.5 -219.5z" />
    <glyph glyph-name="parenright.case" horiz-adv-x="288" 
d="M216.5 611q39.5 -123 39.5 -259t-39.5 -259t-110.5 -221h-106q71 109 111.5 219.5t40.5 260.5t-40.5 260.5t-111.5 219.5h106q71 -98 110.5 -221z" />
    <glyph glyph-name="braceleft.case" horiz-adv-x="336" 
d="M145.5 -109.5q-49.5 34.5 -49.5 115.5v218q0 29 -16.5 46t-47.5 18v128q31 1 47.5 18t16.5 46v218q0 81 49.5 115.5t158.5 34.5v-96q-57 0 -80.5 -14t-23.5 -56v-184q0 -51 -16.5 -82.5t-45.5 -44.5q-1 -1 -7 -3t-9.5 -6t-3.5 -10q0 -7 4.5 -11t9.5 -5.5t6 -2.5
q29 -13 45.5 -44.5t16.5 -82.5v-184q0 -42 23.5 -56t80.5 -14v-96q-109 0 -158.5 34.5z" />
    <glyph glyph-name="braceright.case" horiz-adv-x="336" 
d="M96.5 -34q23.5 14 23.5 56v184q0 51 16.5 82.5t45.5 44.5q1 1 7 3t9.5 6t3.5 10q0 7 -4.5 11t-9.5 5.5t-6 2.5q-29 13 -45.5 44.5t-16.5 82.5v184q0 42 -23.5 56t-80.5 14v96q109 0 158.5 -34.5t49.5 -115.5v-218q0 -29 16.5 -46t47.5 -18v-128q-31 -1 -47.5 -18
t-16.5 -46v-218q0 -81 -49.5 -115.5t-158.5 -34.5v96q57 0 80.5 14z" />
    <glyph glyph-name="bracketleft.case" horiz-adv-x="256" 
d="M136 -32h104v-96h-208v960h208v-96h-104v-768z" />
    <glyph glyph-name="bracketright.case" horiz-adv-x="256" 
d="M16 736v96h208v-960h-208v96h104v768h-104z" />
    <glyph glyph-name="hyphen.case" horiz-adv-x="384" 
d="M32 304v96h320v-96h-320z" />
    <glyph glyph-name="endash.case" horiz-adv-x="528" 
d="M32 304v96h464v-96h-464z" />
    <glyph glyph-name="emdash.case" horiz-adv-x="656" 
d="M32 304v96h592v-96h-592z" />
    <glyph glyph-name="guillemotleft.case" horiz-adv-x="592" 
d="M320 576l-188 -224l188 -224h-116l-188 224l188 224h116zM560 576l-188 -224l188 -224h-116l-188 224l188 224h116z" />
    <glyph glyph-name="guillemotright.case" horiz-adv-x="592" 
d="M388 576l188 -224l-188 -224h-116l188 224l-188 224h116zM148 576l188 -224l-188 -224h-116l188 224l-188 224h116z" />
    <glyph glyph-name="guilsinglleft.case" horiz-adv-x="352" 
d="M320 576l-188 -224l188 -224h-116l-188 224l188 224h116z" />
    <glyph glyph-name="guilsinglright.case" horiz-adv-x="352" 
d="M148 576l188 -224l-188 -224h-116l188 224l-188 224h116z" />
    <glyph glyph-name="parenleft_one_parenright.dlig" horiz-adv-x="800" 
d="M586.5 671.5q84.5 -48.5 133 -133t48.5 -186.5t-48.5 -186.5t-133 -133t-186.5 -48.5t-186.5 49.5t-133 133.5t-48.5 185q0 102 48.5 186.5t133 133t186.5 48.5t186.5 -48.5zM537.5 116q62.5 36 98.5 98.5t36 137.5t-36 137.5t-98.5 98.5t-137.5 36t-137.5 -36
t-98.5 -98.5t-36 -137.5t36 -137.5t98.5 -98.5t137.5 -36t137.5 36zM345 467.5q17 5.5 23 18t12 42.5h84v-352h-96v226h-80v60q40 0 57 5.5z" />
    <glyph glyph-name="parenleft_two_parenright.dlig" horiz-adv-x="800" 
d="M213.5 33.5q-84.5 49.5 -133 133.5t-48.5 185q0 102 48.5 186.5t133 133t186.5 48.5t186.5 -48.5t133 -133t48.5 -186.5t-48.5 -186.5t-133 -133t-186.5 -48.5t-186.5 49.5zM537.5 116q62.5 36 98.5 98.5t36 137.5t-36 137.5t-98.5 98.5t-137.5 36t-137.5 -36
t-98.5 -98.5t-36 -137.5t36 -137.5t98.5 -98.5t137.5 -36t137.5 36zM310 294q51 27 76.5 42.5t41.5 35t16 45.5q0 21 -13 32t-35 11q-21 0 -34.5 -14.5t-13.5 -44.5h-96q0 58 37.5 96.5t106.5 38.5t106.5 -33t37.5 -86q0 -39 -21.5 -68t-51 -47t-71.5 -37q-10 -4 -28 -13
q-11 -4 -7 -12q5 -8 14 -1q14 7 25.5 10t29.5 3h118v-76h-296v88q20 11 58 30z" />
    <glyph glyph-name="parenleft_three_parenright.dlig" horiz-adv-x="800" 
d="M213.5 33.5q-84.5 49.5 -133 133.5t-48.5 185q0 102 48.5 186.5t133 133t186.5 48.5t186.5 -48.5t133 -133t48.5 -186.5t-48.5 -186.5t-133 -133t-186.5 -48.5t-186.5 49.5zM537.5 116q62.5 36 98.5 98.5t36 137.5t-36 137.5t-98.5 98.5t-137.5 36t-137.5 -36
t-98.5 -98.5t-36 -137.5t36 -137.5t98.5 -98.5t137.5 -36t137.5 36zM401 242q25 0 38 11t13 29q0 24 -28 33t-80 9v64q100 0 100 43q0 16 -11.5 24.5t-30.5 8.5q-48 0 -48 -44h-94q0 50 39.5 83t101.5 33q64 0 101.5 -26.5t37.5 -69.5q0 -25 -14.5 -45t-40.5 -25
q-13 -3 -13 -12q0 -7 14 -11q31 -8 46.5 -28t15.5 -45q0 -44 -37.5 -75t-108.5 -31q-70 0 -110 33.5t-40 90.5h94q0 -50 55 -50z" />
    <glyph glyph-name="parenleft_four_parenright.dlig" horiz-adv-x="800" 
d="M213.5 33.5q-84.5 49.5 -133 133.5t-48.5 185q0 102 48.5 186.5t133 133t186.5 48.5t186.5 -48.5t133 -133t48.5 -186.5t-48.5 -186.5t-133 -133t-186.5 -48.5t-186.5 49.5zM537.5 116q62.5 36 98.5 98.5t36 137.5t-36 137.5t-98.5 98.5t-137.5 36t-137.5 -36
t-98.5 -98.5t-36 -137.5t36 -137.5t98.5 -98.5t137.5 -36t137.5 36zM370 528h126v-212h48v-76h-48v-64h-96v64h-168v84zM307 294q1 -1 3 -1q4 0 12 8q7 8 13.5 11.5t19.5 3.5h45v94q0 14 10 32q9 15 1 19h-2q-6 0 -11 -7l-92 -145q-7 -11 1 -15z" />
    <glyph glyph-name="parenleft_five_parenright.dlig" horiz-adv-x="800" 
d="M586.5 671.5q84.5 -48.5 133 -133t48.5 -186.5t-48.5 -186.5t-133 -133t-186.5 -48.5t-186.5 49.5t-133 133.5t-48.5 185q0 102 48.5 186.5t133 133t186.5 48.5t186.5 -48.5zM537.5 116q62.5 36 98.5 98.5t36 137.5t-36 137.5t-98.5 98.5t-137.5 36t-137.5 -36
t-98.5 -98.5t-36 -137.5t36 -137.5t98.5 -98.5t137.5 -36t137.5 36zM427 410q51 0 86 -28.5t35 -85.5q0 -54 -40 -91t-109 -37q-66 0 -106.5 33.5t-40.5 86.5h94q0 -19 14 -31.5t38 -12.5q25 0 39.5 13.5t14.5 36.5q0 24 -13 38.5t-37 14.5q-18 0 -29.5 -6t-22.5 -19h-93
l27 206h233v-76h-161l-2 -19q-1 -15 -12 -27q-2 -2 -6 -6.5t-4.5 -7.5t2.5 -6q1 -1 4 -1q4 0 8.5 3.5t5.5 4.5q34 17 75 17z" />
    <glyph glyph-name="parenleft_six_parenright.dlig" horiz-adv-x="800" 
d="M213.5 33.5q-84.5 49.5 -133 133.5t-48.5 185q0 102 48.5 186.5t133 133t186.5 48.5t186.5 -48.5t133 -133t48.5 -186.5t-48.5 -186.5t-133 -133t-186.5 -48.5t-186.5 49.5zM537.5 116q62.5 36 98.5 98.5t36 137.5t-36 137.5t-98.5 98.5t-137.5 36t-137.5 -36
t-98.5 -98.5t-36 -137.5t36 -137.5t98.5 -98.5t137.5 -36t137.5 36zM285 480.5q37 55.5 121 55.5q60 0 97.5 -30t40.5 -71h-94q-4 15 -14.5 23t-31.5 8q-27 0 -36.5 -11.5t-14.5 -35.5q-1 -7 -8 -16q-2 -3 -6 -8t-5 -8.5t2 -5.5q1 -1 4 -1q4 0 9 5q31 31 74 31
q61 0 95 -33.5t34 -86.5q0 -35 -20 -64.5t-54.5 -46.5t-77.5 -17q-71 0 -111.5 43.5t-40.5 119.5q0 94 37 149.5zM358.5 256q14.5 -16 41.5 -16t41.5 15.5t14.5 40.5q0 26 -14 41t-42 15q-27 0 -41.5 -16t-14.5 -40t14.5 -40z" />
    <glyph glyph-name="parenleft_seven_parenright.dlig" horiz-adv-x="800" 
d="M213.5 33.5q-84.5 49.5 -133 133.5t-48.5 185q0 102 48.5 186.5t133 133t186.5 48.5t186.5 -48.5t133 -133t48.5 -186.5t-48.5 -186.5t-133 -133t-186.5 -48.5t-186.5 49.5zM537.5 116q62.5 36 98.5 98.5t36 137.5t-36 137.5t-98.5 98.5t-137.5 36t-137.5 -36
t-98.5 -98.5t-36 -137.5t36 -137.5t98.5 -98.5t137.5 -36t137.5 36zM447.5 335q-24.5 -69 -27.5 -159h-104q10 93 33 157t81 114q11 9 6 15q-1 2 -5 2q-3 0 -11 -5q-13 -7 -33 -7h-127v76h280v-64q-68 -60 -92.5 -129z" />
    <glyph glyph-name="parenleft_eight_parenright.dlig" horiz-adv-x="800" 
d="M586.5 671.5q84.5 -48.5 133 -133t48.5 -186.5t-48.5 -186.5t-133 -133t-186.5 -48.5t-186.5 49.5t-133 133.5t-48.5 185q0 102 48.5 186.5t133 133t186.5 48.5t186.5 -48.5zM537.5 116q62.5 36 98.5 98.5t36 137.5t-36 137.5t-98.5 98.5t-137.5 36t-137.5 -36
t-98.5 -98.5t-36 -137.5t36 -137.5t98.5 -98.5t137.5 -36t137.5 36zM541 318q15 -20 15 -44q0 -47 -41 -76.5t-115 -29.5t-115 29.5t-41 76.5q0 24 15.5 44t41.5 31q11 4 11 12q0 5 -3.5 8t-7.5 4q-23 9 -36 27.5t-13 39.5q0 39 38.5 67.5t109.5 28.5q72 0 110 -28.5
t38 -67.5q0 -20 -13 -37.5t-36 -29.5q-1 0 -6 -2.5t-5 -9.5t12 -12q26 -11 41 -31zM348 429q0 -16 12.5 -25.5t39.5 -9.5t39.5 9.5t12.5 25.5q0 35 -52 35t-52 -35zM445.5 252q14.5 12 14.5 31t-14.5 31t-45.5 12t-45.5 -12t-14.5 -31t14.5 -31t45.5 -12t45.5 12z" />
    <glyph glyph-name="parenleft_nine_parenright.dlig" horiz-adv-x="800" 
d="M213.5 33.5q-84.5 49.5 -133 133.5t-48.5 185q0 102 48.5 186.5t133 133t186.5 48.5t186.5 -48.5t133 -133t48.5 -186.5t-48.5 -186.5t-133 -133t-186.5 -48.5t-186.5 49.5zM537.5 116q62.5 36 98.5 98.5t36 137.5t-36 137.5t-98.5 98.5t-137.5 36t-137.5 -36
t-98.5 -98.5t-36 -137.5t36 -137.5t98.5 -98.5t137.5 -36t137.5 36zM515 223.5q-37 -55.5 -121 -55.5q-60 0 -97.5 30t-40.5 71h94q4 -15 14.5 -23t31.5 -8q27 0 36.5 11.5t14.5 35.5q1 7 8 16q2 3 6 8t5 8.5t-2 5.5q-1 1 -4 1q-4 0 -9 -5q-31 -31 -74 -31q-61 0 -95 33.5
t-34 86.5q0 35 20 64.5t54.5 46.5t77.5 17q71 0 111.5 -43.5t40.5 -119.5q0 -94 -37 -149.5zM441.5 448q-14.5 16 -41.5 16t-41.5 -15.5t-14.5 -40.5q0 -26 14 -41t42 -15q27 0 41.5 16t14.5 40t-14.5 40z" />
    <glyph glyph-name="copyright.ss02" horiz-adv-x="497" 
d="M138.5 316q-49.5 29 -78 78.5t-28.5 108.5q0 60 28.5 110t78 78.5t109.5 28.5q61 0 110.5 -28.5t78 -78.5t28.5 -110t-28.5 -109.5t-78 -78t-110.5 -28.5q-60 0 -109.5 29zM329 364.5q37 21.5 58 58t21 80.5t-21 80.5t-58 58t-81 21.5t-80.5 -21.5t-58 -58t-21.5 -80.5
t21.5 -80.5t58 -58t80.5 -21.5t81 21.5zM172 580q30 31 80 31q46 0 73 -25t29 -58h-58q-3 12 -14 22t-30 10q-23 0 -37 -16.5t-14 -40.5t14 -40t37 -16q19 0 30 9.5t14 21.5h58q-3 -33 -29.5 -58t-72.5 -25q-50 0 -80 31t-30 77t30 77z" />
    <glyph glyph-name="registered.ss02" horiz-adv-x="513" 
d="M64.5 613q28.5 50 78 78.5t109.5 28.5q61 0 110.5 -28.5t78 -78.5t28.5 -110t-28.5 -109.5t-78 -78t-110.5 -28.5q-60 0 -109.5 29t-78 78.5t-28.5 108.5q0 60 28.5 110zM113.5 422.5q21.5 -36.5 58 -58t80.5 -21.5t81 21.5t58 58t21 80.5t-21 80.5t-58 58t-81 21.5
t-80.5 -21.5t-58 -58t-21.5 -80.5t21.5 -80.5zM329.5 589.5q19.5 -17.5 19.5 -46.5q0 -17 -13 -30t-35 -18q-6 -3 -6 -8q0 -7 7 -9q34 -5 39 -23l17 -55h-65l-8 38q-4 17 -12.5 23.5t-31.5 6.5h-17v-68h-59v207h103q42 0 61.5 -17.5zM279.5 518.5q10.5 6.5 10.5 17.5
q0 24 -34 24h-32v-48h29q16 0 26.5 6.5z" />
    <glyph glyph-name="trademark.ss02" horiz-adv-x="539" 
d="M220 652h-65v-155h-58v155h-65v52h188v-52zM362 581q5 -17 5 -29q0 -8 6 -8t6 8q0 12 5 29l33 123h90v-207h-59v104q0 9 3.5 24.5t6.5 22.5q2 8 -4 9q-2 1 -4 -1t-3 -4l-42 -155h-64l-42 155q0 5 -5 5q-4 0 -5.5 -2.5t-0.5 -6.5q3 -7 6.5 -22.5t3.5 -24.5v-104h-59v207
h90z" />
    </font>
</defs>
</svg>
